<?xml version="1.0" encoding="UTF-8" standalone="no"?>
<!-- Created with Inkscape (http://www.inkscape.org/) -->

<svg
   width="1024"
   height="600"
   viewBox="0 0 270.93334 158.75"
   version="1.1"
   id="svg1"
   inkscape:version="1.4.2 (unknown)"
   sodipodi:docname="logo.svg"
   inkscape:export-filename="logo.webp"
   inkscape:export-xdpi="135"
   inkscape:export-ydpi="135"
   xmlns:inkscape="http://www.inkscape.org/namespaces/inkscape"
   xmlns:sodipodi="http://sodipodi.sourceforge.net/DTD/sodipodi-0.dtd"
   xmlns="http://www.w3.org/2000/svg"
   xmlns:svg="http://www.w3.org/2000/svg">
  <sodipodi:namedview
     id="namedview1"
     pagecolor="#ffffff"
     bordercolor="#000000"
     borderopacity="0.25"
     inkscape:showpageshadow="2"
     inkscape:pageopacity="0.0"
     inkscape:pagecheckerboard="0"
     inkscape:deskcolor="#d1d1d1"
     inkscape:document-units="mm"
     inkscape:zoom="0.96966205"
     inkscape:cx="727.57308"
     inkscape:cy="258.33743"
     inkscape:window-width="2560"
     inkscape:window-height="1494"
     inkscape:window-x="0"
     inkscape:window-y="0"
     inkscape:window-maximized="1"
     inkscape:current-layer="layer1" />
  <defs
     id="defs1">
    <clipPath
       clipPathUnits="userSpaceOnUse"
       id="clipath_lpe_path-effect169-5">
      <path
         id="lpe_path-effect169-5"
         style="fill:#ffffff;fill-opacity:1;stroke:none;stroke-width:1.35494;stroke-linecap:round"
         class="powerclip"
         d="m 104.90661,18.070473 h 102.1941 V 92.176529 H 104.90661 Z M 34.891644,47.184792 V 95.830894 H 225.39164 V 47.184792 Z" />
    </clipPath>
    <mask
       maskUnits="userSpaceOnUse"
       id="mask131-2-4">
      <g
         id="g143-5-4">
        <path
           style="fill:none;fill-opacity:1;stroke:#ffffff;stroke-width:1.5875;stroke-linecap:square;stroke-dasharray:none;stroke-opacity:1"
           d="M 202.10071,-30.425181 174.44783,30.415732"
           id="path131-4-4"
           sodipodi:nodetypes="cc" />
        <g
           id="g142-0-4"
           transform="translate(-3.0114069,-44.418251)">
          <path
             style="fill:none;fill-opacity:1;stroke:#ffffff;stroke-width:1.5875;stroke-linecap:square;stroke-dasharray:none;stroke-opacity:1"
             d="M 136.62383,77.873313 112.91802,130.03"
             id="path132-5-7"
             sodipodi:nodetypes="cc" />
          <g
             id="g134-9-6"
             transform="translate(45.076841,-61.335711)"
             style="stroke:#ffffff;stroke-opacity:1">
            <path
               style="fill:none;fill-opacity:1;stroke:#ffffff;stroke-width:1.5875;stroke-linecap:square;stroke-dasharray:none;stroke-opacity:1"
               d="m 132.11278,101.14811 -25.02647,55.06238 12.46495,33.23684"
               id="path133-4-3" />
            <path
               style="fill:none;fill-opacity:1;stroke:#ffffff;stroke-width:1.5875;stroke-linecap:square;stroke-dasharray:none;stroke-opacity:1"
               d="m 139.52114,101.14811 -25.02648,55.06238 12.46496,33.23684"
               id="path134-6-1" />
          </g>
          <path
             style="fill:none;fill-opacity:1;stroke:#ffffff;stroke-width:1.5875;stroke-linecap:square;stroke-dasharray:none;stroke-opacity:1"
             d="m 162.37299,39.812393 -25.02647,55.0624 12.46495,33.236837"
             id="path135-9-7" />
          <path
             style="fill:none;fill-opacity:1;stroke:#ffffff;stroke-width:1.5875;stroke-linecap:square;stroke-dasharray:none;stroke-opacity:1"
             d="m 169.78135,39.812393 -25.02648,55.0624 12.46496,33.236837"
             id="path136-2-5" />
          <path
             id="path137-2-9"
             style="fill:#ffffff;fill-opacity:1;stroke-width:1.82562;stroke-linecap:square"
             d="m 141.61622,76.475493 a 4.5914888,4.5914888 0 0 1 -4.59149,4.59149 4.5914888,4.5914888 0 0 1 -4.59149,-4.59149 4.5914888,4.5914888 0 0 1 4.59149,-4.59149 4.5914888,4.5914888 0 0 1 4.59149,4.59149 z" />
          <path
             id="path138-4-6"
             style="fill:#ffffff;fill-opacity:1;stroke-width:1.82562;stroke-linecap:square"
             d="m 195.17796,88.986283 a 4.5914888,4.5914888 0 0 1 -4.59149,4.59149 4.5914888,4.5914888 0 0 1 -4.59149,-4.59149 4.5914888,4.5914888 0 0 1 4.59149,-4.59149 4.5914888,4.5914888 0 0 1 4.59149,4.59149 z" />
          <path
             id="path139-7-2"
             style="fill:#ffffff;fill-opacity:1;stroke-width:1.82562;stroke-linecap:square"
             d="m 182.64329,74.541283 a 4.5914888,4.5914888 0 0 1 -4.59149,4.59148 4.5914888,4.5914888 0 0 1 -4.59149,-4.59148 4.5914888,4.5914888 0 0 1 4.59149,-4.59149 4.5914888,4.5914888 0 0 1 4.59149,4.59149 z" />
          <path
             id="path140-7-1"
             style="fill:#ffffff;fill-opacity:1;stroke-width:1.82562;stroke-linecap:square"
             d="m 176.0897,88.087813 a 4.5914888,4.5914888 0 0 1 -4.59149,4.59149 4.5914888,4.5914888 0 0 1 -4.59149,-4.59149 4.5914888,4.5914888 0 0 1 4.59149,-4.59148 4.5914888,4.5914888 0 0 1 4.59149,4.59148 z" />
          <path
             id="path141-5-7"
             style="fill:#ffffff;fill-opacity:1;stroke-width:1.82562;stroke-linecap:square"
             d="m 202.51865,74.611224 a 4.5914888,4.5914888 0 0 1 -4.59148,4.59149 4.5914888,4.5914888 0 0 1 -4.59149,-4.59149 4.5914888,4.5914888 0 0 1 4.59149,-4.59148 4.5914888,4.5914888 0 0 1 4.59148,4.59148 z" />
          <path
             style="fill:none;fill-opacity:1;stroke:#ffffff;stroke-width:1.5875;stroke-linecap:square;stroke-dasharray:none;stroke-opacity:1"
             d="m 196.69157,74.879564 -11.0355,5.22082 -23.40479,51.494396"
             id="path142-4-8"
             sodipodi:nodetypes="ccc" />
        </g>
      </g>
    </mask>
    <inkscape:path-effect
       effect="powerclip"
       message=""
       id="path-effect169-5"
       is_visible="true"
       lpeversion="1"
       inverse="true"
       flatten="false"
       hide_clip="false" />
    <filter
       style="color-interpolation-filters:sRGB;"
       inkscape:label="Drop Shadow"
       id="filter7"
       x="0"
       y="0"
       width="1.0590551"
       height="1.1417323">
      <feFlood
         result="flood"
         in="SourceGraphic"
         flood-opacity="0.501961"
         flood-color="rgb(0,0,0)"
         id="feFlood6" />
      <feGaussianBlur
         result="blur"
         in="SourceGraphic"
         stdDeviation="0.000000"
         id="feGaussianBlur6" />
      <feOffset
         result="offset"
         in="blur"
         dx="3.000000"
         dy="3.000000"
         id="feOffset6" />
      <feComposite
         result="comp1"
         operator="in"
         in="flood"
         in2="offset"
         id="feComposite6" />
      <feComposite
         result="comp2"
         operator="over"
         in="SourceGraphic"
         in2="comp1"
         id="feComposite7" />
    </filter>
  </defs>
  <g
     inkscape:label="图层 1"
     inkscape:groupmode="layer"
     id="layer1">
    <g
       id="text3"
       style="font-weight:bold;font-size:81.5278px;line-height:0.65;font-family:MiSans;-inkscape-font-specification:'MiSans Bold';letter-spacing:0px;fill:#e60013;stroke-width:4.62204;stroke-linecap:square;stroke-linejoin:bevel"
       transform="scale(1.0015707,0.99843172)"
       aria-label="龙芯&#10;爱好者社区&#10;">
      <path
         style="font-size:54.7868px;stroke-width:4.62205"
         d="m 50.513469,34.253508 q -0.219147,4.876026 -0.219147,5.14996 -0.05479,0.931375 -0.109574,1.917538 -0.05479,0.931375 -0.05479,1.807964 -0.109573,2.848914 -0.986162,4.492518 -0.876589,1.643604 -2.794127,2.301045 -1.917538,0.712229 -5.204746,0.712229 H 32.98169 q -3.999437,0 -5.807401,-1.534031 -1.753178,-1.479243 -1.972325,-5.369106 -2.794127,1.807964 -7.505792,4.547304 L 13.806313,41.485366 Q 10.683465,46.690112 5.6978661,51.894858 L 3.8834572e-5,44.663 Q 4.3829829,40.38963 6.9579625,36.28062 9.5877289,32.116823 10.957399,27.679092 12.327069,23.186575 13.039297,17.160027 H 3.1228865 V 9.0515801 H 13.806313 Q 14.080247,4.0659813 14.18982,0.28569208 l 8.656315,0.0547868 Q 22.626987,4.6686361 22.298267,9.0515801 H 33.529561 Q 31.721596,7.0792553 29.420551,4.9973569 l 5.588253,-4.98559882 q 1.36967,1.26009642 4.821239,4.71166482 l 2.081898,2.1366852 -2.301045,2.191472 H 49.965601 V 17.160027 H 33.255627 v 10.299918 q 4.930812,-4.437731 8.820675,-9.313756 l 6.026548,5.533467 q -6.136122,7.560578 -14.847223,14.354142 v 1.807964 q 0,1.753178 0.547868,2.355832 0.547868,0.547868 2.246258,0.547868 h 3.341995 q 1.534031,0 2.136686,-0.16436 0.602654,-0.219147 0.767015,-0.767015 0.219147,-0.602655 0.328721,-2.081899 l 0.16436,-5.423893 0.05479,-1.972325 z M 14.18982,40.882711 q 5.643041,-3.122847 10.95736,-6.903137 V 17.160027 h -3.725502 q -0.986163,7.451004 -2.684553,13.094045 -1.643604,5.588254 -4.547305,10.628639 z M 74.729235,18.420123 H 66.292067 V 13.708458 H 55.937362 V 5.6547985 h 10.354705 v -4.382944 h 8.437168 v 4.382944 H 86.61797 v -4.382944 h 8.327594 v 4.382944 H 105.24548 V 13.708458 H 94.945564 v 4.711665 H 86.61797 V 13.708458 H 74.729235 Z M 87.494559,39.01996 q 0,-1.862751 0.219147,-6.68399 l 7.8893,1.917538 q 0,1.807965 -0.109574,4.437731 -0.109574,2.57498 -0.273934,4.547305 -0.219147,2.520192 -1.095736,3.944649 -0.876589,1.424457 -2.684553,1.972325 -1.753178,0.602655 -4.821239,0.602655 H 74.948382 q -3.999437,0 -5.752614,-1.753178 Q 67.44259,46.251818 67.44259,42.197594 V 25.706767 q -1.917538,7.615366 -3.177634,12.107883 l -1.479244,5.423894 -7.560578,-2.73934 q 2.684553,-8.382381 4.656878,-17.038695 l 7.560578,1.807964 v -3.725502 h 8.656315 Q 75.770184,20.940316 75.49625,20.447235 75.222316,19.899367 75.003169,19.515859 l 6.957923,-3.451568 0.876589,1.53403 q 5.369106,9.368543 6.68399,11.779162 L 82.235026,33.54128 Q 78.728671,26.528569 76.098905,21.597757 v 17.312629 q 0,1.698391 0.438294,2.136686 0.493081,0.438294 2.027112,0.438294 h 6.190908 q 1.698391,0 2.246259,-0.438294 0.547868,-0.493082 0.493081,-2.027112 z M 97.57533,21.542971 q 0.986163,1.753177 2.41062,4.10901 1.47924,2.301045 2.0819,3.287208 3.12285,5.040385 3.94465,6.519629 L 99.438082,40.55399 Q 96.589168,35.349244 90.946127,25.651981 Z"
         id="path1" />
      <path
         style="font-size:54.7868px;stroke-width:4.62205"
         d="M 47.883702,61.098261 Q 39.172601,61.97485 26.735997,62.741865 14.299394,63.454094 4.0542621,63.837601 L 3.6159677,57.153612 Q 15.011622,56.824891 27.064718,56.167449 39.172601,55.510008 46.952327,54.633419 Z M 10.464318,73.589652 v 2.027111 H 2.8489525 V 67.508317 H 8.6563533 L 8.1084853,66.248221 Q 7.3962569,64.604617 7.3962569,64.54983 l 8.2728071,-0.712229 1.698391,3.670716 h 4.821238 q -0.16436,-0.493081 -0.712228,-1.862751 l -0.493082,-1.314883 8.108447,-0.876589 1.643604,4.054223 h 4.656878 q 0.876589,-1.807964 2.136685,-4.711665 l 7.998873,1.260097 -1.698391,3.451568 h 5.259533 v 8.108446 H 41.2545 v -2.027111 z m 39.939577,9.258969 h -28.92743 l -0.986163,2.027112 h 25.256715 v 5.971761 q -3.561142,3.396782 -7.779725,5.807401 5.095172,1.040949 12.381816,1.698391 l -2.410619,7.615364 q -12.107883,-1.6436 -19.778035,-4.65688 -7.779725,2.9037 -18.3535779,5.14996 l -2.73934,-6.41005 -3.6159288,2.84891 -3.01327406,-7.779726 Q 4.8760641,92.326738 7.7797645,89.423037 10.738252,86.519337 12.65579,82.848621 H 1.8080032 V 76.383779 H 15.285556 q 0.328721,-0.876589 0.712229,-2.465406 l 8.272806,0.547868 -0.493081,1.917538 H 50.403895 Z M 28.763109,93.915555 q 3.615929,-1.534031 6.464842,-3.341995 H 23.065282 q 2.574979,2.027112 5.697827,3.341995 z M 7.6701909,99.558595 Q 14.682901,98.462859 19.997221,96.928829 17.148307,94.84693 15.066409,92.545885 12.436643,95.559159 7.6701909,99.558595 Z M 78.947818,71.672114 q -0.931375,6.793563 -2.027111,11.340868 -1.04095,4.492517 -2.73934,8.053659 3.780289,3.341995 5.862187,5.31432 l -5.369106,6.519629 q -2.520193,-2.62977 -5.040386,-4.985599 -3.287208,3.944649 -8.711101,8.382379 L 54.9512,100.43518 q 3.013274,-2.355828 5.040385,-4.163793 2.027112,-1.862751 3.561142,-3.780289 -3.122847,-2.73934 -6.793563,-5.47868 1.862751,-7.177071 3.177634,-15.011583 h -4.10901 v -8.108447 h 5.204746 q 0.383508,-3.013274 0.876589,-8.21802 l 7.724939,0.547868 q -0.547868,5.095173 -0.931375,7.670152 h 10.245131 z m 26.955102,5.369106 v 8.108447 h -9.094605 v 13.422766 q 0,4.109007 -1.972325,5.752617 -1.972325,1.6436 -6.519629,1.6436 H 82.782894 L 81.13929,97.58627 h 4.930812 q 1.534031,0 1.972325,-0.383507 0.438294,-0.438295 0.438294,-1.917538 V 85.149667 H 79.112179 V 77.04122 h 9.368542 v -5.533467 l 6.464843,-6.245695 H 80.865356 v -7.998873 h 24.215764 v 7.944086 l -8.272805,9.094609 v 2.73934 z m -40.816162,6.574416 q 0.273934,0.219148 2.629766,2.027112 2.191472,-5.040386 3.396782,-13.641913 h -3.615929 q -1.150523,6.683989 -2.410619,11.614801 z m 95.000312,-7.231857 h -16.6004 q -1.91754,1.479243 -4.60209,3.177634 h 16.6004 v 26.571597 h -8.10845 v -1.97232 h -21.96951 v 1.97232 h -8.05365 V 90.299626 l -3.28721,1.314883 -1.47925,0.602655 -2.52019,-7.451005 q 11.72438,-3.889863 19.83282,-8.38238 h -19.17538 v -7.012711 h 15.66903 v -3.122847 h -11.77916 v -6.957924 h 11.77916 v -3.122848 h 8.2728 v 3.122848 h 10.57386 v 5.423893 q 3.2872,-3.396781 6.51963,-7.779725 l 6.35526,4.27337 q -3.34199,4.711665 -6.68398,8.163233 h 8.65631 z M 134.66599,66.248221 v 3.122847 h 5.58826 q 1.80796,-1.479243 3.45157,-3.122847 z m 12.71054,22.626948 v -2.794127 h -20.43547 l -1.53404,0.712229 v 2.081898 z m -21.96951,5.971761 v 2.794127 h 21.96951 V 94.84693 Z m 48.21239,-29.913593 q -0.4383,-2.629766 -1.36967,-6.026548 l -0.49309,-2.027111 7.28665,-1.534031 q 1.09573,3.615929 2.13668,8.272807 z m 30.07795,11.99831 v 18.901446 h 11.06693 v 7.889297 h -30.95454 v -7.889297 h 11.50523 V 76.931647 h -8.93025 V 68.8232 h 8.93025 V 56.003089 h 8.38238 V 68.8232 h 9.58769 v 8.108447 z m -18.46315,15.23073 q -2.0819,-1.972325 -5.75262,-5.204746 v 19.065809 h -7.56058 V 89.258677 q -2.19147,2.081898 -4.65687,3.835076 l -2.0819,-9.094609 q 3.39678,-2.465406 5.86219,-5.095173 2.4654,-2.629766 5.14996,-6.300482 h -9.86163 v -7.341431 h 17.91528 v 7.615365 q -1.69839,3.013274 -3.39678,5.533467 5.75262,4.766452 9.20419,7.8893 z m 46.34963,4.602091 h 37.20024 v 7.944082 H 223.25625 V 57.208399 h 44.54167 v 8.053659 h -9.64248 l 5.58826,4.163797 q -4.38295,5.862188 -8.93025,10.847786 l 9.75205,9.806838 -6.13612,6.300482 q -5.53347,-5.971761 -9.47812,-10.025985 -5.91697,5.916975 -10.95736,9.642477 l -5.25953,-6.903137 q 4.87602,-3.506355 10.29992,-8.765888 -5.58826,-5.697827 -8.98504,-8.930248 l 5.47868,-5.862188 q 3.88986,3.561142 9.31376,8.820675 4.65687,-5.095172 7.61536,-9.094609 h -24.87321 z"
         id="path2" />
    </g>
    <path
       style="font-size:15.2391px;line-height:0.55;font-family:MiSans;-inkscape-font-specification:MiSans;letter-spacing:0px;fill:#2f2f2f;stroke-width:6.50347;stroke-linecap:square;stroke-linejoin:bevel"
       d="m 6.1409021,116.75358 q -0.594325,0.92958 -1.4172364,1.79821 l -0.9600633,-0.74672 q 1.4324754,-1.43247 2.3163433,-3.52023 l 1.219128,0.21335 q -0.2438256,0.60956 -0.5028903,1.12769 h 6.1261186 v 1.11246 l -1.203889,1.72202 -1.097215,-0.4267 0.990541,-1.28008 H 8.9296574 l -0.1219128,0.80767 q -0.030478,0.15239 -0.060956,0.22858 0.5790859,0.7772 1.7067784,1.31057 1.127694,0.51813 3.093538,0.8991 l -0.533369,1.17341 q -1.85917,-0.45717 -3.002102,-0.99054 -1.1429326,-0.5486 -1.7982139,-1.29532 -0.5486076,0.74672 -1.6153446,1.29532 -1.0667371,0.53337 -2.7430381,0.96007 l -0.4724121,-1.08198 q 1.9963221,-0.50289 2.9563855,-1.08198 0.9600633,-0.59432 1.1581716,-1.40199 0,0 0.076196,-0.38098 l 0.076195,-0.44193 z m -3.2002111,0.44193 q -0.899107,-0.67052 -2.3620606,-1.6763 l 0.6400422,-0.9753 q 1.8286921,1.20389 2.3925388,1.6001 z m 0.9448242,1.41724 q -0.5943249,0.53336 -3.2002111,2.69732 l -0.65528132,-1.06674 q 0.38097751,-0.2743 1.56962732,-1.23437 1.203889,-0.9753 1.5696274,-1.31056 l 0.3504993,0.47241 z m 7.8024198,2.91066 v 4.1298 H 10.40785 v -2.95638 H 3.2911903 v 2.95638 H 2.0263449 v -4.1298 z m -4.1602748,2.57541 q -0.045717,0.56385 -0.2133474,0.94483 3.2611672,1.21912 5.9737272,2.25538 l -0.548607,1.18865 q -1.295324,-0.5486 -2.9411468,-1.21912 -1.6458229,-0.67053 -3.0935374,-1.24961 -0.6857595,0.71624 -2.0420395,1.28008 -1.3562799,0.54861 -3.71834049,1.1277 l -0.60956402,-1.23437 q 2.25538691,-0.45717 3.48975401,-0.92959 1.2496062,-0.47241 1.7372574,-0.99054 0.5028904,-0.51813 0.5638468,-1.20389 0.045717,-0.32002 0.091435,-0.96006 h 1.3867581 z m 10.2406758,-5.98896 q -1.249607,-1.72202 -2.011562,-2.66685 l 1.02102,-0.77719 0.716238,0.89911 q 0.289543,0.36573 0.624803,0.80767 0.350499,0.44193 0.700999,0.89911 z m 11.261695,6.12611 q -0.198108,1.58487 -0.320021,2.19443 -0.182869,0.82292 -0.51813,1.23437 -0.320021,0.4267 -0.853389,0.4267 -0.472412,0 -0.85339,-0.36574 -0.365738,-0.36574 -0.594325,-1.03626 -0.457173,-1.44772 -0.457173,-4.80032 v -5.25749 h -2.88019 v 4.0536 H 24.8088 v 1.26485 h -2.255387 v 6.33946 H 21.25809 v -6.33946 h -2.255387 v -1.26485 h 2.255387 v -4.0536 h -1.981083 v -1.29532 h 7.45192 v 6.36994 q 0,1.32581 0.03048,2.07252 0.04572,0.73148 0.121913,1.35628 0.152391,1.24961 0.457173,1.24961 0.152391,0 0.243825,-0.19811 0.106674,-0.21335 0.213348,-0.83815 0.152391,-0.92959 0.16763,-1.50867 z m -11.063587,1.55439 1.676301,-1.23436 0.33526,1.28008 -3.032581,2.103 -0.700998,-1.03626 q 0.274303,-0.24383 0.350499,-0.41146 0.09144,-0.18287 0.09144,-0.44193 v -5.40988 h -1.386759 v -1.28009 h 2.666843 z m 25.540732,-8.42722 q -0.213347,7.31477 -0.289543,8.68629 -0.03048,0.73147 -0.243825,1.14293 -0.198108,0.41146 -0.655281,0.57909 -0.441934,0.18286 -1.219128,0.18286 h -1.584867 l -0.259065,-1.28008 h 1.341041 q 0.579086,0 0.868629,-0.0914 0.289543,-0.10668 0.411456,-0.36574 0.121912,-0.25907 0.152391,-0.79244 0.06096,-1.31056 0.121912,-3.36784 0.0762,-2.05728 0.121913,-3.41356 h -2.36206 q -0.09144,2.95639 -0.274304,4.49554 -0.182869,1.52391 -0.700999,2.74304 -0.518129,1.21913 -1.630584,2.6516 L 36.16193,127.741 q 1.081976,-1.29533 1.584866,-2.36206 0.502891,-1.08198 0.700999,-2.54493 0.198108,-1.46296 0.274304,-4.19076 h -1.584867 v -1.28008 h 1.615345 l 0.04572,-2.89543 h 1.203889 q 0,0.99054 -0.04572,2.89543 z m -12.236997,-1.79821 h 5.333685 v 1.26484 h -5.333685 z m 4.830795,11.29217 -0.243826,-0.67052 -4.846034,0.54861 -0.228586,-1.14294 q 0.609564,-1.02102 1.158171,-2.36206 0.563847,-1.35628 0.929585,-2.5754 h -2.240148 v -1.23437 h 6.430901 v 1.23437 h -2.88019 q -0.320021,1.11245 -0.899107,2.56016 -0.563847,1.43248 -0.944824,2.16396 l 3.093537,-0.33526 q -0.655281,-1.73726 -1.081976,-2.7278 l 1.112454,-0.41146 q 0.457173,1.06674 1.752497,4.4041 z m 9.661588,-5.54703 q 2.529691,-0.79244 3.779297,-1.70678 1.249606,-0.91435 1.752497,-2.11824 h -5.135577 v -1.21913 h 5.501315 q 0.137152,-0.73147 0.198108,-1.79821 l 1.341041,0.0305 q -0.03048,0.53337 -0.182869,1.76773 h 5.92801 v 1.21913 h -5.440359 q 1.767736,2.57541 5.821337,3.73358 l -0.51813,1.34104 q -2.148713,-0.67052 -3.764058,-1.79821 -1.600105,-1.14293 -2.544929,-2.62113 -0.380978,0.79244 -0.990542,1.4782 1.600106,1.26484 1.935366,1.58486 l -0.792433,0.91435 q -0.68576,-0.60956 -2.011562,-1.6763 -1.508671,1.18865 -4.251709,2.19443 z m 6.750922,1.03626 q 0.320021,0.38097 0.914346,1.18865 0.594325,0.80767 0.914346,1.26484 l -0.990542,0.71624 q -0.289543,-0.47241 -0.853389,-1.26485 -0.563847,-0.80767 -0.899107,-1.23436 z m 2.407778,2.24014 1.17341,0.27431 q 0,0.6248 -0.106673,1.66106 -0.06096,0.60956 -0.243826,0.92958 -0.182869,0.32003 -0.594325,0.45718 -0.396216,0.13715 -1.158171,0.13715 h -2.910669 q -0.960063,0 -1.371519,-0.39622 -0.411455,-0.39621 -0.411455,-1.31056 v -3.53547 h 1.295323 v 3.06306 q 0,0.57908 0.182869,0.77719 0.198109,0.19811 0.700999,0.19811 h 2.316343 q 0.624803,0 0.838151,-0.16763 0.213347,-0.16763 0.228586,-0.701 z m 2.209669,-1.75249 q 0.487651,0.71623 1.127694,1.79821 0.640042,1.06674 1.081976,1.90489 l -1.081976,0.68576 q -0.487652,-0.9753 -1.081976,-2.01156 -0.579086,-1.03626 -1.066737,-1.73726 z m -11.383608,4.0536 q 0.914346,-1.76774 1.493432,-3.84026 l 1.142933,0.39622 q -0.533369,1.96584 -1.508671,3.99265 z m 30.219148,-10.134 q -0.594325,0.92958 -1.417236,1.79821 l -0.960063,-0.74672 q 1.432475,-1.43247 2.316343,-3.52023 l 1.219128,0.21335 q -0.243826,0.60956 -0.50289,1.12769 h 6.126118 v 1.11246 l -1.203889,1.72202 -1.097215,-0.4267 0.990541,-1.28008 h -2.682081 l -0.121913,0.80767 q -0.03048,0.15239 -0.06096,0.22858 0.579086,0.7772 1.70678,1.31057 1.127693,0.51813 3.093537,0.8991 l -0.533368,1.17341 q -1.859171,-0.45717 -3.002103,-0.99054 -1.142933,-0.5486 -1.798214,-1.29532 -0.548608,0.74672 -1.615345,1.29532 -1.066737,0.53337 -2.743038,0.96007 l -0.472412,-1.08198 q 1.996322,-0.50289 2.956386,-1.08198 0.960063,-0.59432 1.158171,-1.40199 0,0 0.0762,-0.38098 l 0.07619,-0.44193 z m -3.200211,0.44193 q -0.899107,-0.67052 -2.36206,-1.6763 l 0.640042,-0.9753 q 1.828692,1.20389 2.392539,1.6001 z m 0.944824,1.41724 q -0.594325,0.53336 -3.200211,2.69732 l -0.655281,-1.06674 q 0.380977,-0.2743 1.569627,-1.23437 1.203889,-0.9753 1.569628,-1.31056 l 0.350499,0.47241 z m 7.80242,2.91066 v 4.1298 h -1.280085 v -2.95638 h -7.11666 v 2.95638 h -1.264845 v -4.1298 z m -4.160275,2.57541 q -0.04572,0.56385 -0.213347,0.94483 3.261167,1.21912 5.973727,2.25538 l -0.548607,1.18865 q -1.295324,-0.5486 -2.941147,-1.21912 -1.645823,-0.67053 -3.093537,-1.24961 -0.68576,0.71624 -2.04204,1.28008 -1.356279,0.54861 -3.71834,1.1277 l -0.609564,-1.23437 q 2.255387,-0.45717 3.489754,-0.92959 1.249606,-0.47241 1.737257,-0.99054 0.502891,-0.51813 0.563847,-1.20389 0.04572,-0.32002 0.09143,-0.96006 h 1.386758 z m 10.697846,-6.23279 q -0.411456,-0.39622 -1.158172,-1.03626 -0.746716,-0.64004 -1.325801,-1.09721 l 0.716237,-0.94483 q 1.401998,1.11246 2.499213,2.0268 z m 9.753024,5.77562 h -2.590647 v 2.91067 q 0,0.65528 -0.152391,1.00578 -0.137152,0.3505 -0.487651,0.50289 -0.33526,0.15239 -0.975302,0.15239 h -1.264846 l -0.228586,-1.15817 h 1.051498 q 0.548607,0 0.716237,-0.19811 0.16763,-0.19811 0.16763,-0.79243 v -2.42302 h -2.590647 v -5.65371 h 1.889649 q 0.259065,-0.79243 0.441934,-1.53915 h -3.474515 v 3.8555 q 0,1.93536 -0.152391,3.2764 -0.137152,1.3258 -0.50289,2.46874 -0.3505,1.14293 -1.036259,2.45349 l -1.158172,-0.53337 q 0.670521,-1.29532 1.005781,-2.36206 0.350499,-1.08197 0.487651,-2.27062 0.137152,-1.20389 0.137152,-2.97163 v -5.12034 h 9.615872 v 1.20389 h -3.672623 q -0.152391,0.64005 -0.426695,1.53915 h 3.200211 z m -10.16448,-2.28587 q -0.50289,-0.45717 -1.310562,-1.12769 -0.792434,-0.67052 -1.310563,-1.08198 l 0.68576,-0.99054 q 0.899106,0.68576 2.270626,1.8287 0.152391,0.10667 0.259064,0.1981 0.106674,0.0914 0.182869,0.15239 z m 8.960591,-1.03625 v -1.24961 h -3.977405 v 1.24961 z m 0,0.99054 h -3.977405 v 1.26484 h 3.977405 z m -8.686287,1.34104 -1.036259,4.20599 -0.350499,1.402 -1.173411,-0.33526 q 1.249606,-4.78508 1.401997,-5.56228 z m 5.013664,2.19443 q -0.441934,0.77719 -1.051498,1.66106 -0.609564,0.86863 -1.18865,1.53915 l -0.899107,-0.71624 q 1.386759,-1.50867 2.194431,-3.06306 z m 3.748819,-0.53337 q 0.518129,0.67052 1.158172,1.55439 0.655281,0.86863 1.00578,1.41723 l -0.929585,0.68576 q -0.365738,-0.60956 -1.02102,-1.53915 -0.655281,-0.94482 -1.097215,-1.50867 z m 3.809784,-7.4824 v -1.29532 h 13.30373 v 1.29532 h -6.3547 v 11.50552 h -1.46296 v -11.50552 z m 7.86337,2.17919 q 1.03626,0.73148 2.52969,1.85917 1.49343,1.1277 2.19443,1.72202 l -0.83815,1.14293 q -0.83815,-0.71623 -2.20967,-1.78297 -1.37152,-1.08198 -2.42301,-1.85917 z m 20.66422,5.4556 q -0.0914,0.80767 -0.25907,1.90489 -0.18286,1.08197 -0.57908,1.50867 -0.38098,0.44193 -0.9753,0.44193 -0.54861,0 -0.97531,-0.36574 -0.42669,-0.35049 -0.83815,-1.17341 -0.16763,-0.32002 -0.32002,-0.73147 -0.94482,1.06673 -2.27062,2.13347 l -0.89911,-1.00578 q 1.72202,-1.29532 2.7278,-2.48397 -0.62481,-2.33159 -0.86863,-5.34893 h -8.03101 v -1.12769 h 3.26117 v -1.29532 h -2.6516 v -1.0515 h 2.6516 v -1.43248 h 1.23437 v 1.43248 h 2.62112 v 1.0515 h -2.62112 v 1.29532 h 3.44403 l -0.0305,-0.701 -0.12192,-3.16973 h 1.26485 q 0.061,1.93536 0.13715,3.38308 l 0.0305,0.48765 h 4.00788 v 1.12769 h -3.93169 q 0.18287,2.31635 0.57909,4.08408 0.94482,-1.44771 1.63058,-3.44403 l 1.15818,0.48765 q -0.53337,1.35628 -1.11246,2.43825 -0.57908,1.08198 -1.26484,2.01156 0.18287,0.53337 0.44193,1.11246 0.19811,0.45717 0.36574,0.64004 0.18287,0.18287 0.38098,0.18287 0.16763,0 0.25906,-0.24383 0.10667,-0.25906 0.22859,-0.92958 0.10667,-0.65528 0.19811,-1.56963 z m -1.34104,-6.79664 q -0.68576,-0.74671 -2.16395,-2.16395 l 0.77719,-0.79243 q 0.94482,0.85339 2.24015,2.11823 z m -4.63269,8.54914 -2.39254,0.18287 v 1.9506 h -1.23436 v -1.85917 l -3.61167,0.2743 -0.0914,-1.15817 3.70311,-0.2743 V 124.2055 H 116.472 v -1.03626 q 0.51813,-0.76196 0.99054,-1.56963 h -1.6001 v -1.06674 h 2.20966 l 0.53337,-1.06673 1.21913,0.24382 -0.41145,0.82291 h 3.79453 v 1.06674 h -4.35838 q -0.51813,0.91435 -0.92959,1.56963 h 1.56963 v -1.06674 h 1.15817 v 1.06674 h 2.36206 v 1.03626 h -2.36206 v 1.03625 l 2.34682,-0.16763 0.0305,0.71624 z m 26.24174,-5.83658 q 1.55439,1.69154 4.03837,2.51445 l -0.54861,1.21913 q -3.10878,-1.26484 -4.93747,-3.73358 h -2.71256 q -1.11245,1.44772 -2.74304,2.51445 1.44772,-0.30478 2.88019,-0.76195 1.44772,-0.45717 2.59065,-0.99054 l 0.42669,0.96006 q -2.62112,1.23437 -5.56227,1.84393 l -0.38098,-1.03626 q -0.88386,0.57909 -2.10299,1.17341 l -0.64004,-1.11245 q 1.28008,-0.50289 2.22491,-1.12769 0.94482,-0.62481 1.70677,-1.46296 h -3.61166 v -1.12769 h 4.49553 q 0.3505,-0.50289 0.76196,-1.21913 l -3.87073,0.12191 -0.25907,-1.02102 q 1.18865,-0.60956 2.3773,-1.43247 1.18865,-0.82291 1.99632,-1.53915 l 1.03626,0.67052 q -1.26484,1.0515 -3.09354,2.20967 l 5.77562,-0.18287 q -0.44193,-0.33526 -1.52391,-1.12769 l 0.74672,-0.76196 1.26484,0.91435 q 2.20967,1.6001 2.65161,1.93536 l -0.68576,0.92959 -1.15817,-0.89911 -3.79454,0.12191 q -0.28954,0.56385 -0.73148,1.28009 h 7.16238 v 1.12769 z m 0.64005,3.26117 q -3.4288,1.7525 -8.21388,2.57541 l -0.33526,-1.02102 q 4.44982,-0.68576 8.06149,-2.54493 z m -9.38729,3.80977 q 3.79454,-0.51813 6.18708,-1.23436 2.40777,-0.71624 4.52601,-1.85917 l 0.57908,1.00578 q -2.08775,1.14293 -4.6784,1.90489 -2.57541,0.74671 -6.21755,1.29532 z m 27.38467,-9.63111 h -9.14346 l -0.16763,2.24015 h 8.74724 l -0.33526,5.56227 q -0.0762,1.02102 -0.36574,1.55439 -0.28954,0.53337 -0.86863,0.74672 -0.57908,0.21334 -1.6001,0.21334 h -2.71256 l -0.24383,-1.34104 h 2.57541 q 0.71624,0 1.06674,-0.0914 0.3505,-0.10668 0.50289,-0.4267 0.16763,-0.32002 0.19811,-1.00578 l 0.2743,-3.88597 h -8.77772 l 0.48765,-6.72044 h 1.44772 l -0.13716,1.87441 h 9.05203 z m -12.98371,5.4556 h 9.79874 v 1.31056 h -9.79874 z m 22.66053,-6.65949 q 0.33526,3.33737 1.78297,5.8823 1.44772,2.54493 4.34315,4.54125 l -0.94483,1.21913 q -2.33158,-1.73726 -3.73358,-3.68787 -1.38676,-1.9506 -2.07252,-4.54125 -1.43247,4.43458 -5.89753,8.19864 l -0.9753,-1.14293 q 5.51655,-4.34315 6.24803,-10.17972 -0.12191,-0.27431 -0.41145,-0.38098 -0.28955,-0.10667 -0.85339,-0.10667 h -2.07252 v -1.38676 h 2.57541 q 0.96006,0 1.43247,0.38098 0.48765,0.36573 0.57909,1.20388 z m 9.79874,-2.24014 q 0.44194,0.36573 1.17341,1.09721 0.73148,0.71624 1.24961,1.26485 l -0.92958,0.99054 q -0.44194,-0.50289 -1.17342,-1.26485 -0.73147,-0.76195 -1.20388,-1.18865 z m 10.77405,11.70363 q 0,0.86862 -0.19811,1.31056 -0.18287,0.44193 -0.64004,0.60956 -0.44194,0.16763 -1.3258,0.16763 h -2.0268 l -0.27431,-1.35628 h 1.87441 q 0.53337,0 0.77719,-0.0762 0.25907,-0.0914 0.3505,-0.33526 0.10668,-0.25907 0.10668,-0.7772 v -8.85392 h -6.40042 v -1.28008 h 7.7567 z m -11.87126,-8.33579 h 1.34104 v 10.57593 h -1.34104 z m 23.3006,2.52969 h 13.39517 v 1.47819 h -13.39517 z m 15.98581,-5.01367 h 11.90174 v 10.94168 q 0,0.80767 -0.18287,1.21913 -0.18287,0.42669 -0.65528,0.59432 -0.45718,0.16763 -1.37152,0.16763 h -1.72202 l -0.25907,-1.24961 h 1.61535 q 0.56384,0 0.82291,-0.0762 0.25906,-0.0762 0.3505,-0.28954 0.10667,-0.22859 0.10667,-0.71624 v -9.35681 h -9.29585 v 11.77983 h -1.31056 z m 4.98318,9.60064 q -0.25906,-0.56385 -0.86862,-1.85917 -0.97531,1.9506 -1.79822,3.15449 l -0.96006,-0.71624 q 1.09721,-1.58486 2.13347,-3.71834 -1.11245,-2.27062 -1.78297,-3.45927 l 0.94482,-0.56385 q 0.57909,1.08198 1.41724,2.71256 0.67052,-1.60011 1.09721,-2.94115 l 1.0515,0.3505 q -0.65528,1.98109 -1.49343,3.87073 l 1.26484,2.5297 z m 4.43458,0.91434 q -0.57908,-1.2496 -1.29532,-2.66684 -0.83815,1.6763 -1.81345,3.18497 l -0.96007,-0.701 q 1.18865,-1.78297 2.13348,-3.76405 -1.06674,-2.103 -1.53915,-2.91067 l 0.92958,-0.65528 q 0.28955,0.51813 0.99054,1.87441 l 0.21335,0.41145 q 0.65528,-1.53915 1.1277,-3.0021 l 1.00578,0.38098 q -0.64005,2.08775 -1.4782,3.91645 l 1.15817,2.27062 0.51813,1.03626 z m 10.68262,-4.46505 0.0609,0.5486 -2.08775,0.62481 v 3.99264 q 0,0.701 -0.16763,1.0515 -0.15239,0.3505 -0.54861,0.48765 -0.39622,0.15239 -1.18865,0.15239 h -1.3258 l -0.27431,-1.34104 h 1.18865 q 0.45718,0 0.65528,-0.061 0.21335,-0.0609 0.27431,-0.21334 0.0762,-0.16763 0.0762,-0.54861 v -3.12402 q -1.56962,0.48766 -2.05727,0.65529 l -0.27431,-1.32581 q 1.02102,-0.24382 2.33158,-0.64004 v -3.01734 h -2.07251 v -1.29532 h 2.07251 v -2.75828 h 1.31057 v 2.75828 h 1.88964 v 1.29532 h -1.88964 v 2.63636 q 1.00578,-0.30478 1.93536,-0.60956 z m 7.81766,-5.74514 v 1.3258 h -2.4535 v 9.40252 q 0,0.71624 -0.21335,1.11246 -0.21334,0.41145 -0.68576,0.57908 -0.47241,0.18287 -1.31056,0.18287 h -1.79821 l -0.27431,-1.3258 h 1.70678 q 0.50289,0 0.74672,-0.0762 0.24382,-0.0762 0.33526,-0.25906 0.10667,-0.18287 0.10667,-0.56385 v -9.05202 h -3.7031 v -1.3258 z m 10.78928,4.49553 q 0.57909,1.34104 1.7525,2.4535 1.17341,1.11245 2.75828,1.92012 l -0.65528,1.24961 q -1.69154,-0.89911 -3.10878,-2.39254 -1.402,-1.50867 -2.05728,-3.23069 h -4.46506 q -0.0914,2.20967 -0.6248,3.7793 -0.53337,1.55439 -1.76773,3.2764 l -0.99055,-0.96006 q 0.88387,-1.24961 1.31057,-2.25539 0.44193,-1.00578 0.60956,-2.2249 0.16763,-1.21913 0.16763,-3.20022 v -3.32212 h 10.19496 v 4.90699 z m 1.84393,-1.29532 v -2.33159 h -7.60431 v 2.33159 z m -6.0804,3.01734 q 0.44194,0.13715 1.92013,0.67052 1.49343,0.53337 1.9506,0.701 0.16763,0.061 0.28955,0.10667 0.12191,0.0457 0.21334,0.0762 l -0.39621,1.20389 q -0.86863,-0.3505 -2.27063,-0.86863 -1.38676,-0.51813 -2.05728,-0.74672 z m -1.06673,3.01734 2.2249,0.7772 q 3.79454,1.31056 4.51078,1.56962 l -0.4267,1.26485 q -1.08197,-0.41146 -3.16973,-1.15817 -2.07252,-0.74672 -3.56595,-1.26485 z"
       id="text5"
       transform="scale(1.0015707,0.99843172)"
       aria-label="资讯动态  资源下载  参与入门  一网打尽" />
    <path
       id="rect1-2"
       transform="matrix(2.0286854,0,0,2.0385067,-139.06543,-47.017541)"
       clip-path="url(#clipath_lpe_path-effect169-5)"
       mask="url(#mask131-2-4)"
       d="M 11.777716,23.070473 H 223.44439 V 95.830887 H 11.777716 Z"
       style="fill:#e60012;fill-opacity:1;stroke:none;stroke-width:1.74672;stroke-linecap:round" />
    <g
       id="g1"
       transform="matrix(1.4056165,-0.37663382,0.37663382,1.4056165,-151.70558,9.625402)"
       style="filter:url(#filter7)">
      <rect
         style="fill:#e60013;fill-opacity:1;stroke-width:4.52938;stroke-linecap:square;paint-order:fill markers stroke"
         id="rect1"
         width="50.799999"
         height="21.166666"
         x="202.14166"
         y="136.52499" />
      <text
         xml:space="preserve"
         style="font-size:20.2746px;line-height:1.2;font-family:misans;-inkscape-font-specification:misans;text-align:start;letter-spacing:0px;writing-mode:lr-tb;direction:ltr;text-anchor:start;fill:#e60013;fill-opacity:1;stroke-width:4.48993;stroke-linecap:square;paint-order:fill markers stroke"
         x="204.18533"
         y="154.47813"
         id="text1"><tspan
           sodipodi:role="line"
           id="tspan1"
           style="font-style:normal;font-variant:normal;font-weight:520;font-stretch:normal;font-family:misans;-inkscape-font-specification:'misans weight=520';fill:#ffffff;fill-opacity:1;stroke-width:4.48994"
           x="204.18533"
           y="154.47813">Beta</tspan></text>
    </g>
  </g>
</svg>
