<?xml version="1.0" encoding="UTF-8" standalone="no"?>
<!-- Created with Inkscape (http://www.inkscape.org/) -->

<svg
   width="1023.9999"
   height="1023.9999"
   viewBox="0 0 270.93331 270.93331"
   version="1.1"
   id="svg1"
   xml:space="preserve"
   inkscape:version="1.4.3 (unknown)"
   sodipodi:docname="favicon.svg"
   xmlns:inkscape="http://www.inkscape.org/namespaces/inkscape"
   xmlns:sodipodi="http://sodipodi.sourceforge.net/DTD/sodipodi-0.dtd"
   xmlns="http://www.w3.org/2000/svg"
   xmlns:svg="http://www.w3.org/2000/svg"
   xmlns:rdf="http://www.w3.org/1999/02/22-rdf-syntax-ns#"
   xmlns:cc="http://creativecommons.org/ns#"
   xmlns:dc="http://purl.org/dc/elements/1.1/"><defs
     id="defs1" /><sodipodi:namedview
     id="base"
     pagecolor="#ffffff"
     bordercolor="#000000"
     borderopacity="0.3"
     inkscape:pageopacity="0.0"
     inkscape:pageshadow="2"
     inkscape:zoom="0.49497475"
     inkscape:cx="432.34529"
     inkscape:cy="632.35549"
     inkscape:document-units="mm"
     inkscape:showpageshadow="2"
     inkscape:pagecheckerboard="0"
     inkscape:deskcolor="#d1d1d1"
     inkscape:window-width="1707"
     inkscape:window-height="989"
     inkscape:window-x="0"
     inkscape:window-y="0"
     inkscape:window-maximized="1"
     inkscape:current-layer="svg1"><inkscape:page
       x="0"
       y="0"
       width="270.93332"
       height="270.93332"
       id="page1"
       margin="0"
       bleed="0" /></sodipodi:namedview><metadata
     id="metadata1"><rdf:RDF><cc:Work
         rdf:about=""><dc:format>image/svg+xml</dc:format><dc:type
           rdf:resource="http://purl.org/dc/dcmitype/StillImage" /></cc:Work></rdf:RDF></metadata><rect
     style="display:inline;fill:#f90000;fill-opacity:1;stroke-width:0.816769"
     id="rect2"
     width="270.93329"
     height="270.93329"
     x="0"
     y="0"
     inkscape:label="bg" /><g
     id="g2"
     transform="translate(0.90614706,-0.05949644)"
     style="display:inline;fill:#ffffff;fill-opacity:1"
     inkscape:label="ls"><path
       id="path3-5"
       d="M 253.75878,92.559427 H 237.71183 V 88.36819 c -0.006,0 -0.0162,-0.0035 -0.0162,-0.0057 0,-1.470282 -1.23732,-2.67897 -2.82213,-2.835502 h -16.40787 c -1.44354,0.09364 -2.62358,1.040627 -2.89092,2.295158 -0.006,0.04327 -0.0163,0.0877 -0.0217,0.137476 v 4.601736 h -35.0688 v -4.643784 c -0.21597,-1.264007 -1.35764,-2.247369 -2.77634,-2.390586 h -16.34485 c -1.44354,0.09364 -2.61785,1.040627 -2.889,2.295158 -0.0342,0.160216 -0.0554,0.320969 -0.0611,0.487129 v 4.252363 c 0,0 -15.75482,0.02163 -15.80446,0.02163 -1.32323,0 -2.42501,0.849726 -2.6675,1.976299 -0.0304,0.133696 -0.04,0.265216 -0.0459,0.402705 v 7.345668 0.0861 c 0.0249,1.30222 1.17622,2.34671 2.61022,2.39823 h 15.91329 v 3.02456 c 0,1.46265 1.32518,2.77445 2.90618,2.77445 0,0 15.92101,0.0105 15.98401,0.0105 1.55617,0 3.14104,-0.98721 3.14104,-2.34863 v -3.46186 h 35.10317 v 3.20026 c 0.12991,1.38434 1.3557,2.48802 2.89856,2.59876 h 16.0202 c 0.0271,-0.004 0.0379,-0.004 0.0785,-0.004 1.55813,0 2.85462,-1.01773 3.1143,-2.34858 0.0324,-0.13749 0.0379,-0.27713 0.0433,-0.42219 v -3.02457 h 15.8732 c 0.0162,-0.004 0.0271,-0.006 0.0541,-0.006 1.49513,0 2.71146,-1.08837 2.71523,-2.44216 v -7.351334 c -0.004,-1.308007 -1.15521,-2.371525 -2.59301,-2.430742"
       style="fill:#ffffff;fill-opacity:1;fill-rule:nonzero;stroke:none;stroke-width:1.90945" /><path
       id="path4-6"
       d="m 166.24877,120.91393 c -0.0488,0 -0.0838,-0.006 -0.11853,-0.0217 h -15.97442 c -1.18577,0.0861 -2.14812,0.8535 -2.41545,1.87317 -0.83444,9.33334 -6.94274,50.47617 -7.844,60.54849 0.11075,1.1533 1.09219,2.06602 2.35435,2.21114 4.13013,-0.0105 12.11543,-0.0324 16.24364,-0.0433 0.0212,-0.004 0.0288,-0.0105 0.0554,-0.0105 1.50083,0 2.71714,-1.09606 2.71714,-2.44985 0.90318,-10.26327 6.79381,-49.56343 7.69509,-59.73311 -0.0433,-1.31563 -1.24117,-2.37538 -2.71334,-2.37538"
       style="fill:#ffffff;fill-opacity:1;fill-rule:nonzero;stroke:none;stroke-width:1.90945" /><path
       id="path5-2"
       d="m 227.2876,123.28945 c 0.90126,10.16967 6.79189,49.46989 7.69505,59.73315 0,1.3538 1.21632,2.44981 2.72291,2.44981 0.0217,0 0.038,0.006 0.054,0.0105 4.1244,0.0105 12.10972,0.0324 16.24174,0.0432 1.25832,-0.14505 2.2379,-1.05784 2.35243,-2.21117 -0.90503,-10.0723 -7.00763,-51.21507 -7.84399,-60.54843 -0.26521,-1.01963 -1.2297,-1.78725 -2.41543,-1.87315 h -15.9744 c -0.0271,0.0105 -0.0628,0.0217 -0.11636,0.0217 -1.47407,0 -2.67133,1.0598 -2.71523,2.37537"
       style="fill:#ffffff;fill-opacity:1;fill-rule:nonzero;stroke:none;stroke-width:1.90945" /><path
       id="path6-9"
       d="m 221.05213,122.81954 c -0.24248,-1.05211 -1.24495,-1.84646 -2.46127,-1.92473 H 204.1001 c -0.006,0 -0.0105,0.004 -0.0105,0.004 -1.32323,0 -2.86035,1.28311 -2.67129,2.51468 0.0217,0.15264 5.7856,42.58827 5.88107,43.55826 h 19.51068 c 0,0 -4.3688,-33.46684 -5.75695,-44.15207"
       style="fill:#ffffff;fill-opacity:1;fill-rule:nonzero;stroke:none;stroke-width:1.90945" /><path
       id="path7-1"
       d="m 226.99105,176.01834 c 0,-1.3347 -1.18574,-2.41739 -2.66364,-2.43838 h -24.00363 c -1.81399,0 -3.2461,-0.46982 -4.27337,-1.38434 -1.01393,-0.8841 -1.52753,-2.50522 -1.52753,-4.82516 0,0 0,-34.60104 0.006,-44.11007 -0.0552,-1.31369 -1.24116,-2.36201 -2.71523,-2.36201 -0.006,0 -0.0105,-0.004 -0.0105,-0.004 h -15.84534 c -0.006,0 -0.006,0.004 -0.006,0.004 -1.32706,0 -2.43453,0.84783 -2.67701,1.97632 -0.0271,0.15101 -0.0488,0.30743 -0.0488,0.46765 v 0.0105 45.69683 c 0,6.20949 2.64455,10.99265 7.8669,14.21966 2.383,1.47594 6.04533,2.19967 11.19508,2.19967 h 32.92836 c 1.41869,-0.0823 2.54527,-1.13421 2.54527,-2.43454 0,-0.0105 0.006,-0.0217 0.0105,-0.0271 -0.22138,-2.02021 -0.52342,-4.81376 -0.74088,-6.85874 -0.0271,-0.0379 -0.0379,-0.0747 -0.0379,-0.12991"
       style="fill:#ffffff;fill-opacity:1;fill-rule:nonzero;stroke:none;stroke-width:1.90945" /><path
       id="path8-2"
       d="m 126.69675,99.432667 h -7.97576 c 0,0 1.88272,-9.887084 2.12522,-11.053765 0.3246,-1.596283 -1.41872,-2.848867 -3.16968,-2.852709 H 100.1822 c -1.540919,0.0038 -2.825977,0.994834 -3.108572,2.308528 -0.03838,0.175907 -2.18822,11.597946 -2.18822,11.597946 H 59.70772 c 0,0 2.946264,-10.423635 3.079925,-11.053765 0.347545,-1.626864 -1.420614,-2.848867 -3.162034,-2.852709 H 42.182837 c -1.539003,0.0038 -2.825979,0.994834 -3.106666,2.308528 h -0.0082 c -0.733233,3.979284 -3.221239,11.597946 -3.221239,11.597946 0,0 -20.350844,0.01046 -20.38713,0.01046 -1.325152,4e-6 -2.692316,0.876413 -2.692316,1.976243 v 7.98912 c 0,1.24117 1.012001,2.41164 2.342885,2.41164 h 18.092025 c 0,0 -12.142159,51.25328 -17.498152,70.85756 -0.204326,1.53326 1.43209,2.80496 3.165863,2.80496 0.07827,0 17.37212,-0.0324 17.446586,-0.0324 1.756692,0 2.915719,-1.19721 3.173503,-2.85272 0.01163,-0.0861 17.59743,-70.77928 17.59743,-70.77928 h 13.362292 v 28.70468 c 0,0 -8.518035,2.50516 -13.276368,4.27335 -0.868791,0.29987 -1.527558,0.98526 -1.707049,1.81966 0,0 -0.0035,0.004 -0.0035,0.006 -0.49071,2.56242 -3.110492,12.8639 -3.129581,12.94602 -0.311232,1.39005 1.304146,2.90046 2.722865,2.446 1.057829,-0.3399 15.393937,-5.03902 15.393937,-5.03902 v 12.95939 c 0,4.74879 1.775779,8.63834 5.270064,11.56547 3.242246,2.68849 9.642689,3.9125 14.221543,3.9125 h 36.539121 c 0.0324,-0.0105 0.0669,-0.0217 0.12221,-0.0217 1.37862,0 2.50138,-0.92419 2.68278,-2.11757 v -7.53466 c -0.0744,-1.18957 -1.07693,-2.13668 -2.3677,-2.28178 h -26.42859 c -3.761611,0 -5.583221,-1.54475 -5.583221,-4.71442 v -20.44059 l 32.512101,-11.1263 c 0,0 1.80253,-0.7065 1.80253,-1.96672 v -12.13833 c 0,-1.58866 -1.68414,-2.54723 -3.02839,-2.01068 -0.0476,0.0217 -31.286241,10.66997 -31.286241,10.66997 V 111.814 c 0,0 31.637591,-0.0271 31.691051,-0.0271 1.39581,0 2.68849,-0.97767 2.68849,-2.17104 v -8.01393 c 0,-1.24685 -1.19913,-2.178679 -2.5892,-2.178679"
       style="fill:#ffffff;fill-opacity:1;fill-rule:nonzero;stroke:none;stroke-width:1.90945" /></g></svg>
