<?xml version="1.0" encoding="UTF-8" standalone="no"?>
<!-- Generator: Adobe Illustrator 19.1.1, SVG Export Plug-In . SVG Version: 6.00 Build 0)  -->

<svg
   version="1.1"
   x="0px"
   y="0px"
   viewBox="0 2 48 48"
   enable-background="new 0 2 48 48"
   xml:space="preserve"
   id="svg10"
   sodipodi:docname="linux.svg"
   inkscape:version="1.4.2 (unknown)"
   xmlns:inkscape="http://www.inkscape.org/namespaces/inkscape"
   xmlns:sodipodi="http://sodipodi.sourceforge.net/DTD/sodipodi-0.dtd"
   xmlns="http://www.w3.org/2000/svg"
   xmlns:svg="http://www.w3.org/2000/svg"><defs
   id="defs10" /><sodipodi:namedview
   id="namedview10"
   pagecolor="#ffffff"
   bordercolor="#000000"
   borderopacity="0.25"
   inkscape:showpageshadow="2"
   inkscape:pageopacity="0.0"
   inkscape:pagecheckerboard="0"
   inkscape:deskcolor="#d1d1d1"
   inkscape:zoom="13.630223"
   inkscape:cx="28.832984"
   inkscape:cy="23.367189"
   inkscape:window-width="2560"
   inkscape:window-height="1494"
   inkscape:window-x="0"
   inkscape:window-y="0"
   inkscape:window-maximized="1"
   inkscape:current-layer="svg10" />






<g
   id="g10"
   transform="matrix(1.2118315,0,0,1.2118315,-5.6199066,-5.5916326)"
   style="fill:#bcbcbc;fill-opacity:1"><polygon
     fill="#eceff1"
     points="36.1,29.3 30.1,22 28.4,17.9 20.1,18.2 20.2,20.5 18.6,23.5 16.1,28.4 15.6,32.5 17.4,38.3 21.5,40.6 27.7,40.6 33.5,36.2 "
     id="polygon1"
     style="fill:#bcbcbc;fill-opacity:1" /><path
     fill="#263238"
     d="M 34.3,23.9 C 32.7,21.6 31.4,20.2 30.7,17.3 30,14.4 30.9,15.2 30.3,12.7 30,11.4 29.5,10.5 29,9.8 28.4,9.1 27.7,8.7 27.3,8.6 c -0.9,-0.5 -3,-1.3 -5.6,0.1 -2.7,1.4 -2.4,4.4 -1.9,10.5 0,0.4 -0.1,0.9 -0.3,1.3 -0.4,0.9 -1.1,1.7 -1.7,2.4 -0.7,1 -1.4,2 -1.9,3.1 -1.2,2.3 -2.3,5.2 -2,6.3 0.5,-0.1 6.8,9.5 6.8,9.7 0.4,-0.1 2.1,-0.1 3.6,-0.1 2.1,-0.1 3.3,-0.2 5,0.2 0,-0.3 -0.1,-0.6 -0.1,-0.9 0,-0.6 0.1,-1.1 0.2,-1.8 0.1,-0.5 0.2,-1 0.3,-1.6 -1,0.9 -2.8,1.9 -4.5,2.2 -1.5,0.3 -4,-0.2 -5.2,-1.7 0.1,0 0.3,0 0.4,-0.1 0.3,-0.1 0.6,-0.2 0.7,-0.4 0.3,-0.5 0.1,-1 -0.1,-1.3 -0.2,-0.3 -1.7,-1.4 -2.4,-2 -0.7,-0.6 -1.1,-0.9 -1.5,-1.3 0,0 -0.6,-0.6 -0.8,-0.8 C 16.1,32.2 16,32 15.9,31.9 15.7,31.4 15.6,30.8 15.7,30 c 0.1,-1.1 0.5,-2 1,-3 0.2,-0.4 0.7,-1.2 0.7,-1.2 0,0 -1.7,4.2 -0.8,5.5 0,0 0.1,-1.3 0.5,-2.6 0.3,-0.9 0.8,-2.2 1.4,-2.9 0.6,-0.7 2.1,-3.3 2.2,-4.9 0,-0.7 0.1,-1.4 0.1,-1.9 -0.4,-0.4 6.6,-1.4 7,-0.3 0.1,0.4 1.5,4 2.3,5.9 0.4,0.9 0.9,1.7 1.2,2.7 0.3,1.1 0.5,2.6 0.5,4.1 0,0.3 0,0.8 -0.1,1.3 0.2,0 4.1,-4.2 -0.5,-7.7 0,0 2.8,1.3 2.9,3.9 0.1,2.1 -0.8,3.8 -1,4.1 0.1,0 2.1,0.9 2.2,0.9 0.4,0 1.2,-0.3 1.2,-0.3 0.1,-0.3 0.4,-1.1 0.4,-1.4 0.7,-2.3 -1,-6 -2.6,-8.3 z"
     id="path1"
     style="fill:#bcbcbc;fill-opacity:1" /><g
     id="g2"
     style="fill:#bcbcbc;fill-opacity:1">
	<ellipse
   fill="#eceff1"
   cx="21.6"
   cy="15.3"
   rx="1.3"
   ry="2"
   id="ellipse1"
   style="fill:#bcbcbc;fill-opacity:1" />
	<ellipse
   fill="#eceff1"
   cx="26.1"
   cy="15.2"
   rx="1.7"
   ry="2.3"
   id="ellipse2"
   style="fill:#bcbcbc;fill-opacity:1" />
</g><g
     id="g4"
     style="fill:#bcbcbc;fill-opacity:1">
	
		<ellipse
   transform="matrix(-0.1254,-0.9921,0.9921,-0.1254,8.9754,38.9969)"
   fill="#212121"
   cx="21.700001"
   cy="15.5"
   rx="1.2"
   ry="0.69999999"
   id="ellipse3"
   style="fill:#bcbcbc;fill-opacity:1" />
	<ellipse
   fill="#212121"
   cx="26"
   cy="15.6"
   rx="1"
   ry="1.3"
   id="ellipse4"
   style="fill:#bcbcbc;fill-opacity:1" />
</g><g
     id="g6"
     style="fill:#bcbcbc;fill-opacity:1">
	<path
   fill="#ffc107"
   d="m 39.3,37.6 c -0.4,-0.2 -1.1,-0.5 -1.7,-1.4 -0.3,-0.5 -0.2,-1.9 -0.7,-2.5 -0.3,-0.4 -0.7,-0.2 -0.8,-0.2 -0.9,0.2 -3,1.6 -4.4,0 -0.2,-0.2 -0.5,-0.5 -1,-0.5 -0.5,0 -0.7,0.2 -0.9,0.6 -0.2,0.4 -0.2,0.7 -0.2,1.7 0,0.8 0,1.7 -0.1,2.4 -0.2,1.7 -0.5,2.7 -0.5,3.7 0,1.1 0.3,1.8 0.7,2.1 0.3,0.3 0.8,0.5 1.9,0.5 1.1,0 1.8,-0.4 2.5,-1.1 0.5,-0.5 0.9,-0.7 2.3,-1.7 1.1,-0.7 2.8,-1.6 3.1,-1.9 0.2,-0.2 0.5,-0.3 0.5,-0.9 0,-0.5 -0.4,-0.7 -0.7,-0.8 z"
   id="path4"
   style="fill:#bcbcbc;fill-opacity:1" />
	<path
   fill="#ffc107"
   d="m 19.2,37.9 c -1,-1.6 -1.1,-1.9 -1.8,-2.9 -0.6,-1 -1.9,-2.9 -2.7,-2.9 -0.6,0 -0.9,0.3 -1.3,0.7 -0.4,0.4 -0.8,1.3 -1.5,1.8 -0.6,0.5 -2.3,0.4 -2.7,1 -0.4,0.6 0.4,1.5 0.4,3 0,0.6 -0.5,1 -0.6,1.4 -0.1,0.5 -0.2,0.8 0,1.2 0.4,0.6 0.9,0.8 4.3,1.5 1.8,0.4 3.5,1.4 4.6,1.5 1.1,0.1 3,0 3,-2.7 0.1,-1.6 -0.8,-2 -1.7,-3.6 z"
   id="path5"
   style="fill:#bcbcbc;fill-opacity:1" />
	<path
   fill="#ffc107"
   d="M 21.1,19.8 C 20.5,19.4 20,19 20,18.4 c 0,-0.6 0.4,-0.8 1,-1.3 0.1,-0.1 1.2,-1.1 2.3,-1.1 1.1,0 2.4,0.7 2.9,0.9 0.9,0.2 1.8,0.4 1.7,1.1 -0.1,1 -0.2,1.2 -1.2,1.7 -0.7,0.2 -2,1.3 -2.9,1.3 -0.4,0 -1,0 -1.4,-0.1 -0.3,-0.1 -0.8,-0.6 -1.3,-1.1 z"
   id="path6"
   style="fill:#bcbcbc;fill-opacity:1" />
</g><g
     id="g9"
     style="fill:#bcbcbc;fill-opacity:1">
	<path
   fill="#634703"
   d="m 20.9,19 c 0.2,0.2 0.5,0.4 0.8,0.5 0.2,0.1 0.5,0.2 0.5,0.2 0.4,0 0.7,0 0.9,0 0.5,0 1.2,-0.2 1.9,-0.6 0.7,-0.3 0.8,-0.5 1.3,-0.7 0.5,-0.3 1,-0.6 0.8,-0.7 -0.2,-0.1 -0.4,0 -1.1,0.4 -0.6,0.4 -1.1,0.6 -1.7,0.9 -0.3,0.1 -0.7,0.3 -1,0.3 -0.3,0 -0.6,0 -0.9,0 -0.3,0 -0.5,-0.1 -0.8,-0.2 -0.2,-0.1 -0.3,-0.2 -0.4,-0.2 -0.2,-0.1 -0.6,-0.5 -0.8,-0.6 0,0 -0.2,0 -0.1,0.1 0.3,0.3 0.4,0.4 0.6,0.6 z"
   id="path7"
   style="fill:#bcbcbc;fill-opacity:1" />
	<path
   fill="#634703"
   d="m 23.9,16.8 c 0.1,0.2 0.3,0.2 0.4,0.3 0.1,0.1 0.2,0.1 0.2,0.1 0.1,-0.1 0,-0.3 -0.1,-0.3 0,-0.2 -0.5,-0.2 -0.5,-0.1 z"
   id="path8"
   style="fill:#bcbcbc;fill-opacity:1" />
	<path
   fill="#634703"
   d="m 22.3,17 c 0,0.1 0.2,0.2 0.2,0.1 0.1,-0.1 0.2,-0.2 0.3,-0.2 0.2,-0.1 0.1,-0.2 -0.2,-0.2 -0.2,0.1 -0.2,0.2 -0.3,0.3 z"
   id="path9"
   style="fill:#bcbcbc;fill-opacity:1" />
</g><path
     fill="#455a64"
     d="m 32,34.7 c 0,0.1 0,0.2 0,0.3 0.2,0.4 0.7,0.5 1.1,0.5 0.6,0 1.2,-0.4 1.5,-0.8 0,-0.1 0.1,-0.2 0.2,-0.3 0.2,-0.3 0.3,-0.5 0.4,-0.6 0,0 -0.1,-0.1 -0.1,-0.2 -0.1,-0.2 -0.4,-0.4 -0.8,-0.5 -0.3,-0.1 -0.8,-0.2 -1,-0.2 -0.9,-0.1 -1.4,0.2 -1.7,0.5 0,0 0.1,0 0.1,0.1 0.2,0.2 0.3,0.4 0.3,0.7 0.1,0.2 0,0.3 0,0.5 z"
     id="path10"
     style="fill:#bcbcbc;fill-opacity:1" /></g>
<path
   style="fill:#bcbcbc;fill-opacity:1;stroke-width:3.77953;stroke-linecap:round;stroke-linejoin:round"
   d="m 15.406938,24.009911 -2.567823,6.162776 -0.660297,3.374853 3.594952,-0.660298 0.80703,-9.831093 z"
   id="path11" /><path
   style="font-weight:545;font-size:22.1551px;line-height:1.9;font-family:'MiSans VF';-inkscape-font-specification:'MiSans VF weight=545';letter-spacing:0.963746px;fill:#ffffff;stroke-width:4.18679;stroke-linecap:round;stroke-linejoin:round"
   d="m 23.20655,31.028397 q -0.06647,-0.930514 0.199396,-1.617322 0.265861,-0.708963 0.686808,-1.152065 0.420947,-0.443102 1.12991,-1.019135 0.487412,-0.420947 0.753273,-0.686808 0.288017,-0.288016 0.487413,-0.642498 0.199395,-0.376636 0.199395,-0.797583 0,-0.731119 -0.553877,-1.196376 -0.531722,-0.487412 -1.506547,-0.487412 -0.996979,0 -1.750253,0.576033 -0.753273,0.553877 -1.395771,1.750253 l -2.326286,-1.639478 q 0.708964,-1.705943 2.149045,-2.658612 1.462237,-0.974824 3.522661,-0.974824 1.550857,0 2.702922,0.553877 1.174221,0.531723 1.794563,1.528702 0.620343,0.974825 0.620343,2.281975 0,0.930515 -0.310171,1.595168 -0.288017,0.664653 -0.708963,1.0856 -0.398792,0.420946 -1.0856,0.974824 -0.819739,0.642498 -1.240686,1.17422 -0.420947,0.509568 -0.465257,1.284996 l -0.08862,1.417926 H 23.29517 Z m -0.288016,6.801616 v -3.566971 h 3.544816 v 3.566971 z"
   id="text11"
   aria-label="?" /></svg>
