<?xml version="1.0" encoding="UTF-8" standalone="no"?>
<svg
   id="图层_1"
   data-name="图层 1"
   viewBox="0 0 56 56"
   version="1.1"
   sodipodi:docname="nfs.svg"
   width="56"
   height="56"
   inkscape:version="1.4.2 (unknown)"
   xmlns:inkscape="http://www.inkscape.org/namespaces/inkscape"
   xmlns:sodipodi="http://sodipodi.sourceforge.net/DTD/sodipodi-0.dtd"
   xmlns="http://www.w3.org/2000/svg"
   xmlns:svg="http://www.w3.org/2000/svg">
  <defs
     id="defs30" />
  <sodipodi:namedview
     id="namedview30"
     pagecolor="#ffffff"
     bordercolor="#000000"
     borderopacity="0.25"
     inkscape:showpageshadow="2"
     inkscape:pageopacity="0.0"
     inkscape:pagecheckerboard="0"
     inkscape:deskcolor="#d1d1d1"
     inkscape:zoom="4.4297724"
     inkscape:cx="127.99755"
     inkscape:cy="59.032378"
     inkscape:window-width="2560"
     inkscape:window-height="1494"
     inkscape:window-x="0"
     inkscape:window-y="0"
     inkscape:window-maximized="1"
     inkscape:current-layer="图层_1" />
  <g
     id="g30"
     transform="matrix(0.85898354,0,0,0.85898354,1.0579813,4.3693628)">
    <path
       d="m 35.81,16.68 c -0.75,0.06 -1,1.19 -1,2 0,0.81 1.07,0.76 1.51,0.76 0.44,0 0.76,-0.76 1,-1.39 0.24,-0.63 0.25,-1.32 -0.07,-1.32 a 10.36,10.36 0 0 0 -1.44,-0.05 z"
       style="fill:#cf000e"
       id="path1" />
    <path
       d="m 42.82,19.32 c 1.36,-0.26 1.26,-1.1 1.49,-1.72 0.23,-0.62 0.81,-2.52 -0.16,-1.75 a 1.73,1.73 0 0 1 -1,0.42 2.45,2.45 0 0 0 -2,0.59 c -0.58,0.65 -1.2,1.2 -0.94,2 0.15,0.58 1.13,0.74 2.61,0.46 z"
       style="fill:#cf000e"
       id="path2" />
    <path
       d="M 30,17.12 A 3.14,3.14 0 0 0 28.44,19 c -0.44,1.07 1.57,0.44 2.2,0.5 0.63,0.06 0.89,0.13 0.95,-0.19 a 17.61,17.61 0 0 0 0,-2.52 2.56,2.56 0 0 0 -1.59,0.33 z"
       style="fill:#cf000e"
       id="path3" />
    <path
       d="M 10.77,45.14 H 52 A 2.17,2.17 0 0 0 54.17,43 v -6.21 a 2.64,2.64 0 0 1 -0.6,0.41 66.39,66.39 0 0 1 -8.12,3.29 c -2.71,0.78 -7.06,1.12 -10.46,-0.91 a 14,14 0 0 1 -5.8,-7.78 c -0.68,-2.24 -0.61,-5.36 1.87,-3.77 a 14.68,14.68 0 0 1 0.88,2.62 c 0.2,1.12 1.12,2 3.19,3.56 2.07,1.56 3.63,3.5 7.23,3.4 a 12.35,12.35 0 0 0 6.76,-2 5.79,5.79 0 0 1 4.55,-1 1.93,1.93 0 0 1 0.5,0.19 V 10.68 a 3.41,3.41 0 0 1 -1.45,0.26 c -0.82,0 -12.43,0.25 -13.56,0.25 -1.13,0 -1.77,0.88 -1.64,1.32 0.13,0.44 0.38,0.63 1.51,0.63 h 6.12 c 0,0 -0.25,1.83 0,1.45 0.25,-0.38 0.44,-1.51 1.07,-1.57 0.63,-0.06 2,-0.13 2,0.69 a 4.62,4.62 0 0 1 -0.63,2.65 14.25,14.25 0 0 0 -1.14,4.35 c -0.13,1.07 -0.76,1.45 -3.34,1.51 -2.58,0.06 -14.07,0.57 -15.89,0.57 -1.82,0 -2.72,-1.13 -2.84,-3.15 -0.12,-2.02 -0.13,-5.3 -0.13,-5.8 A 2.2,2.2 0 0 1 26.67,12 c 1.77,0.18 3.78,0.5 5.11,0.5 1.33,0 2.65,-0.06 2.65,-0.63 0,-0.57 -1.52,-0.57 -3.66,-0.82 -2.14,-0.25 -5.55,-0.31 -5.55,-0.31 A 2.6,2.6 0 0 1 22.38,11.62 3,3 0 0 1 21,7.22 c 1,-1.56 3.92,-1.58 5.11,-0.76 a 5.74,5.74 0 0 0 3.41,0.88 c 0.94,0 6,0.19 6,0.19 V 4.44 c 0,-0.69 0.76,-0.63 1.26,-0.63 0.5,0 1.83,0.88 1.83,1.83 v 2 c 0,0 2.27,0.06 5.3,0 3.03,-0.06 4.85,-0.32 6,-0.38 a 6.67,6.67 0 0 1 4.23,1.4 V 1.73 A 2.16,2.16 0 0 0 52,-0.43 H 10.77 A 2.17,2.17 0 0 0 8.6,1.73 v 35.88 l 0.07,-0.09 a 22.34,22.34 0 0 0 4.8,-7.69 c 1.08,-3.17 1.72,-4.26 1.36,-9.77 0,0 -1.45,1.53 -3,1.08 -1.55,-0.45 -1.72,-2 0.63,-4 a 48.7,48.7 0 0 0 5,-5.16 c 1.72,-1.72 4,-0.18 2.72,2.17 0,0 -1.45,1.36 -2.09,1.9 -0.64,0.54 -0.54,1.45 -0.18,2.81 0.36,1.36 1.54,3.44 1.81,4.89 a 6.48,6.48 0 0 1 -0.9,5.15 c -1.27,1.72 -2.08,3 -4,6 -1.92,3 -2,5 -3.26,6.15 a 3.31,3.31 0 0 1 -3,0.33 V 43 a 2.17,2.17 0 0 0 2.21,2.14 z M 38.46,31.39 a 1.82,1.82 0 0 1 -2.89,1.4 C 34.49,31.9 35.2,29.36 35.2,29.36 A 1.87,1.87 0 0 1 37.1,28 c 1.63,0.41 1.39,1.93 1.36,3.39 z m 7,-0.44 c -0.44,1.36 -1.08,2.89 -2.71,2.55 -1.63,-0.34 -1.26,-2.21 -1,-2.79 a 22.64,22.64 0 0 1 1.28,-2 c 2.52,-2.21 2.9,0.88 2.45,2.29 z M 28.71,23.48 c 0,0 0.14,0.48 4,0.38 3.86,-0.1 5.6,-0.11 8.11,-0.41 2.51,-0.3 3.94,-0.61 4.76,0.78 0.82,1.39 -1,2.41 -3.87,2.75 a 94.36,94.36 0 0 1 -9.78,0.07 c -2.58,0 -2.75,-0.07 -3.53,0 -0.78,0.07 -2.14,0.07 -2.38,-1.8 -0.24,-1.87 1.91,-2.04 2.69,-1.77 z m -6.48,8.86 C 23.45,31.26 25,29.76 25,29.76 c 0.51,-0.47 1.09,-0.84 1.77,-0.44 0.68,0.4 0.68,1.22 0.37,2 A 11.39,11.39 0 0 1 25.22,34 c -1.29,1.63 -2.28,1.39 -2.92,1.15 A 1.75,1.75 0 0 1 22.23,32.34 Z M 18.9,8.11 c -1,2.17 -3.62,4.53 -4.89,5.61 C 12.74,14.8 9.76,13.18 11.66,11.1 13.56,9.02 14.74,7.93 16,6.48 17.26,5.03 19.89,5.94 18.9,8.11 Z"
       style="fill:#cf000e"
       id="path4" />
    <path
       d="m 8.68,50.13 h 1.4 L 13.22,54 v -3 a 1.05,1.05 0 0 0 -0.1,-0.59 0.56,0.56 0 0 0 -0.45,-0.16 H 12.5 v -0.14 h 1.79 v 0.14 h -0.18 a 0.54,0.54 0 0 0 -0.47,0.2 1.21,1.21 0 0 0 -0.08,0.55 v 4.34 H 13.42 L 10,51.22 v 3.17 a 1.05,1.05 0 0 0 0.1,0.59 0.61,0.61 0 0 0 0.45,0.16 h 0.18 v 0.14 H 9 v -0.14 h 0.17 a 0.54,0.54 0 0 0 0.47,-0.2 1.11,1.11 0 0 0 0.08,-0.55 V 50.81 A 1.89,1.89 0 0 0 9.38,50.46 1.13,1.13 0 0 0 9,50.3 a 1.46,1.46 0 0 0 -0.34,0 z"
       style="fill:#231815;stroke:#231815;stroke-width:0.1px"
       id="path22" />
    <path
       d="m 16.45,50.41 v 2 h 0.94 a 0.63,0.63 0 0 0 0.47,-0.14 0.9,0.9 0 0 0 0.2,-0.56 h 0.14 v 1.74 H 18.06 A 1,1 0 0 0 18,53 0.53,0.53 0 0 0 17.79,52.79 0.82,0.82 0 0 0 17.4,52.72 h -0.94 v 1.62 a 1.73,1.73 0 0 0 0.05,0.51 0.37,0.37 0 0 0 0.16,0.17 0.73,0.73 0 0 0 0.35,0.09 h 0.19 v 0.14 H 15 v -0.14 h 0.18 a 0.55,0.55 0 0 0 0.46,-0.19 1,1 0 0 0 0.1,-0.58 V 51 A 1.87,1.87 0 0 0 15.69,50.48 0.41,0.41 0 0 0 15.53,50.32 0.7,0.7 0 0 0 15.18,50.23 H 15 v -0.14 h 3.83 l 0.05,1.13 H 18.75 A 1.8,1.8 0 0 0 18.52,50.69 0.78,0.78 0 0 0 18.19,50.45 1.66,1.66 0 0 0 17.6,50.37 Z"
       style="fill:#231815;stroke:#231815;stroke-width:0.1px"
       id="path23" />
    <path
       d="m 23.22,50 v 1.78 h -0.14 a 2.21,2.21 0 0 0 -0.25,-0.81 1.24,1.24 0 0 0 -0.5,-0.49 1.49,1.49 0 0 0 -0.68,-0.17 0.92,0.92 0 0 0 -0.65,0.24 0.74,0.74 0 0 0 -0.26,0.55 0.63,0.63 0 0 0 0.17,0.42 3.93,3.93 0 0 0 1.12,0.76 7.07,7.07 0 0 1 1,0.6 1.47,1.47 0 0 1 0.41,0.49 1.3,1.3 0 0 1 0.14,0.58 1.34,1.34 0 0 1 -0.45,1 1.68,1.68 0 0 1 -1.17,0.42 2.77,2.77 0 0 1 -0.42,0 3.9,3.9 0 0 1 -0.49,-0.14 2.17,2.17 0 0 0 -0.47,-0.12 0.2,0.2 0 0 0 -0.15,0.06 0.46,0.46 0 0 0 -0.08,0.23 h -0.14 v -1.77 h 0.14 a 2.17,2.17 0 0 0 0.27,0.83 1.36,1.36 0 0 0 0.51,0.46 1.57,1.57 0 0 0 0.75,0.18 1,1 0 0 0 0.75,-0.25 0.79,0.79 0 0 0 0.27,-0.59 0.81,0.81 0 0 0 -0.1,-0.39 1.11,1.11 0 0 0 -0.33,-0.36 7.65,7.65 0 0 0 -0.8,-0.48 8.8,8.8 0 0 1 -0.94,-0.59 1.63,1.63 0 0 1 -0.43,-0.49 1.24,1.24 0 0 1 -0.14,-0.58 1.29,1.29 0 0 1 0.42,-1 1.57,1.57 0 0 1 1.09,-0.4 2.27,2.27 0 0 1 0.87,0.2 0.78,0.78 0 0 0 0.3,0.1 0.25,0.25 0 0 0 0.16,-0.06 0.55,0.55 0 0 0 0.1,-0.24 z"
       style="fill:#231815;stroke:#231815;stroke-width:0.1px"
       id="path24" />
    <path
       d="m 24.78,52.45 h 2.09 v 0.61 h -2.09 z"
       style="fill:#cf000e;stroke:#cf000e;stroke-width:0.1px"
       id="path25" />
    <path
       d="m 32.38,50 0.12,1.75 h -0.12 a 2.17,2.17 0 0 0 -0.67,-1.13 1.78,1.78 0 0 0 -2,-0.08 1.69,1.69 0 0 0 -0.65,0.83 3.61,3.61 0 0 0 -0.24,1.41 3,3 0 0 0 0.25,1.22 1.7,1.7 0 0 0 0.68,0.79 1.94,1.94 0 0 0 1,0.27 1.83,1.83 0 0 0 0.89,-0.21 A 3,3 0 0 0 32.5,54 l 0.12,0.08 a 2.81,2.81 0 0 1 -0.9,1 2.57,2.57 0 0 1 -3.21,-0.63 2.72,2.72 0 0 1 -0.51,-1.67 2.94,2.94 0 0 1 0.34,-1.41 2.48,2.48 0 0 1 1,-1 2.54,2.54 0 0 1 1.26,-0.37 2.31,2.31 0 0 1 1.1,0.28 0.77,0.77 0 0 0 0.23,0.08 0.24,0.24 0 0 0 0.18,-0.07 0.61,0.61 0 0 0 0.14,-0.29 z"
       style="fill:#231815;stroke:#231815;stroke-width:0.1px"
       id="path26" />
    <path
       d="m 35,52.52 h 2.39 V 51 a 2,2 0 0 0 0,-0.52 0.41,0.41 0 0 0 -0.16,-0.16 0.73,0.73 0 0 0 -0.35,-0.09 H 36.7 v -0.14 h 2.2 v 0.14 h -0.18 a 0.73,0.73 0 0 0 -0.35,0.09 0.31,0.31 0 0 0 -0.16,0.18 1.7,1.7 0 0 0 0,0.5 v 3.33 a 1.73,1.73 0 0 0 0,0.51 0.37,0.37 0 0 0 0.16,0.17 0.73,0.73 0 0 0 0.35,0.09 h 0.18 v 0.14 H 36.7 V 55.1 h 0.18 a 0.57,0.57 0 0 0 0.46,-0.19 1.17,1.17 0 0 0 0.09,-0.58 V 52.8 H 35 v 1.57 a 1.73,1.73 0 0 0 0,0.51 0.37,0.37 0 0 0 0.16,0.17 0.73,0.73 0 0 0 0.35,0.09 h 0.18 v 0.14 h -2.2 v -0.14 h 0.18 a 0.55,0.55 0 0 0 0.46,-0.19 1.17,1.17 0 0 0 0.09,-0.58 V 51 a 2,2 0 0 0 0,-0.52 0.41,0.41 0 0 0 -0.16,-0.16 0.73,0.73 0 0 0 -0.35,-0.09 h -0.18 v -0.14 h 2.2 v 0.14 h -0.18 a 0.73,0.73 0 0 0 -0.35,0.09 0.31,0.31 0 0 0 -0.16,0.18 1.7,1.7 0 0 0 0,0.5 z"
       style="fill:#231815;stroke:#231815;stroke-width:0.1px"
       id="path27" />
    <path
       d="m 41.83,55.14 v 0.14 h -2.2 v -0.14 h 0.18 a 0.55,0.55 0 0 0 0.46,-0.19 1.13,1.13 0 0 0 0.1,-0.58 V 51 a 1.87,1.87 0 0 0 0,-0.52 0.41,0.41 0 0 0 -0.16,-0.16 0.73,0.73 0 0 0 -0.35,-0.09 h -0.18 v -0.14 h 2.2 v 0.14 H 41.7 a 0.54,0.54 0 0 0 -0.46,0.19 1.11,1.11 0 0 0 -0.1,0.58 v 3.33 a 1.73,1.73 0 0 0 0,0.51 0.37,0.37 0 0 0 0.16,0.17 0.73,0.73 0 0 0 0.35,0.09 z"
       style="fill:#231815;stroke:#231815;stroke-width:0.1px"
       id="path28" />
    <path
       d="m 42.39,50.13 h 1.39 L 46.93,54 v -3 a 1.05,1.05 0 0 0 -0.1,-0.59 0.58,0.58 0 0 0 -0.45,-0.16 H 46.2 V 50.11 H 48 v 0.14 h -0.18 a 0.52,0.52 0 0 0 -0.46,0.2 1.09,1.09 0 0 0 -0.08,0.55 v 4.34 H 47.14 L 43.75,51.2 v 3.17 a 1.05,1.05 0 0 0 0.1,0.59 0.57,0.57 0 0 0 0.44,0.16 h 0.18 v 0.14 h -1.8 v -0.14 h 0.18 a 0.54,0.54 0 0 0 0.47,-0.2 1.25,1.25 0 0 0 0.08,-0.55 v -3.56 a 2.28,2.28 0 0 0 -0.34,-0.35 1.2,1.2 0 0 0 -0.34,-0.16 1.31,1.31 0 0 0 -0.33,0 z"
       style="fill:#231815;stroke:#231815;stroke-width:0.1px"
       id="path29" />
    <path
       d="m 52.13,53.55 h -2 l -0.34,0.82 a 1.23,1.23 0 0 0 -0.13,0.44 0.25,0.25 0 0 0 0.11,0.21 1,1 0 0 0 0.48,0.12 v 0.14 h -1.62 v -0.14 a 0.87,0.87 0 0 0 0.42,-0.15 2.37,2.37 0 0 0 0.43,-0.74 L 51.29,50 h 0.13 l 1.79,4.28 a 1.91,1.91 0 0 0 0.4,0.67 0.78,0.78 0 0 0 0.49,0.18 v 0.14 h -2 v -0.14 a 0.72,0.72 0 0 0 0.41,-0.11 0.25,0.25 0 0 0 0.11,-0.21 1.6,1.6 0 0 0 -0.15,-0.53 z M 52,53.27 l -0.87,-2.08 -0.9,2.08 z"
       style="fill:#231815;stroke:#231815;stroke-width:0.1px"
       id="path30" />
  </g>
</svg>
