<?xml version="1.0" encoding="UTF-8" standalone="no"?>
<svg
   width="122"
   height="51"
   viewBox="0 0 122 51"
   fill="none"
   version="1.1"
   id="svg58"
   sodipodi:docname="uos.svg"
   inkscape:version="1.4.2 (unknown)"
   xmlns:inkscape="http://www.inkscape.org/namespaces/inkscape"
   xmlns:sodipodi="http://sodipodi.sourceforge.net/DTD/sodipodi-0.dtd"
   xmlns="http://www.w3.org/2000/svg"
   xmlns:svg="http://www.w3.org/2000/svg">
  <defs
     id="defs58" />
  <sodipodi:namedview
     id="namedview58"
     pagecolor="#ffffff"
     bordercolor="#000000"
     borderopacity="0.25"
     inkscape:showpageshadow="2"
     inkscape:pageopacity="0.0"
     inkscape:pagecheckerboard="0"
     inkscape:deskcolor="#d1d1d1"
     inkscape:zoom="4.3860089"
     inkscape:cx="99.407002"
     inkscape:cy="-14.477855"
     inkscape:window-width="2560"
     inkscape:window-height="1494"
     inkscape:window-x="0"
     inkscape:window-y="0"
     inkscape:window-maximized="1"
     inkscape:current-layer="svg58" />
  <g
     id="g58"
     transform="translate(0,13.388953)">
    <path
       d="M 0,23.0197 V 1.21069 C 0,0.539005 0.539005,0 1.21069,0 H 35.1265 c 0.6717,0 1.2107,0.539005 1.2107,1.21069 v 9.68551 c 0,0.6717 0.539,1.2107 1.2107,1.2107 h 9.6938 c 0.6717,0 1.2107,0.539 1.2107,1.2107 v 9.6855 c 0,0.6717 -0.539,1.2107 -1.2107,1.2107 H 1.21069 C 0.539005,24.2303 0,23.6913 0,23.0197 Z"
       fill="#0044d9"
       id="path1" />
    <path
       d="M 121.16,23.0197 V 1.21069 C 121.16,0.539005 120.621,0 119.949,0 H 86.0335 c -0.6717,0 -1.2107,0.539005 -1.2107,1.21069 v 9.69381 c 0,0.6717 -0.539,1.2107 -1.2107,1.2107 H 73.91 c -0.6717,0 -1.2107,0.539 -1.2107,1.2107 v 9.6855 c 0,0.6716 0.539,1.2106 1.2107,1.2106 h 46.039 c 0.664,0.0083 1.211,-0.5307 1.211,-1.2023 z"
       fill="#0044d9"
       id="path2" />
  </g>
</svg>
