<svg width="122" height="51" viewBox="0 0 122 51" fill="none" xmlns="http://www.w3.org/2000/svg">
<path d="M0 23.0197V1.21069C0 0.539005 0.539005 0 1.21069 0H35.1265C35.7982 0 36.3372 0.539005 36.3372 1.21069V10.8962C36.3372 11.5679 36.8762 12.1069 37.5479 12.1069H47.2417C47.9134 12.1069 48.4524 12.6459 48.4524 13.3176V23.0031C48.4524 23.6748 47.9134 24.2138 47.2417 24.2138H1.21069C0.539005 24.2303 0 23.6913 0 23.0197Z" fill="#0044D9"/>
<path d="M121.16 23.0197V1.21069C121.16 0.539005 120.621 0 119.949 0H86.0335C85.3618 0 84.8228 0.539005 84.8228 1.21069V10.9045C84.8228 11.5762 84.2838 12.1152 83.6121 12.1152H73.91C73.2383 12.1152 72.6993 12.6542 72.6993 13.3259V23.0114C72.6993 23.683 73.2383 24.222 73.91 24.222H119.949C120.613 24.2303 121.16 23.6913 121.16 23.0197Z" fill="#0044D9"/>
<path d="M31.7598 38.0372V34.9773H33.4266V38.0372L35.6324 42.5648H33.9324L32.5891 39.6127L31.1628 42.5648H29.4628L31.7598 38.0372Z" fill="#0044D9"/>
<path d="M29.9023 31.5028H31.7515V32.8213H36.105V37.6142H34.6207V34.09H29.9023V31.5028Z" fill="#0044D9"/>
<path d="M45.3676 31.5028V33.891H48.668V35.1597H45.3676V38.0952H47.8885L48.668 39.2147V39.3639H45.3676V42.5648H43.8833V39.3639H40.2429V38.0952H43.8833V35.1597H42.4155H40.2429V33.891L41.1634 32.2159H42.8716L41.9429 33.891H43.8833V31.5028H45.3676Z" fill="#0044D9"/>
<path d="M51.9352 42.5648H49.2319V41.1551H50.4674V38.1284L49.2319 38.6259V37.2079L50.4674 36.7353V34.9026H49.2319V33.6339H50.4674V31.5028H51.9352V33.6339H53.3366V34.7617V34.9026H51.9352V42.5648Z" fill="#0044D9"/>
<path d="M57.715 32.8213V31.5028H56.2638V32.8213H53.801V34.09H56.2638V35.6075H53.9502V37.0172H58.4696V38.6093L53.801 40.9312V42.5648L56.8692 41.0307L61.0402 42.5648V41.1551L58.4945 40.2181L60.0451 39.4469V35.6075H57.715V34.09H60.8163V32.8213H57.715Z" fill="#0044D9"/>
<path d="M68.18 34.8778V42.5648H66.6376V34.8778H64.6474V38.2113L63.2045 42.0092H61.5046L63.1548 37.8547V34.8778H61.6373V33.4266H66.6293V31.5028H68.1717V33.4266H71.0823L69.9711 31.8262H71.9779L73.0808 33.4266V34.8778H68.18ZM71.613 35.707V37.8547L73.3295 42.0092H71.6296L70.1287 38.2113V35.707H71.613Z" fill="#0044D9"/>
<path d="M81.8956 39.0405H76.9616V38.1532H82.6751L82.6668 38.004L81.8873 36.8845H76.9533V36.5528V36.0802H82.9404V41.1883H81.0498V42.5648H84.433V41.0141V34.7948H77.3928L77.8655 33.9158H85.3784V32.5476H78.6118V31.5028H76.6631V32.5476H73.9763V33.9158H75.9168L74.7392 36.0802L75.4773 36.9343V42.5731H76.9616V40.3176H82.6751V40.1683L81.8956 39.0405Z" fill="#0044D9"/>
<path d="M90.6523 31.6852V32.9456L89.8231 36.1216L90.6523 41.1883H89.1929L88.2724 35.6821L89.0934 32.9788H87.7997V42.5648H86.3154V31.6852H90.6523Z" fill="#0044D9"/>
<path d="M95.9346 37.3074H97.4106V31.6852H91.0918V42.5648H92.5762L95.0556 40.981L97.7672 42.5648V40.9229L96.4321 40.102L97.6594 39.0488V37.4235L92.5762 40.9312V37.2991H95.7439V37.1499L94.9644 36.0304H92.5762V35.1846H95.7439V35.0353L94.9644 33.9158H92.5762V32.9788H95.9346V37.3074Z" fill="#0044D9"/>
<path d="M102.452 33.0617V34.7036L100.587 37.3738H98.3642L100.628 34.3222V31.6852H108.489V33.0617H102.452ZM108.937 42.3824H99.6827V41.0058L103.141 36.6192H105.33L101.889 41.0058H108.083L108.929 42.2414V42.3824H108.937ZM108.489 34.0319V35.168L110.181 37.3738H108.166L106.789 35.4831V34.0319H108.489Z" fill="#0044D9"/>
<path d="M118.241 34.0154L119.087 35.2426V35.3919H111.06V34.0154H118.241ZM121.16 31.6852V42.3741H116.607V40.9312H119.634V33.0534H110.571V31.6769H121.16V31.6852ZM111.068 39.0322H116.599V37.6225H111.068V36.2377H118.142V40.4005H111.068V39.0322Z" fill="#0044D9"/>
<path d="M40.3922 31.5028H38.9079L36.8513 36.2626L37.8464 37.606V42.5648H39.3308V37.2577L38.5513 36.0884L40.3922 31.5028Z" fill="#0044D9"/>
<path d="M15.9214 31.5028H14.437L12.3805 36.2875L13.3673 37.6308V42.5648H14.8517V37.2826L14.0722 36.1133L15.9214 31.5028Z" fill="#0044D9"/>
<path d="M20.9466 32.8213V31.5028H18.9978V32.8213H15.7555V34.09H24.1889V32.8213H20.9466Z" fill="#0044D9"/>
<path d="M16.3526 39.9942H22.1075V41.2546C20.8056 41.2546 20.9548 41.2546 16.3526 41.2546V42.5648H23.5918V41.3624V38.7254H16.3526V39.9942Z" fill="#0044D9"/>
<path d="M6.56759 37.2826V40.7985L5.63884 42.5648H3.9389L5.05837 40.4088V37.2826H3.9389V35.848L5.91249 33.9241H3.27551V32.6305H6.68368V31.5028H8.63239V32.6305H11.8167V33.9241H7.91095L5.76323 35.9475L10.7055 35.9392L11.5347 37.1333V37.2826H6.56759Z" fill="#0044D9"/>
<path d="M7.99387 37.9294V42.5648H11.8167V41.1219H9.49479V37.9294H7.99387Z" fill="#0044D9"/>
<path d="M3.4828 35.9475L1.74969 34.1895L3.49109 31.5028H1.81603L0 34.3056L1.72482 36.0636L0.0829238 38.6093L1.68335 41.1219H0V42.5648H3.44134V41.1219L1.83262 38.4932L3.4828 35.9475Z" fill="#0044D9"/>
<path d="M16.3526 34.828V36.0967H23.7991V35.9475L23.0196 34.828H16.3526Z" fill="#0044D9"/>
<path d="M16.3526 36.7021V37.9708H23.7991V37.8298L23.0196 36.7021H16.3526Z" fill="#0044D9"/>
<path d="M26.1708 32.8213L26.6351 31.5028H28.1195L27.6468 32.8213H29.5789V34.09H27.1907L26.4113 36.2626H28.7663V37.6142V39.0903H29.3302L30.1345 40.2429V40.3839H28.7663V42.5648H27.2737V40.3839H24.9352V39.0903H27.2737V37.6142H24.9352V36.246L25.7147 34.09H24.9352V32.8213H26.1708Z" fill="#0044D9"/>
<path d="M3.1594 48.9416C2.83599 49.2236 2.38821 49.3646 1.81603 49.3646C1.23557 49.3646 0.787776 49.2236 0.472666 48.9416C0.157555 48.668 0 48.2368 0 47.648V44.9862H0.937039V47.648C0.937039 47.7641 0.945332 47.8802 0.970209 47.988C0.986794 48.0958 1.02826 48.1953 1.09459 48.2865C1.16093 48.3695 1.24386 48.4441 1.35995 48.4939C1.47604 48.5436 1.62531 48.5768 1.81603 48.5768C2.14773 48.5768 2.37991 48.5021 2.51259 48.3529C2.63698 48.2036 2.70332 47.9714 2.70332 47.648V44.9862H3.64865V47.648C3.64865 48.2285 3.4828 48.6597 3.1594 48.9416Z" fill="#0044D9"/>
<path d="M5.29054 46.172V46.6032H5.30712C5.41492 46.4208 5.55589 46.2964 5.73003 46.2134C5.90417 46.1305 6.07831 46.0891 6.25245 46.0891C6.47635 46.0891 6.66707 46.1222 6.81634 46.1803C6.9656 46.2383 7.0734 46.3295 7.16462 46.4373C7.24754 46.5451 7.30559 46.6778 7.33876 46.8354C7.37193 46.9929 7.38851 47.1671 7.38851 47.3578V49.265H6.53439V47.5153C6.53439 47.2583 6.49293 47.0676 6.4183 46.9432C6.33538 46.8188 6.19441 46.7525 5.99539 46.7525C5.7632 46.7525 5.59735 46.8188 5.48955 46.9598C5.38175 47.1007 5.332 47.3246 5.332 47.6397V49.265H4.48618V46.1637H5.29054V46.172Z" fill="#0044D9"/>
<path d="M8.17627 45.691V44.9862H9.03039V45.691H8.17627ZM9.03039 46.172V49.2733H8.17627V46.172H9.03039Z" fill="#0044D9"/>
<path d="M9.83478 47.051C9.90941 46.852 10.0172 46.6778 10.1582 46.5368C10.2992 46.3959 10.465 46.2881 10.664 46.2052C10.863 46.1305 11.0786 46.0891 11.3191 46.0891C11.5596 46.0891 11.7835 46.1305 11.9825 46.2052C12.1815 46.2798 12.3474 46.3959 12.4883 46.5368C12.6293 46.6778 12.7371 46.852 12.8117 47.051C12.8864 47.25 12.9278 47.4739 12.9278 47.7227C12.9278 47.9714 12.8864 48.1953 12.8117 48.3943C12.7371 48.5934 12.6293 48.7675 12.4883 48.9085C12.3474 49.0494 12.1815 49.1572 11.9825 49.2319C11.7835 49.3065 11.5679 49.348 11.3191 49.348C11.0786 49.348 10.8547 49.3065 10.664 49.2319C10.465 49.1572 10.2992 49.0494 10.1582 48.9085C10.0172 48.7675 9.90941 48.5934 9.83478 48.3943C9.76015 48.1953 9.71869 47.9714 9.71869 47.7227C9.71869 47.4739 9.76015 47.25 9.83478 47.051ZM10.606 48.0875C10.6309 48.2036 10.6723 48.3114 10.7304 48.4026C10.7884 48.4939 10.863 48.5685 10.9625 48.6265C11.0621 48.6846 11.1781 48.7095 11.3191 48.7095C11.4601 48.7095 11.5845 48.6846 11.684 48.6265C11.7835 48.5685 11.8581 48.4939 11.9162 48.4026C11.9742 48.3114 12.0157 48.2036 12.0406 48.0875C12.0654 47.9714 12.0737 47.847 12.0737 47.7227C12.0737 47.5983 12.0654 47.4739 12.0406 47.3578C12.0157 47.2417 11.9742 47.1339 11.9162 47.0427C11.8581 46.9515 11.7835 46.8768 11.684 46.8188C11.5845 46.7607 11.4684 46.7359 11.3191 46.7359C11.1781 46.7359 11.0538 46.7607 10.9625 46.8188C10.863 46.8768 10.7884 46.9515 10.7304 47.0427C10.6723 47.1339 10.6309 47.2417 10.606 47.3578C10.5811 47.4739 10.5728 47.5983 10.5728 47.7227C10.5728 47.847 10.5811 47.9714 10.606 48.0875Z" fill="#0044D9"/>
<path d="M14.4039 46.172V46.6032H14.4205C14.5283 46.4208 14.6692 46.2964 14.8434 46.2134C15.0175 46.1305 15.1916 46.0891 15.3658 46.0891C15.5897 46.0891 15.7804 46.1222 15.9297 46.1803C16.0789 46.2383 16.1867 46.3295 16.2779 46.4373C16.3609 46.5451 16.4189 46.6778 16.4521 46.8354C16.4853 46.9929 16.5018 47.1671 16.5018 47.3578V49.265H15.6477V47.5153C15.6477 47.2583 15.6063 47.0676 15.5316 46.9432C15.4487 46.8188 15.3077 46.7525 15.1087 46.7525C14.8765 46.7525 14.7107 46.8188 14.6029 46.9598C14.4951 47.1007 14.4453 47.3246 14.4453 47.6397V49.265H13.5912V46.1637H14.4039V46.172Z" fill="#0044D9"/>
<path d="M17.016 45.7822V44.9945H20.5153V45.7822H19.2383V49.2733H18.3013V45.7822H17.016Z" fill="#0044D9"/>
<path d="M21.2866 48.527C21.4109 48.6514 21.6017 48.7095 21.8339 48.7095C22.008 48.7095 22.1573 48.668 22.2733 48.5768C22.3977 48.4939 22.4724 48.4026 22.4972 48.3031H23.2436C23.1275 48.6763 22.9367 48.9416 22.6963 49.0992C22.4475 49.2568 22.149 49.3397 21.8007 49.3397C21.5602 49.3397 21.3363 49.2982 21.1456 49.2236C20.9466 49.149 20.7807 49.0329 20.648 48.8919C20.5154 48.7509 20.4076 48.5768 20.3329 48.3778C20.2583 48.1787 20.2251 47.9548 20.2251 47.7144C20.2251 47.4822 20.2666 47.2666 20.3412 47.0676C20.4159 46.8685 20.5237 46.6944 20.6646 46.5451C20.8056 46.3959 20.9714 46.2881 21.1622 46.1969C21.3529 46.1139 21.5685 46.0725 21.809 46.0725C22.0743 46.0725 22.2982 46.1222 22.4972 46.2217C22.6963 46.3212 22.8538 46.4622 22.9782 46.6364C23.1026 46.8105 23.1938 47.0012 23.2518 47.2251C23.3099 47.449 23.3265 47.6729 23.3099 47.9134H21.0792C21.0875 48.2036 21.1622 48.4026 21.2866 48.527ZM22.2485 46.8934C22.149 46.7773 21.9914 46.7276 21.7841 46.7276C21.6514 46.7276 21.5353 46.7525 21.4441 46.7939C21.3529 46.8437 21.2866 46.8934 21.2285 46.9681C21.1788 47.0344 21.1373 47.109 21.1124 47.1837C21.0875 47.2583 21.0792 47.3246 21.071 47.391H22.4558C22.4226 47.1754 22.348 47.0095 22.2485 46.8934Z" fill="#0044D9"/>
<path d="M25.4079 46.7276C25.2752 46.7276 25.1591 46.7607 25.0679 46.8188C24.9767 46.8768 24.902 46.9598 24.844 47.0593C24.786 47.1588 24.7445 47.2666 24.7196 47.3827C24.6947 47.4988 24.6864 47.6149 24.6864 47.731C24.6864 47.8388 24.6947 47.9548 24.7196 48.0709C24.7445 48.187 24.786 48.2948 24.8357 48.386C24.8855 48.4773 24.9601 48.5602 25.0513 48.6182C25.1425 48.6763 25.2586 48.7095 25.383 48.7095C25.5903 48.7095 25.7396 48.6514 25.8557 48.5353C25.9635 48.4192 26.0381 48.27 26.063 48.0792H26.8839C26.8259 48.4939 26.6683 48.8007 26.403 49.0163C26.1376 49.2319 25.8059 49.3397 25.3913 49.3397C25.1591 49.3397 24.9435 49.2982 24.7528 49.2236C24.5621 49.1489 24.3962 49.0329 24.2552 48.9002C24.1226 48.7592 24.0148 48.5934 23.9401 48.4026C23.8655 48.2119 23.824 47.9963 23.824 47.7641C23.824 47.5236 23.8572 47.2997 23.9318 47.0924C23.9982 46.8851 24.106 46.711 24.2387 46.5617C24.3713 46.4125 24.5372 46.2964 24.7362 46.2134C24.9352 46.1305 25.1591 46.0891 25.4079 46.0891C25.5903 46.0891 25.7645 46.1139 25.9386 46.1637C26.1044 46.2134 26.262 46.2881 26.3947 46.3793C26.5274 46.4788 26.6352 46.5949 26.7181 46.7442C26.801 46.8934 26.8508 47.0593 26.859 47.2666H26.0298C25.9801 46.9017 25.7727 46.7276 25.4079 46.7276Z" fill="#0044D9"/>
<path d="M28.3351 44.9862V46.5949H28.3517C28.4595 46.4125 28.6004 46.2881 28.7663 46.2052C28.9321 46.1222 29.098 46.0808 29.2555 46.0808C29.4794 46.0808 29.6701 46.1139 29.8194 46.172C29.9687 46.23 30.0765 46.3212 30.1677 46.429C30.2506 46.5369 30.3087 46.6695 30.3418 46.8271C30.375 46.9846 30.3916 47.1588 30.3916 47.3495V49.2568H29.5375V47.5153C29.5375 47.2583 29.496 47.0676 29.4214 46.9432C29.3385 46.8188 29.1975 46.7525 28.9985 46.7525C28.7663 46.7525 28.6004 46.8188 28.4926 46.9598C28.3848 47.1007 28.3351 47.3246 28.3351 47.6397V49.265H27.481V44.9862H28.3351Z" fill="#0044D9"/>
<path d="M33.75 48.2119C33.7998 48.3114 33.8744 48.3943 33.9573 48.4524C34.0402 48.5104 34.1397 48.5602 34.2558 48.5934C34.3719 48.6265 34.488 48.6348 34.6124 48.6348C34.6953 48.6348 34.7865 48.6265 34.8778 48.6099C34.9773 48.5934 35.0602 48.5685 35.1431 48.527C35.226 48.4856 35.3007 48.4358 35.3504 48.3612C35.4085 48.2948 35.4333 48.2036 35.4333 48.0958C35.4333 47.9797 35.4002 47.8885 35.3255 47.8139C35.2509 47.7392 35.1514 47.6812 35.0353 47.6314C34.9192 47.5817 34.7782 47.5402 34.629 47.5071C34.4797 47.4739 34.3222 47.4324 34.1646 47.391C34.0071 47.3495 33.8495 47.2997 33.7002 47.2417C33.551 47.1837 33.41 47.109 33.2939 47.0178C33.1778 46.9266 33.0783 46.8105 33.0037 46.6695C32.929 46.5286 32.8959 46.3627 32.8959 46.172C32.8959 45.9564 32.9456 45.7574 33.0369 45.5998C33.1281 45.434 33.2525 45.3013 33.4017 45.1935C33.551 45.0857 33.7251 45.0028 33.9158 44.953C34.1066 44.9032 34.2973 44.8784 34.488 44.8784C34.7119 44.8784 34.9275 44.9032 35.1348 44.953C35.3421 45.0028 35.5246 45.0857 35.6821 45.1935C35.8397 45.3013 35.9641 45.4505 36.0636 45.6247C36.1548 45.7988 36.2045 46.0061 36.2045 46.2549H35.2924C35.2841 46.1305 35.2592 46.0227 35.2095 45.9398C35.1597 45.8569 35.1017 45.7905 35.027 45.7408C34.9524 45.691 34.8612 45.6579 34.77 45.6413C34.6705 45.6247 34.5627 45.6081 34.4466 45.6081C34.3719 45.6081 34.2973 45.6164 34.2227 45.633C34.148 45.6496 34.0817 45.6744 34.0154 45.7159C33.9573 45.7574 33.8993 45.8071 33.8661 45.8652C33.8246 45.9232 33.808 45.9978 33.808 46.0891C33.808 46.172 33.8246 46.2383 33.8578 46.2964C33.891 46.3461 33.949 46.3959 34.0485 46.4373C34.1397 46.4788 34.2724 46.5286 34.4383 46.57C34.6041 46.6115 34.8197 46.6695 35.0851 46.7359C35.168 46.7525 35.2758 46.7773 35.4168 46.8271C35.5577 46.8685 35.6987 46.9349 35.8397 47.0261C35.9806 47.1173 36.0967 47.2417 36.2045 47.391C36.304 47.5485 36.3538 47.7392 36.3538 47.9797C36.3538 48.1787 36.3123 48.3612 36.2377 48.527C36.1631 48.6929 36.047 48.8421 35.8977 48.9582C35.7485 49.0826 35.566 49.1738 35.3421 49.2402C35.1182 49.3065 34.8612 49.3397 34.5709 49.3397C34.3388 49.3397 34.1066 49.3065 33.8827 49.2485C33.6588 49.1904 33.4681 49.0992 33.2939 48.9748C33.1281 48.8504 32.9871 48.6929 32.8876 48.5021C32.7881 48.3114 32.7383 48.0792 32.7466 47.8222H33.6588C33.6671 47.9963 33.7002 48.1124 33.75 48.2119Z" fill="#0044D9"/>
<path d="M36.9674 47.051C37.0421 46.852 37.1499 46.6778 37.2908 46.5368C37.4318 46.3959 37.5977 46.2881 37.7967 46.2052C37.9957 46.1305 38.2113 46.0891 38.4518 46.0891C38.6923 46.0891 38.9162 46.1305 39.1152 46.2052C39.3142 46.2798 39.48 46.3959 39.621 46.5368C39.762 46.6778 39.8698 46.852 39.9444 47.051C40.019 47.25 40.0605 47.4739 40.0605 47.7227C40.0605 47.9714 40.019 48.1953 39.9444 48.3943C39.8698 48.5934 39.762 48.7675 39.621 48.9085C39.48 49.0494 39.3142 49.1572 39.1152 49.2319C38.9162 49.3065 38.7006 49.348 38.4518 49.348C38.2113 49.348 37.9874 49.3065 37.7967 49.2319C37.5977 49.1572 37.4318 49.0494 37.2908 48.9085C37.1499 48.7675 37.0421 48.5934 36.9674 48.3943C36.8928 48.1953 36.8513 47.9714 36.8513 47.7227C36.8513 47.4739 36.8845 47.25 36.9674 47.051ZM37.7386 48.0875C37.7635 48.2036 37.805 48.3114 37.863 48.4026C37.9211 48.4939 37.9957 48.5685 38.0952 48.6265C38.1947 48.6846 38.3108 48.7095 38.4518 48.7095C38.5927 48.7095 38.7171 48.6846 38.8166 48.6265C38.9162 48.5685 38.9908 48.4939 39.0488 48.4026C39.1069 48.3114 39.1483 48.2036 39.1732 48.0875C39.1981 47.9714 39.2064 47.847 39.2064 47.7227C39.2064 47.5983 39.1981 47.4739 39.1732 47.3578C39.1483 47.2417 39.1069 47.1339 39.0488 47.0427C38.9908 46.9515 38.9162 46.8768 38.8166 46.8188C38.7171 46.7607 38.601 46.7359 38.4518 46.7359C38.3108 46.7359 38.1864 46.7607 38.0952 46.8188C37.9957 46.8768 37.9211 46.9515 37.863 47.0427C37.805 47.1339 37.7635 47.2417 37.7386 47.3578C37.7138 47.4739 37.7055 47.5983 37.7055 47.7227C37.6972 47.847 37.7138 47.9714 37.7386 48.0875Z" fill="#0044D9"/>
<path d="M40.4005 46.7359V46.1637H40.9063V45.9232C40.9063 45.6496 40.9892 45.4257 41.1634 45.2432C41.3375 45.0691 41.5946 44.9779 41.9429 44.9779C42.0175 44.9779 42.0921 44.9779 42.1668 44.9862C42.2414 44.9945 42.316 44.9945 42.3907 45.0028V45.6413C42.2911 45.633 42.1833 45.6247 42.0838 45.6247C41.9677 45.6247 41.8848 45.6496 41.8351 45.7076C41.7853 45.7657 41.7604 45.8486 41.7604 45.9813V46.1637H42.3492V46.7359H41.7604V49.265H40.9063V46.7359H40.4005Z" fill="#0044D9"/>
<path d="M44.5384 46.172V46.7442H43.9165V48.2783C43.9165 48.4192 43.9413 48.5187 43.9911 48.5685C44.0409 48.6182 44.1321 48.6431 44.2813 48.6431C44.3311 48.6431 44.3726 48.6431 44.4223 48.6348C44.4638 48.6348 44.5052 48.6265 44.5467 48.6182V49.2816C44.4721 49.2899 44.3974 49.2982 44.3062 49.3065C44.215 49.3065 44.1321 49.3148 44.0491 49.3148C43.9165 49.3148 43.7921 49.3065 43.676 49.2899C43.5599 49.2733 43.4521 49.2402 43.3609 49.1821C43.2697 49.1324 43.2033 49.0577 43.1453 48.9582C43.0955 48.8587 43.0706 48.7343 43.0706 48.5768V46.7525H42.5565V46.1803H43.0706V45.2515H43.9248V46.1803H44.5384V46.172Z" fill="#0044D9"/>
<path d="M47.7227 49.2733L47.1754 47.1919H47.1671L46.6447 49.2733H45.7657L44.7789 46.172H45.6744L46.2466 48.2783H46.2549L46.769 46.172H47.5983L48.129 48.27H48.1373L48.7095 46.172H49.5802L48.6017 49.2733H47.7227Z" fill="#0044D9"/>
<path d="M50.0197 47.1256C50.0279 46.9266 50.0777 46.7607 50.1689 46.6281C50.2601 46.4954 50.3679 46.3876 50.5006 46.313C50.6333 46.23 50.7908 46.1803 50.9567 46.1388C51.1225 46.1056 51.2967 46.0891 51.4708 46.0891C51.6284 46.0891 51.7859 46.0974 51.9435 46.1222C52.101 46.1471 52.2503 46.1886 52.383 46.2549C52.5157 46.3212 52.6235 46.4042 52.7064 46.5203C52.7893 46.6364 52.8308 46.7856 52.8308 46.9763V48.5851C52.8308 48.726 52.8391 48.8587 52.8556 48.9831C52.8722 49.1075 52.8971 49.207 52.9386 49.2733H52.0762C52.0596 49.2236 52.0513 49.1738 52.0347 49.1241C52.0264 49.0743 52.0181 49.0246 52.0098 48.9748C51.8771 49.1158 51.7113 49.2153 51.5289 49.265C51.3464 49.3231 51.1557 49.348 50.965 49.348C50.8157 49.348 50.683 49.3314 50.5504 49.2899C50.426 49.2567 50.3099 49.1987 50.2187 49.1241C50.1192 49.0494 50.0445 48.9499 49.9948 48.8338C49.945 48.7177 49.9118 48.5768 49.9118 48.4192C49.9118 48.2451 49.945 48.0958 50.0031 47.988C50.0611 47.8719 50.144 47.7807 50.2435 47.7144C50.3431 47.648 50.4509 47.5983 50.5752 47.5651C50.6996 47.5319 50.824 47.5071 50.9567 47.4822C51.0811 47.4656 51.2138 47.449 51.3298 47.4324C51.4542 47.4241 51.562 47.3993 51.6615 47.3744C51.7611 47.3495 51.8357 47.3163 51.8854 47.2666C51.9435 47.2168 51.9684 47.1505 51.9601 47.0676C51.9601 46.9763 51.9435 46.9017 51.9186 46.852C51.8854 46.7939 51.8523 46.7524 51.8025 46.7276C51.7528 46.6944 51.6947 46.6778 51.6284 46.6695C51.562 46.6612 51.4957 46.6529 51.4128 46.6529C51.2469 46.6529 51.1142 46.6861 51.0147 46.7607C50.9152 46.8354 50.8655 46.9515 50.8489 47.1173H50.0197V47.1256ZM51.9849 47.7558C51.9518 47.789 51.902 47.8139 51.8523 47.8305C51.8025 47.847 51.7445 47.8636 51.6781 47.8719C51.6201 47.8802 51.5537 47.8968 51.4874 47.9051C51.4211 47.9134 51.3547 47.9217 51.2801 47.9383C51.2138 47.9466 51.1557 47.9631 51.0894 47.988C51.0313 48.0046 50.9733 48.0378 50.9318 48.0709C50.8821 48.1041 50.8489 48.1456 50.824 48.2036C50.7991 48.2534 50.7826 48.3197 50.7826 48.4026C50.7826 48.4773 50.7991 48.5436 50.824 48.5934C50.8489 48.6431 50.8904 48.6846 50.9401 48.7177C50.9899 48.7509 51.0479 48.7675 51.106 48.7841C51.1723 48.7924 51.2386 48.8007 51.305 48.8007C51.4708 48.8007 51.6035 48.7758 51.6947 48.7177C51.7859 48.6597 51.8523 48.5934 51.902 48.5187C51.9435 48.4441 51.9767 48.3612 51.9849 48.2783C51.9932 48.1953 52.0015 48.1373 52.0015 48.0875V47.7558H51.9849Z" fill="#0044D9"/>
<path d="M54.4146 46.172V46.7442H54.4229C54.4644 46.6446 54.5141 46.5617 54.5887 46.4788C54.6634 46.3959 54.738 46.3295 54.8209 46.2715C54.9121 46.2134 55.0034 46.172 55.1029 46.1388C55.2024 46.1056 55.3102 46.0891 55.418 46.0891C55.476 46.0891 55.5341 46.0974 55.6004 46.1222V46.91C55.559 46.9017 55.5092 46.8934 55.4594 46.8851C55.4014 46.8768 55.3516 46.8768 55.3019 46.8768C55.1443 46.8768 55.0117 46.9017 54.9039 46.9515C54.7961 47.0012 54.7131 47.0759 54.6468 47.1671C54.5805 47.2583 54.5307 47.3661 54.5058 47.4822C54.4809 47.5983 54.4644 47.731 54.4644 47.8719V49.265H53.6102V46.1637H54.4146V46.172Z" fill="#0044D9"/>
<path d="M56.8609 48.527C56.9853 48.6514 57.176 48.7095 57.4082 48.7095C57.5823 48.7095 57.7316 48.668 57.8477 48.5768C57.9721 48.4939 58.0467 48.4026 58.0716 48.3031H58.8179C58.7018 48.6763 58.5111 48.9416 58.2706 49.0992C58.0218 49.2568 57.7233 49.3397 57.375 49.3397C57.1345 49.3397 56.9106 49.2982 56.7199 49.2236C56.5209 49.149 56.355 49.0329 56.2224 48.8919C56.0897 48.7509 55.9819 48.5768 55.9073 48.3778C55.8326 48.1787 55.7995 47.9548 55.7995 47.7144C55.7995 47.4822 55.8409 47.2666 55.9155 47.0676C55.9902 46.8685 56.098 46.6944 56.2389 46.5451C56.3799 46.3959 56.5458 46.2881 56.7365 46.1969C56.9272 46.1139 57.1428 46.0725 57.3833 46.0725C57.6487 46.0725 57.8725 46.1222 58.0716 46.2217C58.2706 46.3212 58.4281 46.4622 58.5525 46.6364C58.6769 46.8105 58.7681 47.0012 58.8262 47.2251C58.8842 47.449 58.9008 47.6729 58.8842 47.9134H56.6536C56.6619 48.2036 56.7365 48.4026 56.8609 48.527ZM57.8228 46.8934C57.7233 46.7773 57.5657 46.7276 57.3584 46.7276C57.2257 46.7276 57.1097 46.7525 57.0184 46.7939C56.9272 46.8437 56.8609 46.8934 56.8028 46.9681C56.7531 47.0344 56.7116 47.109 56.6867 47.1837C56.6619 47.2583 56.6536 47.3246 56.6453 47.391H58.0301C57.9969 47.1754 57.9223 47.0095 57.8228 46.8934Z" fill="#0044D9"/>
<path d="M61.0485 45.7822V44.9945H64.5479V45.7822H63.2709V49.2733H62.3338V45.7822H61.0485Z" fill="#0044D9"/>
<path d="M65.3108 48.527C65.4352 48.6514 65.6259 48.7095 65.8581 48.7095C66.0322 48.7095 66.1815 48.668 66.2976 48.5768C66.422 48.4939 66.4966 48.4026 66.5215 48.3031H67.2678C67.1517 48.6763 66.961 48.9416 66.7205 49.0992C66.4717 49.2568 66.1732 49.3397 65.8249 49.3397C65.5845 49.3397 65.3606 49.2982 65.1698 49.2236C64.9708 49.149 64.805 49.0329 64.6723 48.8919C64.5396 48.7509 64.4318 48.5768 64.3572 48.3778C64.2826 48.1787 64.2494 47.9548 64.2494 47.7144C64.2494 47.4822 64.2909 47.2666 64.3655 47.0676C64.4401 46.8685 64.5479 46.6944 64.6889 46.5451C64.8299 46.3959 64.9957 46.2881 65.1864 46.1969C65.3772 46.1139 65.5928 46.0725 65.8332 46.0725C66.0986 46.0725 66.3225 46.1222 66.5215 46.2217C66.7205 46.3212 66.8781 46.4622 67.0025 46.6364C67.1268 46.8105 67.2181 47.0012 67.2761 47.2251C67.3342 47.449 67.3507 47.6729 67.3342 47.9134H65.1035C65.1118 48.2036 65.1864 48.4026 65.3108 48.527ZM66.2727 46.8934C66.1732 46.7773 66.0157 46.7276 65.8084 46.7276C65.6757 46.7276 65.5596 46.7525 65.4684 46.7939C65.3771 46.8437 65.3108 46.8934 65.2528 46.9681C65.203 47.0344 65.1616 47.109 65.1367 47.1837C65.1118 47.2583 65.1035 47.3246 65.0952 47.391H66.48C66.4469 47.1754 66.3722 47.0095 66.2727 46.8934Z" fill="#0044D9"/>
<path d="M69.4404 46.7276C69.3077 46.7276 69.1916 46.7607 69.1004 46.8188C69.0092 46.8768 68.9346 46.9598 68.8765 47.0593C68.8185 47.1588 68.777 47.2666 68.7521 47.3827C68.7273 47.4988 68.719 47.6149 68.719 47.731C68.719 47.8388 68.7273 47.9548 68.7521 48.0709C68.777 48.187 68.8185 48.2948 68.8682 48.386C68.918 48.4773 68.9926 48.5602 69.0838 48.6182C69.1751 48.6763 69.2911 48.7095 69.4155 48.7095C69.6228 48.7095 69.7721 48.6514 69.8882 48.5353C69.996 48.4192 70.0706 48.27 70.0955 48.0792H70.9165C70.8584 48.4939 70.7009 48.8007 70.4355 49.0163C70.1701 49.2319 69.8384 49.3397 69.4238 49.3397C69.1916 49.3397 68.976 49.2982 68.7853 49.2236C68.5946 49.1489 68.4287 49.0329 68.2878 48.9002C68.1551 48.7592 68.0473 48.5934 67.9727 48.4026C67.898 48.2119 67.8566 47.9963 67.8566 47.7641C67.8566 47.5236 67.8897 47.2997 67.9644 47.0924C68.0307 46.8851 68.1385 46.711 68.2712 46.5617C68.4039 46.4125 68.5697 46.2964 68.7687 46.2134C68.9677 46.1305 69.1916 46.0891 69.4404 46.0891C69.6228 46.0891 69.797 46.1139 69.9711 46.1637C70.1453 46.2134 70.2945 46.2881 70.4272 46.3793C70.5599 46.4788 70.6677 46.5949 70.7506 46.7442C70.8335 46.8934 70.8833 47.0593 70.8916 47.2666H70.0623C70.0126 46.9017 69.797 46.7276 69.4404 46.7276Z" fill="#0044D9"/>
<path d="M72.3676 44.9862V46.5949H72.3842C72.492 46.4125 72.633 46.2881 72.7988 46.2052C72.9647 46.1222 73.1305 46.0808 73.2881 46.0808C73.512 46.0808 73.7027 46.1139 73.8519 46.172C74.0012 46.23 74.109 46.3212 74.2002 46.429C74.2831 46.5369 74.3412 46.6695 74.3744 46.8271C74.4075 46.9846 74.4241 47.1588 74.4241 47.3495V49.2568H73.57V47.5153C73.57 47.2583 73.5285 47.0676 73.4539 46.9432C73.371 46.8188 73.23 46.7525 73.031 46.7525C72.7988 46.7525 72.633 46.8188 72.5252 46.9598C72.4174 47.1007 72.3676 47.3246 72.3676 47.6397V49.265H71.5135V44.9862H72.3676Z" fill="#0044D9"/>
<path d="M75.9914 46.172V46.6032H76.008C76.1158 46.4208 76.2567 46.2964 76.4309 46.2134C76.605 46.1305 76.7792 46.0891 76.9533 46.0891C77.1772 46.0891 77.3679 46.1222 77.5172 46.1803C77.6665 46.2383 77.7743 46.3295 77.8655 46.4373C77.9484 46.5451 78.0064 46.6778 78.0396 46.8354C78.0728 46.9929 78.0894 47.1671 78.0894 47.3578V49.265H77.2352V47.5153C77.2352 47.2583 77.1938 47.0676 77.1192 46.9432C77.0362 46.8188 76.8953 46.7525 76.6962 46.7525C76.4641 46.7525 76.2982 46.8188 76.1904 46.9598C76.0826 47.1007 76.0329 47.3246 76.0329 47.6397V49.265H75.1787V46.1637H75.9914V46.172Z" fill="#0044D9"/>
<path d="M78.8689 47.051C78.9435 46.852 79.0513 46.6778 79.1923 46.5368C79.3332 46.3959 79.4991 46.2881 79.6981 46.2052C79.8971 46.1305 80.1127 46.0891 80.3532 46.0891C80.5937 46.0891 80.8176 46.1305 81.0166 46.2052C81.2156 46.2798 81.3814 46.3959 81.5224 46.5368C81.6634 46.6778 81.7712 46.852 81.8458 47.051C81.9204 47.25 81.9619 47.4739 81.9619 47.7227C81.9619 47.9714 81.9204 48.1953 81.8458 48.3943C81.7712 48.5934 81.6634 48.7675 81.5224 48.9085C81.3814 49.0494 81.2156 49.1572 81.0166 49.2319C80.8176 49.3065 80.602 49.348 80.3532 49.348C80.1127 49.348 79.8888 49.3065 79.6981 49.2319C79.4991 49.1572 79.3332 49.0494 79.1923 48.9085C79.0513 48.7675 78.9435 48.5934 78.8689 48.3943C78.7942 48.1953 78.7528 47.9714 78.7528 47.7227C78.7611 47.4739 78.7942 47.25 78.8689 47.051ZM79.64 48.0875C79.6649 48.2036 79.7064 48.3114 79.7644 48.4026C79.8225 48.4939 79.8971 48.5685 79.9966 48.6265C80.0961 48.6846 80.2122 48.7095 80.3532 48.7095C80.4942 48.7095 80.6185 48.6846 80.7181 48.6265C80.8176 48.5685 80.8922 48.4939 80.9502 48.4026C81.0083 48.3114 81.0497 48.2036 81.0746 48.0875C81.0995 47.9714 81.1078 47.847 81.1078 47.7227C81.1078 47.5983 81.0995 47.4739 81.0746 47.3578C81.0497 47.2417 81.0083 47.1339 80.9502 47.0427C80.8922 46.9515 80.8176 46.8768 80.7181 46.8188C80.6185 46.7607 80.5025 46.7359 80.3532 46.7359C80.2122 46.7359 80.0878 46.7607 79.9966 46.8188C79.8971 46.8768 79.8225 46.9515 79.7644 47.0427C79.7064 47.1339 79.6649 47.2417 79.64 47.3578C79.6235 47.4739 79.6069 47.5983 79.6069 47.7227C79.6069 47.847 79.6235 47.9714 79.64 48.0875Z" fill="#0044D9"/>
<path d="M83.5043 44.9862V49.265H82.6502V44.9862H83.5043Z" fill="#0044D9"/>
<path d="M84.3087 47.051C84.3833 46.852 84.4911 46.6778 84.6321 46.5368C84.773 46.3959 84.9389 46.2881 85.1379 46.2052C85.3369 46.1305 85.5525 46.0891 85.793 46.0891C86.0335 46.0891 86.2574 46.1305 86.4564 46.2052C86.6554 46.2798 86.8213 46.3959 86.9622 46.5368C87.1032 46.6778 87.211 46.852 87.2856 47.051C87.3603 47.25 87.4017 47.4739 87.4017 47.7227C87.4017 47.9714 87.3603 48.1953 87.2856 48.3943C87.211 48.5934 87.1032 48.7675 86.9622 48.9085C86.8213 49.0494 86.6554 49.1572 86.4564 49.2319C86.2574 49.3065 86.0418 49.348 85.793 49.348C85.5525 49.348 85.3286 49.3065 85.1379 49.2319C84.9389 49.1572 84.773 49.0494 84.6321 48.9085C84.4911 48.7675 84.3833 48.5934 84.3087 48.3943C84.234 48.1953 84.1926 47.9714 84.1926 47.7227C84.2009 47.4739 84.234 47.25 84.3087 47.051ZM85.0881 48.0875C85.113 48.2036 85.1545 48.3114 85.2125 48.4026C85.2706 48.4939 85.3452 48.5685 85.4447 48.6265C85.5442 48.6846 85.6603 48.7095 85.8013 48.7095C85.9423 48.7095 86.0666 48.6846 86.1662 48.6265C86.2657 48.5685 86.3403 48.4939 86.3983 48.4026C86.4564 48.3114 86.4978 48.2036 86.5227 48.0875C86.5476 47.9714 86.5559 47.847 86.5559 47.7227C86.5559 47.5983 86.5476 47.4739 86.5227 47.3578C86.4978 47.2417 86.4564 47.1339 86.3983 47.0427C86.3403 46.9515 86.2657 46.8768 86.1662 46.8188C86.0666 46.7607 85.9506 46.7359 85.8013 46.7359C85.6603 46.7359 85.5359 46.7607 85.4447 46.8188C85.3452 46.8768 85.2706 46.9515 85.2125 47.0427C85.1545 47.1339 85.113 47.2417 85.0881 47.3578C85.0633 47.4739 85.055 47.5983 85.055 47.7227C85.0467 47.847 85.0633 47.9714 85.0881 48.0875Z" fill="#0044D9"/>
<path d="M90.9923 49.4972C90.9592 49.6548 90.8845 49.804 90.7767 49.945C90.6689 50.086 90.5031 50.2021 90.2958 50.2933C90.0802 50.3928 89.7982 50.4343 89.4416 50.4343C89.2924 50.4343 89.1348 50.4177 88.9773 50.3762C88.8197 50.3348 88.6787 50.2767 88.5461 50.2021C88.4134 50.1192 88.3056 50.0196 88.2227 49.8953C88.1397 49.7709 88.09 49.6216 88.0734 49.4392H88.9192C88.9607 49.5967 89.0353 49.7128 89.1514 49.7709C89.2675 49.8289 89.4002 49.8621 89.5494 49.8621C89.7899 49.8621 89.9641 49.7875 90.0719 49.6465C90.1797 49.5055 90.2377 49.3231 90.2294 49.0992V48.6929H90.2211C90.1299 48.8587 89.9972 48.9748 89.8314 49.0577C89.6655 49.1324 89.4831 49.1738 89.2924 49.1738C89.0602 49.1738 88.8612 49.1324 88.6953 49.0494C88.5295 48.9665 88.3885 48.8587 88.2807 48.7177C88.1729 48.5768 88.09 48.4109 88.0402 48.2202C87.9905 48.0295 87.9656 47.8305 87.9656 47.6149C87.9656 47.4158 87.9905 47.2251 88.0485 47.0344C88.1066 46.852 88.1895 46.6861 88.3056 46.5451C88.4134 46.4042 88.5544 46.2881 88.7202 46.2052C88.8861 46.1222 89.0768 46.0808 89.2924 46.0808C89.4997 46.0808 89.6738 46.1222 89.8314 46.1969C89.9807 46.2715 90.1133 46.4042 90.2211 46.5783H90.2294V46.1637H91.0338V49.066C91.0421 49.1987 91.0255 49.3397 90.9923 49.4972ZM89.8314 48.469C89.9226 48.4192 89.9972 48.3612 90.0553 48.2783C90.1133 48.1953 90.1631 48.1041 90.188 48.0046C90.2211 47.9051 90.2294 47.7973 90.2294 47.6812C90.2294 47.5568 90.2211 47.4324 90.1963 47.3163C90.1714 47.2002 90.1299 47.1007 90.0802 47.0095C90.0221 46.9183 89.9475 46.852 89.8563 46.8022C89.7651 46.7525 89.649 46.7276 89.508 46.7276C89.3919 46.7276 89.2841 46.7525 89.2012 46.8022C89.1182 46.852 89.0436 46.9183 88.9856 47.0012C88.9275 47.0841 88.8861 47.1754 88.8612 47.2832C88.8363 47.391 88.8197 47.4988 88.8197 47.6149C88.8197 47.7227 88.828 47.8388 88.8529 47.9466C88.8778 48.0544 88.9109 48.1539 88.969 48.2451C89.0187 48.3363 89.0934 48.4026 89.1846 48.4607C89.2758 48.5187 89.3836 48.5436 89.5163 48.5436C89.6324 48.5353 89.7402 48.5104 89.8314 48.469Z" fill="#0044D9"/>
<path d="M92.9908 50.1938C92.8249 50.3016 92.601 50.3596 92.3108 50.3596C92.2196 50.3596 92.1367 50.3596 92.0537 50.3513C91.9708 50.3431 91.8796 50.3348 91.7967 50.3265V49.6216C91.8796 49.6299 91.9625 49.6382 92.0454 49.6465C92.1284 49.6548 92.2113 49.6548 92.2942 49.6548C92.402 49.6465 92.4849 49.5967 92.543 49.5221C92.5927 49.4475 92.6259 49.3646 92.6259 49.2733C92.6259 49.207 92.6176 49.1407 92.5927 49.0826L91.5064 46.172H92.4103L93.1069 48.2948H93.1152L93.7951 46.172H94.6741L93.3805 49.6548C93.281 49.9036 93.1566 50.086 92.9908 50.1938Z" fill="#0044D9"/>
<path d="M99.691 46.1305C99.633 46.0393 99.5666 45.9647 99.4837 45.89C99.4008 45.8237 99.3013 45.7657 99.2018 45.7325C99.094 45.691 98.9862 45.6744 98.8701 45.6744C98.6545 45.6744 98.4803 45.7159 98.3311 45.7988C98.1818 45.8818 98.0657 45.9896 97.9745 46.1305C97.8833 46.2715 97.8169 46.429 97.7755 46.6032C97.734 46.7773 97.7091 46.9598 97.7091 47.1505C97.7091 47.3329 97.734 47.5071 97.7755 47.6729C97.8169 47.8388 97.8833 47.9963 97.9745 48.129C98.0657 48.2617 98.1818 48.3778 98.3311 48.4524C98.4803 48.5353 98.6545 48.5768 98.8701 48.5768C99.1603 48.5768 99.3842 48.4856 99.5418 48.3114C99.7076 48.1373 99.7988 47.9051 99.8403 47.6149H100.752C100.728 47.8802 100.67 48.1207 100.57 48.3363C100.471 48.5519 100.338 48.7343 100.172 48.8919C100.006 49.0411 99.8154 49.1572 99.5998 49.2402C99.3842 49.3231 99.1354 49.3563 98.8784 49.3563C98.555 49.3563 98.2564 49.2982 97.9994 49.1821C97.734 49.066 97.5184 48.9085 97.336 48.7095C97.1536 48.5104 97.0209 48.2782 96.9214 48.0046C96.8219 47.731 96.7804 47.4407 96.7804 47.1339C96.7804 46.8105 96.8301 46.5203 96.9214 46.2466C97.0209 45.973 97.1536 45.7325 97.336 45.5335C97.5184 45.3262 97.734 45.1686 97.9994 45.0525C98.2564 44.9364 98.555 44.8784 98.8784 44.8784C99.1106 44.8784 99.3345 44.9115 99.5418 44.9779C99.7491 45.0442 99.9398 45.1437 100.106 45.2764C100.271 45.4091 100.404 45.5666 100.512 45.7574C100.62 45.9481 100.686 46.172 100.719 46.4208H99.8071C99.7822 46.3212 99.7491 46.2217 99.691 46.1305Z" fill="#0044D9"/>
<path d="M101.432 47.051C101.507 46.852 101.615 46.6778 101.756 46.5368C101.897 46.3959 102.063 46.2881 102.262 46.2052C102.461 46.1305 102.676 46.0891 102.917 46.0891C103.157 46.0891 103.381 46.1305 103.58 46.2052C103.779 46.2798 103.945 46.3959 104.086 46.5368C104.227 46.6778 104.335 46.852 104.409 47.051C104.484 47.25 104.525 47.4739 104.525 47.7227C104.525 47.9714 104.484 48.1953 104.409 48.3943C104.335 48.5934 104.227 48.7675 104.086 48.9085C103.945 49.0494 103.779 49.1572 103.58 49.2319C103.381 49.3065 103.166 49.348 102.917 49.348C102.676 49.348 102.452 49.3065 102.262 49.2319C102.063 49.1572 101.897 49.0494 101.756 48.9085C101.615 48.7675 101.507 48.5934 101.432 48.3943C101.358 48.1953 101.316 47.9714 101.316 47.7227C101.316 47.4739 101.358 47.25 101.432 47.051ZM102.204 48.0875C102.228 48.2036 102.27 48.3114 102.328 48.4026C102.386 48.4939 102.461 48.5685 102.56 48.6265C102.66 48.6846 102.776 48.7095 102.917 48.7095C103.058 48.7095 103.182 48.6846 103.282 48.6265C103.381 48.5685 103.456 48.4939 103.514 48.4026C103.572 48.3114 103.613 48.2036 103.638 48.0875C103.663 47.9714 103.671 47.847 103.671 47.7227C103.671 47.5983 103.663 47.4739 103.638 47.3578C103.613 47.2417 103.572 47.1339 103.514 47.0427C103.456 46.9515 103.381 46.8768 103.282 46.8188C103.182 46.7607 103.066 46.7359 102.917 46.7359C102.776 46.7359 102.651 46.7607 102.56 46.8188C102.461 46.8768 102.386 46.9515 102.328 47.0427C102.27 47.1339 102.228 47.2417 102.204 47.3578C102.179 47.4739 102.17 47.5983 102.17 47.7227C102.17 47.847 102.179 47.9714 102.204 48.0875Z" fill="#0044D9"/>
<path d="M106.167 48.3446V49.265H105.23V48.3446H106.167Z" fill="#0044D9"/>
<path d="M107.959 48.3446V49.265C107.959 49.3977 107.934 49.5221 107.884 49.6382C107.834 49.7543 107.768 49.8538 107.685 49.9367C107.602 50.0197 107.502 50.086 107.386 50.144C107.27 50.2021 107.154 50.2353 107.021 50.2518V49.8206C107.08 49.8123 107.138 49.7875 107.196 49.746C107.245 49.7128 107.295 49.6631 107.337 49.6133C107.378 49.5636 107.403 49.5055 107.428 49.4475C107.444 49.3894 107.453 49.3231 107.453 49.2568H107.021V48.3446H107.959Z" fill="#0044D9"/>
<path d="M111.45 44.9862V48.4773H113.531V49.265H110.504V44.9862H111.45Z" fill="#0044D9"/>
<path d="M115.787 46.172V46.7442H115.165V48.2783C115.165 48.4192 115.189 48.5187 115.239 48.5685C115.289 48.6182 115.38 48.6431 115.529 48.6431C115.579 48.6431 115.621 48.6431 115.67 48.6348C115.712 48.6348 115.753 48.6265 115.795 48.6182V49.2816C115.72 49.2899 115.646 49.2982 115.554 49.3065C115.463 49.3065 115.38 49.3148 115.297 49.3148C115.165 49.3148 115.04 49.3065 114.924 49.2899C114.808 49.2733 114.7 49.2402 114.609 49.1821C114.518 49.1324 114.451 49.0577 114.393 48.9582C114.344 48.8587 114.319 48.7343 114.319 48.5768V46.7525H113.805V46.1803H114.319V45.2515H115.173V46.1803H115.787V46.172Z" fill="#0044D9"/>
<path d="M118.506 48.8753C118.407 49.0411 118.274 49.1655 118.117 49.2402C117.959 49.3148 117.777 49.348 117.569 49.348C117.337 49.348 117.138 49.3065 116.956 49.2153C116.782 49.1241 116.632 48.9997 116.525 48.8504C116.408 48.6929 116.326 48.5187 116.267 48.3197C116.209 48.1207 116.185 47.9134 116.185 47.6978C116.185 47.4905 116.218 47.2915 116.267 47.0924C116.326 46.9017 116.408 46.7276 116.525 46.5783C116.641 46.429 116.782 46.313 116.956 46.2217C117.13 46.1305 117.329 46.0891 117.553 46.0891C117.735 46.0891 117.909 46.1305 118.075 46.2052C118.241 46.2798 118.374 46.3959 118.465 46.5534H118.473V44.9945H119.327V49.2733H118.523V48.8753H118.506ZM118.473 47.3412C118.448 47.2251 118.407 47.1173 118.349 47.0261C118.291 46.9349 118.216 46.8603 118.125 46.8105C118.034 46.7525 117.918 46.7276 117.777 46.7276C117.636 46.7276 117.52 46.7525 117.42 46.8105C117.321 46.8685 117.246 46.9432 117.188 47.0344C117.13 47.1256 117.088 47.2334 117.064 47.3495C117.039 47.4656 117.022 47.59 117.022 47.7144C117.022 47.8305 117.039 47.9548 117.064 48.0709C117.088 48.187 117.138 48.2948 117.196 48.3943C117.254 48.4856 117.337 48.5602 117.428 48.6182C117.52 48.6763 117.636 48.7012 117.768 48.7012C117.909 48.7012 118.025 48.6763 118.117 48.6182C118.208 48.5602 118.283 48.4856 118.341 48.3943C118.399 48.3031 118.44 48.1953 118.457 48.0709C118.482 47.9548 118.49 47.8305 118.49 47.6978C118.506 47.5817 118.498 47.4573 118.473 47.3412Z" fill="#0044D9"/>
<path d="M121.16 48.3446V49.265H120.223V48.3446H121.16Z" fill="#0044D9"/>
</svg>
