<?xml version="1.0" encoding="UTF-8" standalone="no"?>
<!-- Created with Inkscape (http://www.inkscape.org/) -->

<svg
   width="1920"
   height="1080"
   viewBox="0 0 508 285.75001"
   version="1.1"
   id="svg1"
   inkscape:version="1.4.1 (unknown)"
   sodipodi:docname="社区门户 - 背景.svg"
   xmlns:inkscape="http://www.inkscape.org/namespaces/inkscape"
   xmlns:sodipodi="http://sodipodi.sourceforge.net/DTD/sodipodi-0.dtd"
   xmlns="http://www.w3.org/2000/svg"
   xmlns:svg="http://www.w3.org/2000/svg">
  <sodipodi:namedview
     id="namedview1"
     pagecolor="#ffffff"
     bordercolor="#000000"
     borderopacity="0.25"
     inkscape:showpageshadow="2"
     inkscape:pageopacity="0.0"
     inkscape:pagecheckerboard="0"
     inkscape:deskcolor="#d1d1d1"
     inkscape:document-units="mm"
     inkscape:zoom="0.25"
     inkscape:cx="822"
     inkscape:cy="590"
     inkscape:window-width="1920"
     inkscape:window-height="1004"
     inkscape:window-x="0"
     inkscape:window-y="0"
     inkscape:window-maximized="1"
     inkscape:current-layer="layer1" />
  <defs
     id="defs1">
    <clipPath
       clipPathUnits="userSpaceOnUse"
       id="clipPath101">
      <rect
         style="opacity:1;fill:#ffffff;fill-opacity:1;stroke-width:7.84153;stroke-linecap:square;stroke-linejoin:bevel"
         id="rect102"
         width="796.70099"
         height="448.14432"
         x="-310.04001"
         y="127.37634"
         transform="scale(1,-1)" />
    </clipPath>
  </defs>
  <g
     inkscape:label="图层 1"
     inkscape:groupmode="layer"
     id="layer1">
    <path
       id="path3-0"
       d="m 0,0 0.515,-1.159 59.343,-137.204 0.47,-1.094 1.126,-0.395 76.212,-27.339 35.388,-76.55 0.459,-0.984 0.996,-0.417 45.896,-18.956 15.633,-36.644 -42.866,-94.148 c -9.72,0 -17.624,-7.944 -17.624,-17.708 0,-9.761 7.904,-17.687 17.624,-17.687 9.728,0 17.612,7.926 17.612,17.687 0,7.794 -5.007,14.404 -11.972,16.769 l 42.736,93.905 0.515,1.117 -0.47,1.116 -16.564,38.812 -0.459,1.028 -1.028,0.438 -45.927,18.978 -35.424,76.635 -0.49,1.051 -1.095,0.395 L 64.45,-135.059 6.068,-0.107 28.863,48.531 h -6.11 L 0.549,1.139 Z m 416.745,-226.558 c 9.731,0 17.634,7.924 17.634,17.688 0,9.762 -7.903,17.708 -17.634,17.708 -9.709,0 -17.612,-7.946 -17.612,-17.708 0,-9.764 7.903,-17.688 17.612,-17.688 m -189.366,116.213 1.073,-0.394 211.471,-77.227 8.625,-18.606 -116.772,-257.99 -0.569,-1.249 0.645,-1.204 11.032,-20.796 0.493,-0.897 0.971,-0.372 45.437,-17.183 14.694,-30.317 c -4.614,-3.219 -7.653,-8.56 -7.653,-14.601 0,-9.764 7.915,-17.708 17.635,-17.708 9.72,0 17.624,7.944 17.624,17.708 0,9.762 -7.904,17.708 -17.624,17.708 -1.749,0 -3.401,-0.262 -4.986,-0.722 l -15.197,31.368 -0.481,0.986 -1.039,0.392 -45.468,17.184 -9.928,18.674 116.741,257.902 0.524,1.162 -0.535,1.158 -9.655,20.775 -0.479,1.051 -1.095,0.392 -211.46,77.229 -72.255,154.453 h -6.1 l 73.828,-157.847 z m 14.093,149.419 c 6.735,0 12.541,3.853 15.503,9.457 h -31.006 c 2.962,-5.604 8.757,-9.457 15.503,-9.457 m -36.778,-24.78 c -4.81,-3.174 -7.991,-8.623 -7.991,-14.796 0,-9.784 7.903,-17.71 17.623,-17.71 9.72,0 17.635,7.926 17.635,17.71 0,9.739 -7.915,17.685 -17.635,17.685 -1.596,0 -3.117,-0.239 -4.592,-0.634 l -8.374,20.05 5.488,11.932 h -6.099 l -4.933,-10.706 -0.49,-1.093 0.459,-1.139 z m 55.789,-382.521 c 0,9.741 -7.915,17.687 -17.623,17.687 -9.731,0 -17.634,-7.946 -17.634,-17.687 0,-9.762 7.903,-17.708 17.634,-17.708 9.708,0 17.623,7.946 17.623,17.708 M 78.608,-68.294 c -9.731,0 -17.635,-7.946 -17.635,-17.688 0,-9.761 7.904,-17.708 17.635,-17.708 9.697,0 17.634,7.947 17.634,17.708 0,9.742 -7.937,17.688 -17.634,17.688 M 106.66,-141.1 c 9.72,0 17.635,7.923 17.635,17.688 0,9.761 -7.915,17.707 -17.635,17.707 -9.708,0 -17.612,-7.946 -17.612,-17.707 0,-9.765 7.904,-17.688 17.612,-17.688 m 123.147,100.867 0.503,-1.138 10.943,-24.865 c -4.678,-3.197 -7.741,-8.583 -7.741,-14.646 0,-9.762 7.906,-17.708 17.615,-17.708 9.728,0 17.634,7.946 17.634,17.708 0,9.741 -7.906,17.687 -17.634,17.687 -1.684,0 -3.325,-0.262 -4.855,-0.699 l -10.409,23.639 40.659,88.786 h -6.077 l -40.114,-87.603 z m 47.174,-578.478 -47.327,108.662 61.616,140.246 0.481,1.116 -0.481,1.139 -52.465,116.43 -0.439,0.964 -0.994,0.415 -47.317,20.38 -72.703,161.173 -0.468,1.008 -1.05,0.415 -76.201,30.076 -15.624,36.58 23.013,48.638 H 40.911 L 18.488,1.139 17.952,0 l 0.493,-1.136 16.562,-38.812 0.459,-1.051 1.061,-0.437 76.266,-30.077 72.681,-161.108 0.439,-0.984 0.971,-0.439 47.34,-20.357 51.493,-114.286 -61.607,-140.246 -0.501,-1.096 0.479,-1.139 48.314,-110.869 0.479,-1.074 1.115,-0.414 175.275,-63.767 0.918,-0.327 0.907,0.327 35.565,12.084 v 5.866 l -36.418,-12.388 z m -59.901,185.034 c -9.706,0 -17.612,-7.946 -17.612,-17.71 0,-9.762 7.906,-17.708 17.612,-17.708 9.72,0 17.635,7.946 17.635,17.708 0,9.764 -7.915,17.71 -17.635,17.71 m 156.295,166.602 c 0,-9.762 7.904,-17.688 17.603,-17.688 9.74,0 17.644,7.926 17.644,17.688 0,9.762 -7.904,17.708 -17.644,17.708 -9.699,0 -17.603,-7.946 -17.603,-17.708 m -588.301,-207.274 c -9.72,0 -17.612,-7.924 -17.612,-17.685 0,-9.764 7.892,-17.71 17.612,-17.71 9.731,0 17.634,7.946 17.634,17.71 0,9.761 -7.903,17.685 -17.634,17.685 m 31.29,-81.582 c 9.709,0 17.635,7.924 17.635,17.686 0,9.764 -7.926,17.71 -17.635,17.71 -9.719,0 -17.612,-7.946 -17.612,-17.71 0,-9.762 7.893,-17.686 17.612,-17.686 m 78.78,-67.157 0.493,1.138 -0.481,1.117 -8.625,19.765 -0.47,1.029 -1.095,0.437 -195.006,73.79 v -5.931 l 191.979,-72.651 7.664,-17.556 -41.588,-93.47 -0.492,-1.072 0.447,-1.116 13.842,-33.82 h 5.958 l -14.247,34.849 z m -203.337,224.784 0.952,0.33 63.846,23.334 7.064,-1.139 c -0.231,-1.139 -0.34,-2.342 -0.34,-3.546 0,-9.764 7.894,-17.71 17.603,-17.71 9.717,0 17.634,7.946 17.634,17.71 0,9.762 -7.917,17.686 -17.634,17.686 -6.507,0 -12.18,-3.546 -15.23,-8.843 l -8.943,1.423 -0.712,0.088 -0.656,-0.24 -63.584,-23.204 -1.847,0.679 v -5.889 l 0.885,-0.329 z m 131.926,-303.631 c 9.72,0 17.623,7.968 17.623,17.73 0,9.742 -7.903,17.688 -17.623,17.688 -9.731,0 -17.623,-7.946 -17.623,-17.688 0,-6.742 3.748,-12.586 9.249,-15.585 l 21.109,-51.638 h 5.97 l -20.279,49.58 c 0.524,-0.043 1.039,-0.087 1.574,-0.087 m -111.23,366.039 c 2.996,-2.387 6.789,-3.853 10.922,-3.853 9.731,0 17.623,7.946 17.623,17.708 0,9.764 -7.892,17.71 -17.623,17.71 -8.462,0 -15.557,-6.041 -17.241,-14.074 l -0.23,0.634 -15.994,-5.671 v -22.523 l 23.244,8.099 z m 258.099,-278.349 -1.071,0.394 -44.473,17.271 -12.496,28.326 15.01,32.811 0.459,0.986 -0.349,1.006 -3.795,11.45 -0.426,1.269 -1.236,0.459 -59.976,22.81 -38.375,86.508 27.802,62.603 0.481,1.139 -0.481,1.116 -25.527,58.884 -0.459,1.072 -1.073,0.417 -89.735,34.651 -0.963,0.372 -0.961,-0.372 -42.998,-15.762 v -5.909 l 43.916,16.11 87.658,-33.84 24.6,-56.717 -27.802,-62.647 -0.503,-1.117 0.503,-1.118 39.336,-88.739 0.459,-1.029 1.083,-0.417 59.856,-22.742 3.027,-9.13 -15.064,-32.965 -0.524,-1.137 0.513,-1.139 13.447,-30.493 0.459,-1.051 1.073,-0.415 44.474,-17.248 58.588,-132.85 h 6.045 l -60.041,136.131 z m 15.612,50.368 0.535,1.159 -0.512,1.139 -17.252,38.811 -0.459,1.049 -1.083,0.395 -91.397,34.914 -34.22,77.491 29.146,62.602 0.537,1.162 -0.515,1.138 -30.37,68.601 -0.459,1.074 -1.095,0.395 -105.588,39.511 -0.951,0.349 -0.95,-0.349 -41.621,-15.258 v -5.911 l 42.56,15.63 103.523,-38.745 29.398,-66.37 -29.147,-62.626 -0.524,-1.138 0.501,-1.139 35.193,-79.699 0.471,-1.051 1.072,-0.417 91.397,-34.936 16.278,-36.599 -9.129,-19.614 -0.535,-1.158 0.515,-1.162 73.194,-166.799 h 6.023 l -73.664,167.893 z m -22.029,-2.08 c 0,9.764 -7.904,17.688 -17.624,17.688 -9.731,0 -17.634,-7.924 -17.634,-17.688 0,-9.762 7.903,-17.685 17.634,-17.685 9.72,0 17.624,7.923 17.624,17.685 m -7.369,-60.787 -1.016,0.417 -46.366,19.371 -9.194,17.49 -0.481,0.897 -0.952,0.35 -51.481,20.424 -4.078,7.924 12.55,27.187 0.515,1.116 -0.493,1.117 -51.276,119.451 28.492,62.648 0.515,1.116 -0.504,1.139 -20.695,47.807 -0.459,1.051 -1.084,0.437 -75.215,29.093 -0.985,0.372 -0.994,-0.372 -43.655,-16.549 v -5.911 l 44.615,16.899 73.174,-28.304 19.755,-45.594 -28.49,-62.65 -0.492,-1.117 0.481,-1.116 51.262,-119.452 -12.594,-27.274 -0.569,-1.226 0.625,-1.204 5.181,-10.047 0.459,-0.918 0.974,-0.395 51.504,-20.422 9.182,-17.448 0.45,-0.874 0.918,-0.395 46.268,-19.328 52.552,-120.394 h 6.036 l -53.987,123.655 z m -53.833,83.422 c 0,9.762 -7.892,17.708 -17.623,17.708 -9.709,0 -17.601,-7.946 -17.601,-17.708 0,-9.764 7.892,-17.71 17.601,-17.71 9.731,0 17.623,7.946 17.623,17.71 m 173.012,-43.889 31.671,70.002 0.546,1.139 -0.546,1.181 -18.389,40.19 -0.471,1.029 -1.048,0.417 -82.673,31.455 -11.916,26.945 14.267,34.477 0.436,1.074 -0.459,1.071 -8.264,19.855 -0.45,1.094 -1.115,0.415 -27.605,10.728 -4.789,8.513 44.946,96.185 0.535,1.136 -0.504,1.161 -5.06,11.535 -0.492,1.116 -1.138,0.395 -35.224,12.084 -90.054,201.473 28.557,61.072 h -6.101 l -28.02,-59.868 -0.515,-1.162 0.515,-1.158 91.079,-203.728 0.493,-1.094 1.149,-0.395 35.193,-12.084 4.066,-9.259 -45.031,-96.358 -0.603,-1.291 0.701,-1.226 5.978,-10.638 0.504,-0.854 0.907,-0.372 27.43,-10.639 7.38,-17.73 -14.278,-34.499 -0.448,-1.094 0.481,-1.094 12.89,-29.092 0.459,-1.071 1.082,-0.417 82.662,-31.455 17.406,-38.023 -31.673,-69.982 -0.513,-1.139 0.491,-1.136 63.028,-142.284 0.47,-1.051 1.093,-0.415 51.952,-19.351 h 15.875 l -64.82,24.144 z m -18.401,-1.818 28.022,63.984 0.501,1.161 -0.501,1.116 -17.494,38.81 -0.481,1.029 -1.039,0.394 -84.028,32.856 -11.972,28.019 -0.48,1.139 -1.148,0.394 -45.676,15.76 -3.314,9.195 45.065,96.445 0.535,1.138 -0.513,1.139 -8.277,18.957 -0.459,1.049 -1.071,0.417 -52.684,20.357 -6.965,18.08 30.809,67.772 0.503,1.116 -0.492,1.159 -67.117,154.497 29.465,61.577 h -6.146 l -28.85,-60.308 -0.557,-1.159 0.524,-1.161 67.137,-154.54 -30.787,-67.705 -0.47,-1.073 0.406,-1.094 7.827,-20.313 0.448,-1.138 1.137,-0.44 52.763,-20.4 7.312,-16.701 -45.02,-96.338 -0.492,-1.051 0.405,-1.071 4.131,-11.537 0.459,-1.269 1.236,-0.437 45.777,-15.76 11.927,-27.954 0.47,-1.074 1.093,-0.437 84.039,-32.856 16.52,-36.644 -28.03,-63.983 -0.493,-1.139 0.502,-1.136 67.161,-151.499 0.459,-1.051 1.071,-0.417 21.472,-8.274 h 15.348 l -33.771,13.026 z m -104.45,145.94 c 0,9.762 -7.906,17.708 -17.614,17.708 -9.718,0 -17.635,-7.946 -17.635,-17.708 0,-9.764 7.917,-17.665 17.635,-17.665 9.708,0 17.614,7.901 17.614,17.665 m 9.531,40.977 c 9.72,0 17.626,7.946 17.626,17.708 0,9.764 -7.906,17.688 -17.626,17.688 -9.728,0 -17.634,-7.924 -17.634,-17.688 0,-9.762 7.906,-17.708 17.634,-17.708 m 9.337,158.613 c 0,9.762 -7.904,17.686 -17.623,17.686 -9.72,0 -17.623,-7.924 -17.623,-17.686 0,-9.764 7.903,-17.71 17.623,-17.71 9.719,0 17.623,7.946 17.623,17.71 m -45.698,-75.915 c 9.719,0 17.645,7.926 17.645,17.71 0,9.739 -7.926,17.686 -17.645,17.686 -9.709,0 -17.623,-7.947 -17.623,-17.686 0,-9.784 7.914,-17.71 17.623,-17.71 m -1.794,-348.307 c 4.494,3.239 7.467,8.493 7.467,14.446 0,9.764 -7.914,17.708 -17.634,17.708 -9.717,0 -17.623,-7.944 -17.623,-17.708 0,-9.761 7.906,-17.707 17.623,-17.707 1.816,0 3.553,0.284 5.206,0.809 l 9.751,-24.473 -26.054,-56.782 h 6.068 l 25.474,55.556 0.515,1.074 -0.448,1.116 z m -114.026,25.611 25.67,11.185 c 2.94,-5.648 8.844,-9.544 15.633,-9.544 9.731,0 17.612,7.924 17.612,17.688 0,9.784 -7.881,17.708 -17.612,17.708 -9.731,0 -17.635,-7.924 -17.635,-17.708 0,-0.964 0.11,-1.928 0.262,-2.847 l -27.081,-11.819 -0.96,-0.395 -0.448,-0.941 -22.424,-47.829 -0.535,-1.117 0.49,-1.138 27.039,-62.561 h 6.012 l -27.484,63.589 z m 228.219,51.703 27.596,64.006 0.459,1.116 -0.459,1.049 -12.42,29.597 -0.47,1.094 -1.149,0.415 -77.284,27.734 -0.896,0.307 -0.907,-0.285 -32.231,-10.79 -36.164,13.132 -25.243,57.352 28.917,62.145 0.524,1.116 -0.47,1.159 -37.708,87.997 38.55,81.562 0.568,1.159 -0.524,1.161 -68.482,154.038 30.294,63.874 h -6.124 l -29.703,-62.628 -0.546,-1.181 0.512,-1.161 68.494,-154.036 -38.549,-81.539 -0.546,-1.139 0.492,-1.139 37.685,-88.017 -28.917,-62.168 -0.526,-1.138 0.515,-1.159 26.217,-59.606 0.47,-1.074 1.115,-0.372 38.189,-13.877 0.907,-0.327 0.907,0.304 32.219,10.793 75.249,-26.99 11.491,-27.362 -27.594,-64.051 -0.481,-1.116 0.492,-1.116 70.559,-159.86 h 7.413 l -1.63,0.592 z m -262.756,523.426 0.512,-1.161 24.829,-56.826 0.439,-0.984 0.994,-0.437 25.462,-11.23 c -0.591,-1.751 -0.929,-3.679 -0.929,-5.649 0,-9.762 7.904,-17.708 17.634,-17.708 9.709,0 17.624,7.946 17.624,17.708 0,9.764 -7.915,17.71 -17.624,17.71 -5.772,0 -10.899,-2.824 -14.114,-7.137 l -24.849,10.946 -23.911,54.659 54.751,115.621 h -6.112 l -54.171,-114.375 z m 34.23,37.781 0.11,-0.831 1.683,-10.946 c -6.408,-2.649 -10.933,-8.997 -10.933,-16.352 0,-9.761 7.904,-17.707 17.612,-17.707 9.731,0 17.635,7.946 17.635,17.707 0,9.742 -7.904,17.688 -17.635,17.688 -0.425,0 -0.864,-0.045 -1.289,-0.087 l -1.487,9.697 37.544,78.562 h -6.135 l -36.745,-76.942 z m 8.79,-69.258 c 0,-9.742 7.915,-17.71 17.635,-17.71 9.719,0 17.623,7.968 17.623,17.71 0,9.762 -7.904,17.708 -17.623,17.708 -9.72,0 -17.635,-7.946 -17.635,-17.708 m 287.858,-243.918 28.447,61.204 0.537,1.139 -0.526,1.181 -35.88,80.378 -0.471,1.052 -1.092,0.416 -73.436,27.295 -73.545,164.087 25.955,54.155 H -29.3 L -54.664,-4.4 l -0.557,-1.159 0.526,-1.161 74.539,-166.295 0.471,-1.074 1.092,-0.414 73.447,-27.32 34.886,-78.145 -28.447,-61.224 -0.537,-1.162 0.526,-1.161 135.26,-297.96 0.481,-1.029 1.059,-0.417 231.721,-85.852 c 1.278,1.446 2.503,2.957 3.661,4.533 l -232.386,86.114 z m -18.454,-0.217 -0.493,1.028 -1.059,0.415 -45.788,17.578 -7.377,18.519 39.487,82.064 0.625,1.269 -0.679,1.226 -11.031,20.796 -0.482,0.897 -0.951,0.372 -51.395,20.38 -76.321,171.044 25.856,55.536 h -6.099 l -25.288,-54.332 -0.537,-1.136 0.526,-1.162 77.282,-173.234 0.461,-1.029 1.048,-0.437 51.493,-20.402 9.917,-18.649 -39.423,-81.889 -0.537,-1.096 0.459,-1.139 8.289,-20.772 0.437,-1.139 1.137,-0.437 45.862,-17.6 138.934,-308.009 0.459,-1.052 1.081,-0.414 229.609,-86.596 c 1.946,1.161 3.838,2.43 5.674,3.766 l -232.276,87.622 z M -46.081,-714.107 c -9.709,0 -17.635,-7.923 -17.635,-17.708 0,-9.741 7.926,-17.665 17.635,-17.665 1.486,0 2.897,0.197 4.285,0.527 l 1.073,-2.475 h 6.023 l -2.033,4.64 c 4.963,3.154 8.275,8.668 8.275,14.973 0,9.785 -7.904,17.708 -17.623,17.708 m 109.383,423.019 c 0,-9.784 7.903,-17.708 17.601,-17.708 9.731,0 17.645,7.924 17.645,17.708 0,9.741 -7.914,17.688 -17.645,17.688 -9.698,0 -17.601,-7.947 -17.601,-17.688 m 62.818,-48.464 27.137,65.428 0.49,1.116 -0.513,1.074 -38.648,85.916 -0.492,1.117 -1.147,0.372 -76.113,25.938 -66.658,154.346 24.26,52.776 h -6.09 l -23.691,-51.573 -0.524,-1.138 0.492,-1.139 67.63,-156.598 0.481,-1.139 1.158,-0.372 76.158,-25.961 37.663,-83.727 -27.135,-65.407 -0.47,-1.116 0.492,-1.094 129.727,-286.888 0.482,-1.028 1.05,-0.393 226.535,-87.602 c 0.898,1.618 1.675,3.304 2.427,4.99 l -225.924,87.384 z m -81.416,-67.946 c 0,9.764 -7.903,17.687 -17.634,17.687 -9.709,0 -17.623,-7.923 -17.623,-17.687 0,-9.784 7.914,-17.708 17.623,-17.708 9.731,0 17.634,7.924 17.634,17.708 m 134.201,83.926 c 9.728,0 17.634,7.946 17.634,17.708 0,9.741 -7.906,17.688 -17.634,17.688 -9.709,0 -17.624,-7.947 -17.624,-17.688 0,-9.762 7.915,-17.708 17.624,-17.708 M 334.87,-714.544 c -8.812,0 -16.094,-6.523 -17.415,-14.993 l -17.274,-0.417 h -0.427 l -0.426,-0.132 -55.648,-19.524 -91.386,34.344 -58.349,129.893 32.132,69.063 0.524,1.159 -0.513,1.139 -66.7,149.221 -0.481,1.074 -1.073,0.394 -59.135,22.218 -8.264,19.918 41.314,86.661 0.536,1.096 -0.471,1.139 -4.59,11.534 -0.439,1.117 -1.126,0.417 -43.567,17.161 -85.056,191.359 27.693,59.234 h -6.1 l -27.125,-58.03 -0.524,-1.159 0.504,-1.139 86.027,-193.572 0.461,-1.028 1.06,-0.415 43.513,-17.119 3.705,-9.302 -41.348,-86.683 -0.535,-1.116 0.493,-1.139 9.193,-22.175 0.448,-1.094 1.126,-0.437 59.191,-22.24 65.704,-146.989 -32.13,-69.063 -0.515,-1.159 0.515,-1.161 59.354,-132.125 0.471,-1.052 1.081,-0.394 83.482,-31.368 h 22.435 l 45.524,15.958 16.748,0.394 c 1.345,-8.428 8.615,-14.886 17.383,-14.886 9.72,0 17.635,7.946 17.635,17.71 0,9.762 -7.915,17.708 -17.635,17.708 m -149.68,30.798 c 0,-9.784 7.914,-17.707 17.623,-17.707 9.731,0 17.634,7.923 17.634,17.707 0,9.742 -7.903,17.688 -17.634,17.688 -9.709,0 -17.623,-7.946 -17.623,-17.688 m -35.126,111.331 c 0,9.764 -7.926,17.688 -17.624,17.688 -9.73,0 -17.634,-7.924 -17.634,-17.688 0,-9.784 7.904,-17.707 17.634,-17.707 9.698,0 17.624,7.923 17.624,17.707 m -8.889,-63.436 c 9.708,0 17.623,7.946 17.623,17.687 0,9.784 -7.915,17.71 -17.623,17.71 -9.72,0 -17.623,-7.926 -17.623,-17.71 0,-9.741 7.903,-17.687 17.623,-17.687 m -233.194,626.594 0.535,-1.161 82.803,-183.873 0.493,-1.051 1.072,-0.395 51.24,-18.956 3.325,-9.26 -44.146,-94.125 -0.558,-1.161 0.535,-1.181 5.533,-12.017 0.481,-1.029 1.059,-0.395 58.262,-21.78 119.1,-269.462 -27.101,-62.626 -0.504,-1.138 0.535,-1.139 9.666,-20.772 0.482,-1.074 1.081,-0.372 46.923,-16.636 0.918,-0.305 0.909,0.285 33.192,11.534 c 3.125,-4.882 8.582,-8.143 14.791,-8.143 9.719,0 17.634,7.946 17.634,17.73 0,9.764 -7.915,17.688 -17.634,17.688 -9.709,0 -17.624,-7.924 -17.624,-17.688 0,-1.553 0.22,-3.041 0.592,-4.465 l -31.837,-11.097 -44.922,15.934 -8.649,18.607 27.103,62.605 0.482,1.094 -0.493,1.139 -120.074,271.629 -0.459,1.072 -1.104,0.394 -58.273,21.781 -4.494,9.807 44.06,93.993 0.504,1.028 -0.406,1.074 -4.133,11.557 -0.437,1.204 -1.202,0.437 -51.361,19.001 -81.811,181.663 27.376,57.833 h -6.11 l -26.797,-56.63 z m 72.701,5.077 0.526,-1.182 64.864,-144.122 0.459,-1.006 1.028,-0.417 74.942,-30.099 36.801,-73.898 0.437,-0.919 0.929,-0.394 44.541,-18.979 12.386,-28.259 -24.752,-48.181 c -2.864,5.846 -8.856,9.874 -15.777,9.874 -9.717,0 -17.612,-7.946 -17.612,-17.687 0,-9.762 7.895,-17.708 17.612,-17.708 9.469,0 17.198,7.529 17.593,16.963 l 28.446,55.359 0.591,1.183 -0.526,1.204 -13.338,30.491 -0.448,1.006 -1.005,0.44 -44.606,18.999 -36.811,73.945 -0.459,0.919 -0.972,0.394 -74.9,30.077 -63.882,141.954 24.524,52.754 H 5.172 l -23.964,-51.55 z m 439.627,-56.453 c -3.105,5.122 -8.68,8.536 -15.055,8.536 -9.728,0 -17.623,-7.946 -17.623,-17.708 0,-9.764 7.895,-17.71 17.623,-17.71 9.72,0 17.615,7.946 17.615,17.71 0,1.379 -0.175,2.735 -0.482,4.028 l 28.928,12.609 0.952,0.414 0.448,0.942 27.824,59.276 0.752,0.307 c -0.732,1.708 -1.551,3.372 -2.404,5.012 l -1.411,-0.547 -1.005,-0.414 -0.47,-0.987 -27.845,-59.341 z m -62.972,23.639 0.273,-0.634 c -3.027,5.406 -8.779,9.085 -15.393,9.085 -9.709,0 -17.624,-7.946 -17.624,-17.708 0,-9.764 7.915,-17.688 17.624,-17.688 9.719,0 17.634,7.924 17.634,17.688 0,1.86 -0.295,3.654 -0.83,5.339 l 0.515,-1.181 31.758,13.857 0.929,0.415 0.448,0.941 35.564,74.819 c -1.945,0.242 -3.925,0.372 -5.904,0.46 l -34.196,-71.95 z m 124.512,-450.291 0.275,1.007 -0.427,0.941 -7.597,16.637 -0.45,1.006 -1.006,0.395 -48.334,19.416 -0.918,0.372 -0.962,-0.33 -30.798,-10.286 c -3.137,4.947 -8.636,8.273 -14.89,8.273 -9.73,0 -17.634,-7.946 -17.634,-17.708 0,-9.764 7.904,-17.687 17.634,-17.687 9.72,0 17.613,7.923 17.613,17.687 0,1.509 -0.186,2.932 -0.535,4.311 l 29.409,9.851 46.332,-18.629 6.69,-14.686 -6.58,-22.548 -0.318,-1.028 0.45,-0.942 16.858,-35.832 v 12.98 l -11.415,24.253 z m -22.619,-5.209 c 0,9.739 -7.915,17.686 -17.634,17.686 -9.709,0 -17.624,-7.947 -17.624,-17.686 0,-9.786 7.915,-17.71 17.624,-17.71 1.892,0 3.716,0.307 5.411,0.854 l 39.654,-84.691 v 13.068 l -34.723,74.185 c 4.406,3.194 7.292,8.406 7.292,14.294 m -244.302,280.997 1.048,-0.417 45.864,-17.598 61.135,-135.037 -56.084,-126.349 -0.514,-1.159 0.546,-1.138 39.884,-85.523 c -1.543,-2.627 -2.439,-5.671 -2.439,-8.932 0,-9.784 7.904,-17.708 17.612,-17.708 9.742,0 17.635,7.924 17.635,17.708 0,9.741 -7.893,17.688 -17.635,17.688 -4.274,0 -8.199,-1.534 -11.248,-4.116 l -38.277,82.064 56.063,126.349 0.513,1.136 -0.513,1.161 -62.108,137.183 -0.47,1.028 -1.073,0.417 -45.862,17.598 -115.952,255.673 h -6.067 l 117.461,-258.999 z m 13.809,11.075 1.047,-0.392 45.875,-17.6 65.268,-143.378 -54.728,-127.77 -0.482,-1.139 0.535,-1.136 28.973,-60.985 0.468,-0.986 1.019,-0.394 51.383,-20.358 9.85,-22.152 c -4.953,-3.152 -8.253,-8.668 -8.253,-14.971 0,-9.764 7.904,-17.711 17.634,-17.711 9.709,0 17.612,7.947 17.612,17.711 0,9.761 -7.903,17.685 -17.612,17.685 -1.498,0 -2.919,-0.175 -4.285,-0.547 l -10.344,23.247 -0.471,1.051 -1.048,0.417 -51.416,20.377 -27.988,58.862 54.697,127.728 0.49,1.136 -0.513,1.116 -66.252,145.503 -0.47,1.049 -1.039,0.395 -45.873,17.62 -111.755,244.575 h -6.056 L 228.255,-199.37 Z m 31.912,176.803 c 0,-9.761 7.904,-17.685 17.623,-17.685 9.709,0 17.624,7.924 17.624,17.685 0,1.249 -0.121,2.497 -0.383,3.656 l 24.719,11.143 0.94,0.414 0.437,0.942 25.899,55.995 H 341.42 L 317.039,-4.18 293.511,-14.774 c -3.049,5.297 -8.712,8.865 -15.239,8.865 -9.719,0 -17.623,-7.946 -17.623,-17.71 m 107.796,17.885 c 9.719,0 17.623,7.946 17.623,17.686 0,4.839 -1.946,9.217 -5.071,12.413 l 11.412,24.166 h -6.11 l -9.841,-20.817 c -2.405,1.226 -5.127,1.948 -8.013,1.948 -9.72,0 -17.635,-7.946 -17.635,-17.71 0,-9.74 7.915,-17.686 17.635,-17.686 m 109.338,-28.5 c 0,-6.546 3.607,-12.194 8.878,-15.279 v 30.601 c -5.291,-3.044 -8.878,-8.777 -8.878,-15.322 M 304.509,16.879 c 9.709,0 17.603,7.946 17.603,17.707 0,5.669 -2.657,10.704 -6.811,13.945 h -21.548 c -4.156,-3.241 -6.878,-8.253 -6.878,-13.945 0,-9.761 7.906,-17.707 17.634,-17.707 M 414.298,-11.14 c 0,-9.764 7.915,-17.71 17.634,-17.71 9.706,0 17.623,7.946 17.623,17.71 0,5.669 -2.691,10.725 -6.844,13.964 l 13.687,28.938 4.997,2.125 c -1.695,1.356 -3.423,2.625 -5.226,3.808 l -2.886,-1.248 -0.974,-0.415 -0.459,-0.941 -13.982,-29.595 c -1.847,0.677 -3.849,1.049 -5.936,1.049 -9.719,0 -17.634,-7.946 -17.634,-17.685 m -171.765,-178.227 1.104,-0.394 53.833,-19.394 0.895,-0.329 0.907,0.307 11.48,3.853 42.246,-15.892 8.602,-17.293 -27.112,-63.962 -0.471,-1.116 0.524,-1.138 25.704,-55.688 -46.43,-106.951 -0.504,-1.119 0.504,-1.116 20.706,-47.105 0.099,0.022 c -1.968,-2.847 -3.106,-6.283 -3.106,-9.984 0,-9.784 7.893,-17.73 17.624,-17.73 9.708,0 17.612,7.946 17.612,17.73 0,9.764 -7.904,17.666 -17.612,17.666 -3.925,0 -7.512,-1.291 -10.452,-3.459 l -19.33,43.999 46.442,106.975 0.482,1.139 -0.513,1.116 -25.715,55.708 27.125,64.006 0.513,1.182 -0.58,1.161 -9.652,19.393 -0.493,0.964 -1.016,0.415 -44.17,16.616 -0.906,0.35 -0.93,-0.33 -11.51,-3.851 -51.834,18.692 -105.106,233.455 h -6.079 L 242.063,-188.295 Z M 21.801,-563.964 c 8.287,1.401 14.628,8.668 14.628,17.423 0,9.742 -7.904,17.688 -17.635,17.688 -9.719,0 -17.634,-7.946 -17.634,-17.688 0,-3.196 0.842,-6.128 2.306,-8.71 l -13.535,-31.72 72.495,-164.457 H 84.042 L 12.006,-585.57 Z m -265.228,546.037 c -9.73,0 -17.645,-7.947 -17.645,-17.708 0,-9.742 7.915,-17.688 17.645,-17.688 9.709,0 17.613,7.946 17.613,17.688 0,9.761 -7.904,17.708 -17.613,17.708 m -41.381,-25.085 0.58,-1.204 5.51,-11.557 0.481,-0.986 1.028,-0.395 35.289,-13.462 46.456,-104.282 0.436,-1.006 1.061,-0.417 21.088,-8.383 c -0.195,-1.094 -0.327,-2.233 -0.327,-3.394 0,-9.739 7.926,-17.665 17.634,-17.665 9.72,0 17.624,7.926 17.624,17.665 0,9.764 -7.904,17.733 -17.624,17.733 -6.614,0 -12.386,-3.701 -15.404,-9.13 l -19.919,7.924 -46.464,104.283 -0.47,1.052 -1.072,0.414 -35.312,13.463 -4.462,9.347 44.453,91.543 h -6.144 l -43.851,-90.339 z m 68.964,46.493 c 9.72,0 17.634,7.946 17.634,17.708 0,9.764 -7.914,17.71 -17.634,17.71 -9.731,0 -17.612,-7.946 -17.612,-17.71 0,-9.762 7.881,-17.708 17.612,-17.708 m 122.065,-710.8 c 0,9.784 -7.895,17.707 -17.614,17.707 -9.729,0 -17.635,-7.923 -17.635,-17.707 0,-9.764 7.906,-17.688 17.635,-17.688 1.717,0 3.389,0.262 4.974,0.722 l 1.915,-4.99 -10.168,-22.153 h 6.077 l 9.59,20.905 0.49,1.093 -0.425,1.052 -2.481,6.48 c 4.612,3.174 7.642,8.536 7.642,14.579 m 429.415,521.564 c 0,-9.762 7.915,-17.708 17.624,-17.708 9.73,0 17.634,7.946 17.634,17.708 0,9.741 -7.904,17.687 -17.634,17.687 -9.709,0 -17.624,-7.946 -17.624,-17.687 m -73.151,19.855 c 0,-9.764 7.904,-17.688 17.612,-17.688 9.731,0 17.635,7.924 17.635,17.688 0,9.762 -7.904,17.708 -17.635,17.708 -9.708,0 -17.612,-7.946 -17.612,-17.708 m 81.263,-77.599 c 0,9.762 -7.906,17.686 -17.634,17.686 -9.709,0 -17.612,-7.924 -17.612,-17.686 0,-9.764 7.903,-17.71 17.612,-17.71 9.728,0 17.634,7.946 17.634,17.71 m 121.167,10.616 c 0,-9.764 7.904,-17.688 17.624,-17.688 1.421,0 2.787,0.197 4.122,0.527 v 34.322 c -1.335,0.329 -2.701,0.547 -4.122,0.547 -9.72,0 -17.624,-7.946 -17.624,-17.708 M 61.573,-30.229 c 9.731,0 17.635,7.924 17.635,17.688 0,9.762 -7.904,17.708 -17.635,17.708 -9.717,0 -17.623,-7.946 -17.623,-17.708 0,-9.764 7.906,-17.688 17.623,-17.688 m 140.947,-192.366 1.081,-0.416 44.442,-16.22 55.624,-125.318 -61.626,-143.006 -0.493,-1.138 0.515,-1.139 45.546,-99.774 0.468,-1.028 1.05,-0.415 115.941,-44.348 0.952,-0.35 0.951,0.327 31.006,10.968 c 2.963,-5.584 8.822,-9.434 15.591,-9.434 9.697,0 17.612,7.966 17.612,17.707 0,9.785 -7.915,17.688 -17.612,17.688 -9.72,0 -17.624,-7.903 -17.624,-17.688 0,-1.028 0.097,-2.035 0.262,-3.021 l -30.119,-10.638 -113.93,43.584 -44.564,97.626 61.618,143.005 0.482,1.117 -0.482,1.116 -56.598,127.485 -0.459,1.074 -1.126,0.395 -44.454,16.241 L 84.566,48.531 h -6.09 l 123.562,-270.076 z m -490.738,130.133 c 0,-9.739 7.915,-17.685 17.634,-17.685 9.729,0 17.624,7.946 17.624,17.685 0,9.764 -7.895,17.733 -17.624,17.733 -9.719,0 -17.634,-7.969 -17.634,-17.733 m -4.899,-369.321 0.929,-0.262 0.875,0.349 42.528,16.854 c 1.552,-0.437 3.193,-0.677 4.877,-0.677 9.72,0 17.635,7.924 17.635,17.686 0,9.764 -7.915,17.71 -17.635,17.71 -9.72,0 -17.612,-7.946 -17.612,-17.71 0,-5.449 2.458,-10.331 6.33,-13.57 l -37.26,-14.776 -13.907,4.225 -0.873,0.262 -0.864,-0.307 -1.946,-0.701 v -5.909 l 2.962,1.071 z m 28.984,-21.781 c -9.731,0 -17.646,-7.968 -17.646,-17.73 0,-9.741 7.915,-17.688 17.646,-17.688 9.717,0 17.623,7.947 17.623,17.688 0,9.762 -7.906,17.73 -17.623,17.73 m 26.926,135.542 0.471,0.941 5.772,11.295 c 1.596,-0.459 3.269,-0.724 5.006,-0.724 9.72,0 17.624,7.946 17.624,17.688 0,9.784 -7.904,17.708 -17.624,17.708 -9.717,0 -17.634,-7.924 -17.634,-17.708 0,-6.021 3.029,-11.36 7.664,-14.557 l -5.226,-10.243 -68.886,-26.466 v -5.933 l 71.851,27.604 z m -24.992,393.751 c -9.883,-2.934 -18.771,-8.143 -26.163,-14.973 2.549,-1.424 5.446,-2.32 8.572,-2.32 9.578,0 17.361,7.726 17.591,17.293 m -27.112,-56.892 c 0,9.173 -6.977,16.679 -15.875,17.578 -3.105,-7.749 -4.854,-16.177 -4.854,-25.019 v -9.939 c 1.006,-0.175 2.045,-0.307 3.104,-0.307 9.708,0 17.625,7.946 17.625,17.687 m -5.206,-432.518 c 9.72,0 17.635,7.924 17.635,17.708 0,9.742 -7.915,17.688 -17.635,17.688 -6.743,0 -12.549,-3.876 -15.523,-9.479 v -21.691 l 2.875,1.158 c 3.204,-3.304 7.685,-5.384 12.648,-5.384 m 38.769,-174.525 26.774,10.923 c 3.007,-5.452 8.8,-9.173 15.436,-9.173 9.72,0 17.635,7.924 17.635,17.708 0,9.742 -7.915,17.688 -17.635,17.688 -9.719,0 -17.634,-7.946 -17.634,-17.688 0,-1.116 0.132,-2.232 0.34,-3.304 l -28.021,-11.449 -1.028,-0.415 -0.459,-1.009 -19.657,-43.646 -0.503,-1.096 0.47,-1.137 37.817,-90.624 h 5.989 l -38.253,91.653 z m -21.275,26.705 c 9.72,0 17.623,7.924 17.623,17.685 0,9.764 -7.903,17.731 -17.623,17.731 -9.72,0 -17.623,-7.967 -17.623,-17.731 0,-1.51 0.206,-2.976 0.557,-4.377 l -15.951,-5.604 v -5.866 l 18.159,6.37 c 3.137,-4.926 8.615,-8.208 14.858,-8.208 m -17.066,-57.571 -0.11,0.045 c 4.351,3.217 7.194,8.406 7.194,14.227 0,9.784 -7.894,17.71 -17.623,17.71 -1.892,0 -3.708,-0.394 -5.412,-0.941 v -33.513 c 1.704,-0.549 3.52,-0.942 5.412,-0.942 1.574,0 3.094,0.24 4.559,0.612 l -2.571,-17.138 -0.118,-0.767 0.304,-0.744 31.902,-75.016 c 2.339,-1.052 4.735,-1.993 7.194,-2.78 l -33.704,79.262 z m 76.736,441.121 c 0,-9.741 7.904,-17.688 17.623,-17.688 9.709,0 17.624,7.947 17.624,17.688 0,9.762 -7.915,17.708 -17.624,17.708 -9.719,0 -17.623,-7.946 -17.623,-17.708 m -77.009,-282.705 c 0,9.085 -6.878,16.527 -15.678,17.491 v -35.004 c 8.8,1.009 15.678,8.428 15.678,17.513 m 673.849,380.793 c -9.719,0 -17.623,-7.923 -17.623,-17.687 0,-9.762 7.904,-17.708 17.623,-17.708 9.718,0 17.635,7.946 17.635,17.708 0,9.764 -7.917,17.687 -17.635,17.687 m 90.632,35.571 c -9.731,0 -17.624,-7.924 -17.624,-17.688 0,-9.762 7.893,-17.685 17.624,-17.685 7.642,0 14.103,4.924 16.542,11.774 v 14.973 l -1.16,-0.482 c -3.016,5.429 -8.768,9.108 -15.382,9.108 m 7.216,-299.956 c 0,-6.74 3.793,-12.519 9.326,-15.498 v 31.018 c -5.533,-2.999 -9.326,-8.777 -9.326,-15.52 m -11.426,68.976 c 4.308,3.239 7.118,8.383 7.118,14.184 0,9.741 -7.915,17.688 -17.634,17.688 -9.731,0 -17.624,-7.947 -17.624,-17.688 0,-9.784 7.893,-17.708 17.624,-17.708 1.968,0 3.871,0.35 5.642,0.941 l 10.866,-21.211 0.492,-0.919 0.972,-0.394 13.296,-5.19 v 5.934 l -10.331,4.028 z m 20.096,-124.092 c -1.642,8.054 -8.768,14.162 -17.263,14.162 -9.72,0 -17.635,-7.946 -17.635,-17.708 0,-9.764 7.915,-17.688 17.635,-17.688 7.588,0 14.036,4.815 16.53,11.58 l 1.389,-2.54 v 11.492 l -0.437,0.789 z M 315.071,-87.208 c -9.709,0 -17.635,-7.946 -17.635,-17.708 0,-9.764 7.926,-17.71 17.635,-17.71 9.72,0 17.623,7.946 17.623,17.71 0,9.762 -7.903,17.708 -17.623,17.708 m -537.202,-572.524 c 0,9.764 -7.926,17.71 -17.624,17.71 -9.728,0 -17.623,-7.946 -17.623,-17.71 0,-7.662 4.865,-14.162 11.643,-16.637 l 30.426,-75.059 h 5.958 l -30.009,74.01 c 9.533,0.218 17.229,8.054 17.229,17.686 m -59.343,509.547 c 0,9.764 -7.915,17.688 -17.633,17.688 -4.155,0 -7.917,-1.489 -10.933,-3.919 v -27.624 c 3.016,-2.387 6.8,-3.853 10.933,-3.853 9.718,0 17.633,7.946 17.633,17.708 m 133.403,-117.699 32.611,-74.447 -28.928,-63.547 -0.513,-1.116 0.491,-1.139 29.891,-70.221 0.481,-1.117 1.138,-0.394 86.925,-30.908 c 1.782,-7.859 8.811,-13.747 17.176,-13.747 9.708,0 17.612,7.946 17.612,17.687 0,9.764 -7.904,17.708 -17.612,17.708 -9.03,0 -16.497,-6.872 -17.516,-15.65 l -83.601,29.727 -28.95,67.967 28.939,63.566 0.513,1.139 -0.493,1.139 -33.585,76.679 -0.47,1.074 -1.093,0.392 -121.004,44.83 -0.951,0.352 -0.938,-0.352 -42.092,-15.19 v -5.889 l 43.01,15.52 z m 547.336,-471.614 c -7.709,0 -14.202,-5.012 -16.576,-11.93 h 33.183 c -2.396,6.918 -8.889,11.93 -16.607,11.93 m -669.499,603.17 16.094,-34.17 0.732,0.81 c -0.186,-1.029 -0.307,-2.078 -0.307,-3.152 0,-9.742 7.915,-17.688 17.623,-17.688 9.731,0 17.646,7.946 17.646,17.688 0,9.762 -7.915,17.708 -17.646,17.708 -1.88,0 -3.674,-0.305 -5.378,-0.852 l 0.218,0.24 -15.656,30.973 -38.625,15.717 -5.522,13.376 12.409,27.252 -12.409,28.193 -8.985,3.372 v -23.926 l 3.914,-8.099 -3.914,-8.45 v -35.746 l 3.914,-8.011 z m 714.902,-252.496 -1.006,-0.395 -26.064,-10.463 c -2.974,5.604 -8.822,9.412 -15.568,9.412 -9.708,0 -17.623,-7.924 -17.623,-17.688 0,-9.784 7.915,-17.708 17.623,-17.708 9.731,0 17.634,7.924 17.634,17.708 0,1.029 -0.109,2.038 -0.273,3.022 l 25.33,10.178 41.94,-15.717 v 5.911 l -40.999,15.368 z"
       style="opacity:0.15;fill:#dcdddd;fill-opacity:1;fill-rule:nonzero;stroke:none"
       transform="matrix(0.63762942,0,0,-0.63762942,197.69063,-81.218904)"
       clip-path="url(#clipPath101)" />
  </g>
</svg>
