<?xml version="1.0" encoding="UTF-8" standalone="no"?>
<svg
   id="图层_1"
   data-name="图层 1"
   viewBox="0 0 512 512"
   version="1.1"
   width="512"
   height="512"
   sodipodi:docname="openharmony.svg"
   inkscape:export-filename="openharmony.png"
   inkscape:export-xdpi="96"
   inkscape:export-ydpi="96"
   inkscape:version="1.4.2 (unknown)"
   xmlns:inkscape="http://www.inkscape.org/namespaces/inkscape"
   xmlns:sodipodi="http://sodipodi.sourceforge.net/DTD/sodipodi-0.dtd"
   xmlns="http://www.w3.org/2000/svg"
   xmlns:svg="http://www.w3.org/2000/svg">
  <sodipodi:namedview
     id="namedview1"
     pagecolor="#ffffff"
     bordercolor="#000000"
     borderopacity="0.25"
     inkscape:showpageshadow="2"
     inkscape:pageopacity="0.0"
     inkscape:pagecheckerboard="0"
     inkscape:deskcolor="#d1d1d1"
     inkscape:zoom="2.3691406"
     inkscape:cx="255.78895"
     inkscape:cy="256"
     inkscape:window-width="2560"
     inkscape:window-height="1494"
     inkscape:window-x="0"
     inkscape:window-y="0"
     inkscape:window-maximized="1"
     inkscape:current-layer="图层_1" />
  <defs
     id="defs2">
    <style
       id="style1">.cls-1{fill-rule:evenodd;fill:url(#未命名的渐变);}.cls-2{isolation:isolate;}</style>
    <linearGradient
       id="未命名的渐变"
       x1="213.92999"
       y1="-1164.0601"
       x2="513.91998"
       y2="-1164.0601"
       gradientTransform="matrix(1.6058925,0,0,-1.6058925,-329.23592,-1613.4917)"
       gradientUnits="userSpaceOnUse">
      <stop
         offset="0"
         stop-color="#3fa9f5"
         id="stop1" />
      <stop
         offset="0.9"
         stop-color="#7ac943"
         id="stop2" />
    </linearGradient>
  </defs>
  <path
     class="cls-1"
     d="m 407.61177,277.52688 h -40.1473 a 1.6058925,1.6058925 0 0 0 -1.6059,1.46137 v 0.49783 a 151.82107,151.82107 0 0 1 -3.21179,15.43262 l -1.22047,4.43226 v 0 l -0.546,1.89496 -0.59419,1.89495 -1.1723,3.51691 -0.69053,1.99131 -1.39713,3.66142 -0.65841,1.70225 -2.21613,5.23523 v 0 l -0.67448,1.42923 v 0 l -1.92707,4.09503 a 155.96427,155.96427 0 0 1 -23.97598,35.00846 l -3.96655,4.22349 -4.56073,4.51256 -0.72266,0.65842 -4.19138,3.88625 -1.7183,1.46137 -3.43661,2.81032 -1.9913,1.60588 -3.4045,2.55337 -2.05554,1.47743 -3.69356,2.48913 -1.89494,1.25259 -4.91404,3.01908 -0.80295,0.48177 -5.87756,3.21177 -1.7986,0.8993 -4.25562,2.08767 -2.26431,1.02777 -3.98261,1.7183 -2.39278,0.97959 -4.09502,1.6059 -2.32854,0.85112 -4.81769,1.60589 -1.73436,0.56207 -6.61627,1.7986 -1.46137,0.33723 -5.28338,1.1723 -2.39279,0.43359 -4.48043,0.77083 -2.63366,0.38542 -4.44833,0.546 -2.63366,0.273 -4.81768,0.3533 -2.28036,0.12847 -7.14622,0.17665 a 155.06497,155.06497 0 0 1 0,-310.12995 l 7.16227,0.17665 2.28037,0.12847 4.81768,0.3533 2.6176,0.273 4.44833,0.52995 2.63366,0.38541 4.48043,0.77083 2.40885,0.44964 5.28338,1.17231 1.46137,0.33723 6.60021,1.7986 1.73436,0.54601 4.81769,1.60589 2.31248,0.85112 4.11108,1.6059 2.39278,0.97959 3.96656,1.71831 2.28036,1.02777 4.25562,2.08765 1.7986,0.89931 5.87756,3.21178 0.7869,0.48177 4.93009,3.01908 1.89494,1.23653 3.6775,2.5052 2.05554,1.47742 3.1315,2.02342 1.47741,1.1723 v 0 l 5.4761,4.51256 q 2.71396,2.3446 5.33156,4.81768 l 3.58114,3.53296 a 1.6058925,1.6058925 0 0 0 1.15624,0.46571 h 51.38856 a 1.6058925,1.6058925 0 0 0 1.41319,-2.56943 198.72919,198.72919 0 0 0 -14.45304,-18.78894 l -4.94614,-5.36368 v 0 l -1.5256,-1.60589 -1.6059,-1.70224 v 0 l -0.56206,-0.54601 -0.73871,-0.77083 c -2.24825,-2.23219 -4.54467,-4.43226 -6.88927,-6.55204 l -0.19271,-0.16059 -0.12848,-0.14453 -0.94747,-0.80294 -5.90969,-5.1228 -1.26865,-0.99566 -0.86718,-0.7387 -1.84678,-1.397136 -3.43661,-2.697894 -2.66578,-1.959195 -1.60589,-1.204416 h -0.0803 l -1.4453,-0.963531 -2.13584,-1.50954 -4.27168,-2.74608 -1.94313,-1.30077 h -0.0803 l -0.7387,-0.417531 -0.9796,-0.642363 c -2.71396,-1.605885 -5.49216,-3.211779 -8.30247,-4.817673 h -0.14453 l -0.11241,-0.08027 c -1.76648,-0.931425 -3.53296,-1.862841 -5.29945,-2.762142 l -2.10371,-1.011708 -0.88324,-0.465708 -0.78689,-0.353301 -1.60589,-0.770823 c -1.81466,-0.851124 -3.62932,-1.605894 -5.4761,-2.457018 l -0.56206,-0.240885 -0.33723,-0.144531 -0.80295,-0.305115 -3.8702,-1.605894 -3.37238,-1.268655 -0.94747,-0.369354 -0.48177,-0.160593 -0.85113,-0.321177 c -1.89494,-0.674478 -3.82202,-1.332894 -5.73303,-1.959187 l -1.41319,-0.433592 -0.72265,-0.240885 -1.01171,-0.289062 -2.64972,-0.819001 -5.52427,-1.509539 h -0.22483 v 0 h -0.0964 c -1.97525,-0.497832 -3.96655,-0.979594 -5.95786,-1.429248 l -2.45702,-0.513885 -1.02777,-0.224823 -0.81901,-0.160593 -1.7183,-0.353292 c -2.02342,-0.385416 -4.04685,-0.722655 -6.08633,-1.059894 l -0.72265,-0.09635 -0.41753,-0.08027 -0.94748,-0.112416 -4.1432,-0.770824 -3.88626,-0.433592 -1.01172,-0.12847 h -0.46571 l -0.85112,-0.08027 c -2.0716,-0.20877 -4.15926,-0.369362 -6.26297,-0.497832 l -1.6059,-0.08027 h -0.83506 -1.14019 l -2.74608,-0.128469 c -2.11967,8e-6 -4.22338,-0.112408 -6.42345,-0.112408 a 198.19924,198.19924 0 0 0 0,396.382425 c 2.13584,0 4.25561,0 6.42356,-0.11241 h 1.36501 0.88324 l 1.34896,-0.0803 2.71395,-0.12847 3.06726,-0.25695 1.39712,-0.25693 0.72266,-0.0803 1.092,-0.0803 c 2.0716,-0.19271 4.1432,-0.41753 6.19874,-0.69053 h 0.22484 0.16058 l 0.77083,-0.11242 4.99433,-0.70659 1.60588,-0.273 0.96354,-0.16058 1.23654,-0.24089 2.31248,-0.40148 3.34026,-0.69053 1.31683,-0.25694 0.56206,-0.12847 0.81901,-0.16059 c 1.99131,-0.43359 3.98261,-0.91536 5.9418,-1.42924 l 0.43359,-0.11242 h 0.30513 l 1.05988,-0.30512 4.07897,-1.10807 1.76648,-0.546 1.02777,-0.28906 1.10807,-0.36935 1.91101,-0.57813 3.62931,-1.23653 1.15625,-0.38541 0.38542,-0.14454 0.56206,-0.1927 c 1.89495,-0.67448 3.77384,-1.38107 5.65274,-2.10372 l 0.61023,-0.25695 0.4336,-0.17664 1.15624,-0.48177 3.35631,-1.38107 1.91101,-0.85112 1.07596,-0.46571 0.93142,-0.43359 1.60589,-0.70659 3.9505,-1.91101 0.88323,-0.41754 0.24089,-0.11241 0.32118,-0.16059 c 1.78254,-0.8993 3.54902,-1.81466 5.29944,-2.76213 l 0.49782,-0.28907 0.80295,-0.43359 c 2.36066,-1.28471 4.68921,-2.64972 7.00169,-4.03079 l 1.2526,-0.80294 0.7066,-0.41754 a 0.16058925,0.16058925 0 0 0 0.0803,0 l 1.28472,-0.83506 3.4366,-2.40884 3.83809,-2.64972 1.22048,-0.81901 h 0.0963 l 0.51389,-0.3854 0.94748,-0.65842 c 2.18401,-1.60589 4.31985,-3.21178 6.42356,-4.81767 l 0.94748,-0.77083 0.56206,-0.41753 h 0.0803 l 1.14019,-0.96353 3.48478,-2.8585 3.21178,-2.82636 1.14019,-0.9796 v 0 l 0.57812,-0.56207 1.04384,-0.91535 q 2.93877,-2.71396 5.76515,-5.57245 l 0.69053,-0.7066 0.40148,-0.40147 h 0.0803 l 0.94748,-1.04384 3.43661,-3.58114 2.56943,-2.8906 1.02777,-1.10806 v -0.0803 l 0.57812,-0.70659 1.09201,-1.22048 c 1.7183,-2.03948 3.42055,-4.11108 5.07462,-6.23086 l 0.43358,-0.59419 0.27301,-0.33723 0.73871,-1.02777 3.21178,-4.38409 1.99131,-2.90666 0.91536,-1.2526 0.77083,-1.1723 0.88324,-1.30077 a 197.09118,197.09118 0 0 0 21.51896,-43.5518 l 0.16059,-0.44966 v 0 -0.11241 l 0.77083,-2.4249 1.60589,-4.81767 0.17665,-0.61024 0.17664,-0.56206 0.72266,-2.71397 1.14018,-4.0629 0.1927,-0.83506 0.273,-0.94748 1.15625,-5.20308 0.25694,-1.10807 v 0 l 0.52995,-2.4249 c 0.59417,-2.92273 1.12412,-5.87756 1.60589,-8.84847 l 0.85113,-6.63234 a 1.6058925,1.6058925 0 0 0 -1.42925,-2.2643 z m -131.0087,-48.73883 1.75042,4.81768 h 44.62775 l -0.0803,-0.4336 a 112.23583,112.23583 0 0 0 -16.94217,-40.30789 l -1.84677,-2.56943 h -68.44314 l 0.77083,0.25694 a 69.808145,69.808145 0 0 1 40.16337,38.2363 z m 29.35571,90.07451 a 111.88253,111.88253 0 0 0 16.94217,-40.29185 l 0.12847,-0.86717 h -44.5314 l -1.91101,5.21915 a 69.808145,69.808145 0 0 1 -37.01582,37.01582 l -2.71396,1.07594 h 67.55989 z m 146.87493,-87.55326 0.24088,3.21179 h 42.9255 v -0.3533 a 285.39921,285.39921 0 0 0 -4.94614,-35.42599 l -1.75043,-7.53164 h -44.04963 l 1.26866,4.44833 a 241.67075,241.67075 0 0 1 6.31116,35.65081 z m 0.24088,46.15335 -0.24088,3.21179 a 239.5831,239.5831 0 0 1 -6.42357,35.68293 l -1.23654,4.35196 h 44.08175 l 1.7183,-7.41921 a 279.87493,279.87493 0 0 0 4.94615,-35.426 v -0.46571 z m -53.23533,-86.50942 -0.25695,-0.67448 h -46.57088 l 0.96354,2.00736 a 154.3905,154.3905 0 0 1 11.72301,39.77796 l 0.24088,1.97525 h 43.53575 l -1.09201,-8.52729 a 196.52912,196.52912 0 0 0 -8.54334,-34.5588 z"
     id="path2"
     style="fill:url(#%E6%9C%AA%E5%91%BD%E5%90%8D%E7%9A%84%E6%B8%90%E5%8F%98);stroke-width:1.60589" />
</svg>
