<?xml version="1.0" encoding="UTF-8" standalone="no"?>
<svg
   id="_图层_1"
   data-name="图层 1"
   viewBox="0 0 97.69 111.515"
   version="1.1"
   width="97.690002"
   height="111.515"
   xmlns="http://www.w3.org/2000/svg"
   xmlns:svg="http://www.w3.org/2000/svg">
  <defs
     id="defs1">
    <style
       id="style1">
      .cls-1 {
        fill: #002fa7;
      }
    </style>
  </defs>
  <g
     id="_图层_1-2"
     data-name="图层 1-2"
     transform="translate(0,-0.0125)">
    <path
       class="cls-1"
       d="M 95.69,26.47 50.76,0.53 c -1.2,-0.69 -2.69,-0.69 -3.89,0 L 1.94,26.47 C 0.74,27.17 0,28.45 0,29.84 v 51.88 c 0,1.39 0.74,2.67 1.94,3.37 l 44.93,25.92 c 1.2,0.69 2.69,0.69 3.89,0 L 95.69,85.09 c 1.23,-0.68 1.99,-1.97 2,-3.37 V 29.84 c -0.01,-1.4 -0.77,-2.69 -2,-3.37 z m -35.82,53.1 c -3.5,4.47 -10.51,5.76 -15.2,2.83 -4.41,-2.76 -4.8,-8.09 -1.25,-11.88 3.59,-3.67 9.08,-4.73 13.78,-2.65 4.63,2.26 6,7.47 2.67,11.7 z m 8.32,-41.55 c -2.3,2.34 -7.23,3.35 -10.79,2.22 -1.98,-0.64 -3.07,-1.95 -3.13,-3.05 -0.04,-0.8 -1.32,-1.58 -2.72,-2 -1.54,-0.37 -3.14,-0.43 -4.7,-0.18 -0.63,0.07 -1.24,0.19 -1.85,0.36 -1.41,0.42 -2.74,1.09 -3.9,2 -1.08,1 -1.72,2.4 -1.78,3.87 0.05,1.05 1.01,1.94 2.47,2.49 1.61,0.53 3.33,0.65 5,0.35 2.13,-0.61 4.39,-0.58 6.51,0.08 3.58,1.25 4.49,4.48 1.78,7.25 -3.2,2.99 -7.81,3.91 -11.91,2.4 -1.65,-0.66 -2.75,-2.23 -2.81,-4 -0.09,-1.15 -1.13,-2.08 -2.54,-2.66 -1.59,-0.52 -3.28,-0.66 -4.94,-0.4 -0.67,0.11 -1.34,0.25 -2,0.42 -1.67,0.38 -3.2,1.19 -4.45,2.36 -0.91,0.9 -1.65,1.96 -2.16,3.14 -0.21,0.53 -0.35,1.08 -0.42,1.65 0,1.41 0.85,2.68 2.15,3.24 1.64,0.76 3.47,1 5.25,0.68 2.28,-0.71 4.73,-0.57 6.92,0.37 3.64,1.76 4.03,5.94 0.64,9.4 -3.55,3.62 -9.58,4.78 -13.16,2.55 -1.78,-1.09 -2.68,-3.17 -2.25,-5.21 0,-0.26 -0.03,-0.53 -0.07,-0.79 -0.06,-0.35 -0.17,-0.68 -0.33,-1 -0.4,-0.76 -1.01,-1.39 -1.76,-1.81 -1.59,-0.81 -3.4,-1.06 -5.15,-0.72 -2.4,0.65 -4.76,0.59 -6.3,-0.41 -2.63,-1.61 -1.85,-5.13 1.54,-7.78 1.72,-1.32 3.74,-2.21 5.88,-2.6 1.98,-0.39 3.83,-1.25 5.42,-2.49 1.26,-0.85 2.11,-2.17 2.37,-3.67 0.02,-0.42 0,-0.85 -0.08,-1.27 -0.15,-1.08 0.17,-2.17 0.88,-3 0.87,-0.85 1.98,-1.41 3.18,-1.59 0.93,-0.12 1.87,-0.18 2.81,-0.17 0.67,-0.04 1.34,-0.13 2,-0.26 1.18,-0.32 2.28,-0.9 3.21,-1.69 0.87,-0.6 1.49,-1.49 1.76,-2.51 0.04,-0.33 0.06,-0.67 0.06,-1 -0.34,-1.87 2.26,-3.92 5.82,-4.58 1.59,-0.31 3.23,-0.24 4.78,0.21 h 0.14 c 1.04,0.16 1.94,0.8 2.44,1.73 v 0.06 c 0.06,0.12 0.1,0.25 0.13,0.38 0.53,1.02 1.52,1.74 2.66,1.92 1.56,0.38 3.18,0.43 4.76,0.15 2,-0.55 4.12,-0.6 6.14,-0.12 3.5,0.9 4.8,3.34 2.5,5.68 z m 19.39,5.57 c -2.15,2.72 -7.68,3.83 -12.08,2.42 -4.19,-1.33 -5.44,-4.54 -3.27,-6.82 2.17,-2.28 7.08,-3.34 11.17,-2.28 4.26,1.1 6.33,3.96 4.18,6.68 z"
       id="path1" />
  </g>
</svg>
